<?xml version="1.0" standalone="no"?>
<!DOCTYPE svg PUBLIC "-//W3C//DTD SVG 1.1//EN" "http://www.w3.org/Graphics/SVG/1.1/DTD/svg11.dtd" >
<svg xmlns="http://www.w3.org/2000/svg">
<metadata>
This is a custom SVG webfont generated by Font Squirrel.
Copyright   : Typeface  Quivirafontcom 2005 All Rights Reserved
</metadata>
<defs>
<font id="webfontXmMebIhV" horiz-adv-x="1500" >
<font-face units-per-em="2048" ascent="1638" descent="-410" />
<missing-glyph horiz-adv-x="590" />
<glyph unicode=" "  horiz-adv-x="590" />
<glyph unicode="&#x09;" horiz-adv-x="590" />
<glyph unicode="&#xa0;" horiz-adv-x="590" />
<glyph unicode="!" horiz-adv-x="420" d="M210 220q29 0 55.5 -14t40.5 -40.5t14 -55.5t-14 -55.5t-40.5 -40.5t-55.5 -14t-55.5 14t-40.5 40.5t-14 55.5t14 55.5t40.5 40.5t55.5 14zM228 400h-36l-86 788q-6 51 -6 77q0 61 32.5 98t78.5 37t77.5 -37t31.5 -110q0 -23 -4 -65z" />
<glyph unicode="&#x22;" horiz-adv-x="670" d="M210 1400q29 0 55.5 -14t40.5 -40.5t14 -55.5t-40.5 -209.5t-69.5 -180.5t-69.5 180.5t-40.5 209.5t14 55.5t40.5 40.5t55.5 14zM460 1400q29 0 55.5 -14t40.5 -40.5t14 -55.5t-40.5 -209.5t-69.5 -180.5t-69.5 180.5t-40.5 209.5t14 55.5t40.5 40.5t55.5 14z" />
<glyph unicode="#" horiz-adv-x="1250" d="M294 538l87 325h-231v75h251l124 462h78l-124 -462h372l124 462h78l-124 -462h221v-75h-241l-88 -325h279v-75h-299l-124 -463h-77l124 463h-373l-124 -463h-77l124 463h-174v75h194zM459 863l-88 -325h373l87 325h-372z" />
<glyph unicode="$" horiz-adv-x="1001" d="M539 1401q66 -13 137 -43q56 -25 79 -25q26 0 42.5 15.5t26.5 61.5h37v-463h-37q-18 133 -64.5 212t-132.5 115q-43 18 -88 27v-500q181 -97 258 -149q79 -54 116.5 -127t37.5 -153q0 -162 -119 -272q-115 -106 -293 -110v-140h-75v142q-26 3 -51 7q-31 5 -128.5 36 t-123.5 31q-25 0 -39.5 -15t-21.5 -61h-37v459h37q26 -144 70 -215.5t135 -107.5q73 -29 159 -35v515q-8 5 -17 10q-174 96 -247.5 153t-111.5 126.5t-38 152.5q0 154 112 258t285 104h17v140h75v-149zM539 91q100 7 162 53q72 53 72 152q0 50 -27.5 100t-85.5 94 q-27 20 -121 74v-473zM464 1310h-15q-104 0 -172 -52t-68 -142q0 -62 43 -112q44 -63 212 -161v467z" />
<glyph unicode="%" horiz-adv-x="1550" d="M375 1410q84 0 162.5 -48.5t120.5 -138.5t42 -198q0 -107 -42 -197.5t-120.5 -139t-162.5 -48.5t-162.5 48.5t-120.5 139t-42 197.5q0 108 42 198t120.5 138.5t162.5 48.5zM175 1025q0 -88 26 -160.5t74 -111t100 -38.5t100 38.5t74 111t26 160.5t-26 160.5t-74 111 t-100 38.5t-100 -38.5t-74 -111t-26 -160.5zM1175 760q84 0 162.5 -48.5t120.5 -138.5t42 -198q0 -107 -42 -197.5t-120.5 -139t-162.5 -48.5t-162.5 48.5t-120.5 139t-42 197.5q0 108 42 198t120.5 138.5t162.5 48.5zM975 375q0 -88 26 -160.5t74 -111t100 -38.5t100 38.5 t74 111t26 160.5t-26 160.5t-74 111t-100 38.5t-100 -38.5t-74 -111t-26 -160.5zM254 0l981 1400h91l-981 -1400h-91z" />
<glyph unicode="&#x26;" horiz-adv-x="1556" d="M1020 904h420v-37q-87 -7 -128.5 -38.5t-129.5 -190.5t-198 -297q79 -114 154 -155.5t146 -41.5q69 0 117 37.5t68 110.5l37 -27q-37 -141 -119 -208t-191 -67q-82 0 -171.5 44.5t-189.5 150.5q-124 -110 -218.5 -152.5t-207.5 -42.5q-165 0 -262 88t-97 220 q0 121 87 241.5t327 249.5q-47 104 -64 165.5t-17 122.5q0 181 126 263q98 70 223 70q119 0 188.5 -71.5t69.5 -184.5q0 -106 -67 -176t-251 -165q127 -226 265 -414q176 210 176 354q0 46 -30 82q-22 27 -63 32v37zM638 878q124 59 180.5 124t56.5 157q0 82 -39.5 130 t-105.5 48q-87 0 -131.5 -56.5t-44.5 -124.5q0 -49 17 -104.5t67 -173.5zM793 222q-132 180 -183 263t-112 206q-120 -69 -184 -152t-64 -180q0 -117 72.5 -198t189.5 -81q63 0 116.5 25t164.5 117z" />
<glyph unicode="'" horiz-adv-x="420" d="M210 1400q29 0 55.5 -14t40.5 -40.5t14 -55.5t-40.5 -209.5t-69.5 -180.5t-69.5 180.5t-40.5 209.5t14 55.5t40.5 40.5t55.5 14z" />
<glyph unicode="(" horiz-adv-x="660" d="M250 550q0 -575 305 -980l55 -70q-111 77 -205 187q-305 358 -305 863t305 864q94 109 205 186l-55 -70q-305 -405 -305 -980z" />
<glyph unicode=")" horiz-adv-x="660" d="M105 1530l-55 70q111 -77 205 -186q305 -359 305 -864t-305 -863q-94 -110 -205 -187l55 70q305 405 305 980t-305 980z" />
<glyph unicode="*" horiz-adv-x="836" d="M383 1057q-6 70 -29 139q-26 75 -26 104t9 55.5t30.5 40.5t50.5 14t50.5 -14t30.5 -40.5t9 -55.5t-25 -104q-23 -69 -29 -138q54 39 101 92q52 59 78 74q25 14 53 20q8 1 17 1q17 0 33 -7q22 -12 37 -37q13 -23 13 -48v-3q-1 -26 -19.5 -47t-43.5 -35q-26 -15 -103 -30 q-51 -11 -97 -28q46 -17 97 -27q77 -16 103 -31q25 -14 43.5 -35t19.5 -47v-3q0 -25 -13 -48q-15 -25 -37 -36q-16 -8 -33 -8q-9 0 -17 2q-28 5 -53 19q-26 15 -78 75q-47 52 -101 91q6 -68 29 -137q25 -76 25 -105t-9 -55.5t-30.5 -40.5t-50.5 -14t-50.5 14t-30.5 40.5 t-9 55.5t26 105q23 69 29 138q-55 -39 -101 -92q-53 -60 -79 -75q-25 -14 -52 -19q-9 -2 -18 -2q-17 0 -32 8q-23 11 -38 36q-13 23 -13 48v3q1 26 19.5 47t43.5 35q26 15 104 31q50 10 96 27q-46 17 -96 28q-78 15 -104 30q-25 14 -43.5 35t-19.5 47v3q0 25 13 48 q15 25 38 37q15 7 32 7q9 0 18 -1q27 -6 52 -20q26 -15 79 -74q46 -54 101 -93z" />
<glyph unicode="+" horiz-adv-x="1200" d="M563 663h-463v75h463v462h75v-462h462v-75h-462v-463h-75v463z" />
<glyph unicode="&#xa4f9;" horiz-adv-x="476" d="M236 217q48 -10 89 -54q51 -58 51 -153q0 -103 -71.5 -191.5t-226.5 -139.5v44q103 34 159.5 105.5t56.5 151.5q0 19 -9 32q-5 6 -9 8l-10 -6q-27 -14 -56 -14t-55.5 14t-40.5 40.5t-14 55.5t14 55.5t41 40.5q25 13 52 14h3q13 0 26 -3z" />
<glyph unicode="&#x201a;" horiz-adv-x="476" d="M236 217q48 -10 89 -54q51 -58 51 -153q0 -103 -71.5 -191.5t-226.5 -139.5v44q103 34 159.5 105.5t56.5 151.5q0 19 -9 32q-5 6 -9 8l-10 -6q-27 -14 -56 -14t-55.5 14t-40.5 40.5t-14 55.5t14 55.5t41 40.5q25 13 52 14h3q13 0 26 -3z" />
<glyph unicode="," horiz-adv-x="476" d="M236 217q48 -10 89 -54q51 -58 51 -153q0 -103 -71.5 -191.5t-226.5 -139.5v44q103 34 159.5 105.5t56.5 151.5q0 19 -9 32q-5 6 -9 8l-10 -6q-27 -14 -56 -14t-55.5 14t-40.5 40.5t-14 55.5t14 55.5t41 40.5q25 13 52 14h3q13 0 26 -3z" />
<glyph unicode="-" horiz-adv-x="700" d="M100 375v150h500v-150h-500z" />
<glyph unicode="&#xa4f8;" horiz-adv-x="420" d="M210 220q29 0 55.5 -14t40.5 -40.5t14 -55.5t-14 -55.5t-40.5 -40.5t-55.5 -14t-55.5 14t-40.5 40.5t-14 55.5t14 55.5t40.5 40.5t55.5 14z" />
<glyph unicode="&#x2024;" horiz-adv-x="420" d="M210 220q29 0 55.5 -14t40.5 -40.5t14 -55.5t-14 -55.5t-40.5 -40.5t-55.5 -14t-55.5 14t-40.5 40.5t-14 55.5t14 55.5t40.5 40.5t55.5 14z" />
<glyph unicode="." horiz-adv-x="420" d="M210 220q29 0 55.5 -14t40.5 -40.5t14 -55.5t-14 -55.5t-40.5 -40.5t-55.5 -14t-55.5 14t-40.5 40.5t-14 55.5t14 55.5t40.5 40.5t55.5 14z" />
<glyph unicode="/" horiz-adv-x="790" d="M100 0l510 1400h80l-510 -1400h-80z" />
<glyph unicode="0" horiz-adv-x="1000" d="M499 1410q109 0 209.5 -90t154.5 -259t54 -361t-54 -361t-154.5 -259t-209.5 -90q-108 0 -208.5 90t-154.5 259t-54 361t54 361t154.5 259t208.5 90zM365.5 1255q-64.5 -80 -99 -231t-34.5 -324q0 -172 34.5 -323.5t99 -231.5t133.5 -80q70 0 134.5 80t99 231.5 t34.5 323.5q0 173 -34.5 324t-99 231t-134.5 80q-69 0 -133.5 -80z" />
<glyph unicode="1" horiz-adv-x="1000" d="M525 170v780h-285v75q285 0 360 385h75v-1240q0 -50 25 -90t95 -40h50v-40h-490v40h50q70 0 95 40t25 90z" />
<glyph unicode="2" horiz-adv-x="1000" d="M947 261l-95 -261h-800v57q353 322 497 526t144 373q0 139 -79 221.5t-189 82.5q-100 0 -179.5 -68t-117.5 -181h-37q25 185 128.5 292t258.5 107q165 0 275.5 -114t110.5 -268q0 -103 -48 -206q-74 -162 -240 -343q-249 -272 -311 -329h354q108 0 151.5 8.5t78.5 33 t61 69.5h37z" />
<glyph unicode="3" horiz-adv-x="1000" d="M730 375q0 78 -34.5 150.5t-99 111t-248.5 38.5v52q120 0 201.5 50.5t111 119.5t29.5 143q0 84 -29.5 143t-84 95.5t-114.5 36.5q-59 0 -128.5 -26.5t-154.5 -147.5l-39 39q83 147 158.5 188.5t163.5 41.5q99 0 189.5 -46.5t139.5 -133t49 -190.5q0 -94 -49 -180.5 t-139 -132.5q-9 -5 -18 -9q19 -7 38 -16q100 -49 154 -139t54 -188q0 -107 -54 -197.5t-154.5 -139t-208.5 -48.5q-119 0 -215 63t-129 159l31 18l9 -22q35 -67 119.5 -111t184.5 -44q69 0 128.5 40t99 115t39.5 167z" />
<glyph unicode="4" horiz-adv-x="1000" d="M797 1400v-900h178v-150h-178v-350h-150v350h-622v150l622 900h150zM647 500v768l-531 -768h531z" />
<glyph unicode="5" horiz-adv-x="1000" d="M873 1400l-150 -150h-392l-62 -388q68 38 187 38q108 0 208.5 -58t154.5 -166.5t54 -225.5q0 -127 -54 -235.5t-154.5 -166.5t-208.5 -58q-109 0 -204.5 53t-139.5 161q-5 18 -5 34q0 56 61 66q13 2 24 2q40 0 55 -26q13 -24 13 -49q0 -8 -1 -16q-2 -9 -2 -18 q0 -25 13 -50q17 -36 66.5 -59t119.5 -23q69 0 128.5 48t99 139t39.5 198q0 98 -39.5 178.5t-99 118.5t-128.5 38q-140 0 -226 -43q-17 -8 -32 -16l-85 -50l128 724h632z" />
<glyph unicode="6" horiz-adv-x="1000" d="M237 533q-3 -35 -5 -83q0 -107 34.5 -198t99 -139t133.5 -48q70 0 134.5 48t99 139t34.5 198q0 108 -34.5 198.5t-99 138.5t-134.5 48q-69 0 -133.5 -48t-98.5 -138q-22 -57 -30 -116zM156.5 872q45.5 120 169.5 264t279.5 204t263.5 60v-45q-69 0 -188.5 -65 t-228.5 -201q-92 -114 -142 -226q91 47 189 47q109 0 209.5 -58t154.5 -166.5t54 -235.5t-54 -235.5t-154.5 -166.5t-209.5 -58q-108 0 -208.5 58t-154.5 166.5t-54 235.5q0 97 14.5 199.5t60 222.5z" />
<glyph unicode="7" horiz-adv-x="1000" d="M788 1250h-488q-100 0 -210 -200h-40l100 350h800l-510 -1400h-107z" />
<glyph unicode="8" horiz-adv-x="1000" d="M266.5 525.5q-34.5 -72.5 -34.5 -150.5q0 -88 34.5 -160.5t99 -111t133.5 -38.5q70 0 134.5 38.5t99 111t34.5 160.5q0 78 -34.5 150.5t-99 111t-134.5 38.5q-69 0 -133.5 -38.5t-99 -111zM301.5 1193q-29.5 -69 -29.5 -153q0 -74 29.5 -143t84 -105.5t113.5 -36.5 q60 0 114.5 36.5t84 105.5t29.5 143q0 84 -29.5 153t-84 105.5t-114.5 36.5q-59 0 -113.5 -36.5t-84 -105.5zM671 718q19 -7 38 -16q100 -49 154 -139t54 -188q0 -107 -54 -197.5t-154.5 -139t-209.5 -48.5q-108 0 -208.5 48.5t-154.5 139t-54 197.5q0 98 54 188t155 139 q18 9 37 16q-9 4 -17 9q-91 46 -140 132.5t-49 180.5q0 104 49 190.5t139.5 133t188.5 46.5q99 0 189.5 -46.5t139.5 -133t49 -190.5q0 -94 -49 -180.5t-139 -132.5q-9 -5 -18 -9z" />
<glyph unicode="9" horiz-adv-x="1000" d="M762 867q3 35 5 83q0 107 -34.5 198t-99 139t-133.5 48q-70 0 -134.5 -48t-99 -139t-34.5 -198q0 -108 34.5 -198.5t99 -138.5t134.5 -48q69 0 133.5 48t99.5 139q21 56 29 115zM842.5 528q-45.5 -120 -169.5 -264t-279.5 -204t-263.5 -60v45q69 0 188.5 65t229.5 201 q91 114 141 226q-91 -47 -189 -47q-109 0 -209.5 58t-154.5 166.5t-54 235.5t54 235.5t154.5 166.5t209.5 58q108 0 208.5 -58t154.5 -166.5t54 -235.5q0 -97 -14.5 -199.5t-60 -222.5z" />
<glyph unicode="&#xa4fd;" horiz-adv-x="420" d="M210 220q29 0 55.5 -14t40.5 -40.5t14 -55.5t-14 -55.5t-40.5 -40.5t-55.5 -14t-55.5 14t-40.5 40.5t-14 55.5t14 55.5t40.5 40.5t55.5 14zM210 900q29 0 55.5 -14t40.5 -40.5t14 -55.5t-14 -55.5t-40.5 -40.5t-55.5 -14t-55.5 14t-40.5 40.5t-14 55.5t14 55.5t40.5 40.5 t55.5 14z" />
<glyph unicode="&#x2236;" horiz-adv-x="420" d="M210 220q29 0 55.5 -14t40.5 -40.5t14 -55.5t-14 -55.5t-40.5 -40.5t-55.5 -14t-55.5 14t-40.5 40.5t-14 55.5t14 55.5t40.5 40.5t55.5 14zM210 900q29 0 55.5 -14t40.5 -40.5t14 -55.5t-14 -55.5t-40.5 -40.5t-55.5 -14t-55.5 14t-40.5 40.5t-14 55.5t14 55.5t40.5 40.5 t55.5 14z" />
<glyph unicode="&#x589;" horiz-adv-x="420" d="M210 220q29 0 55.5 -14t40.5 -40.5t14 -55.5t-14 -55.5t-40.5 -40.5t-55.5 -14t-55.5 14t-40.5 40.5t-14 55.5t14 55.5t40.5 40.5t55.5 14zM210 900q29 0 55.5 -14t40.5 -40.5t14 -55.5t-14 -55.5t-40.5 -40.5t-55.5 -14t-55.5 14t-40.5 40.5t-14 55.5t14 55.5t40.5 40.5 t55.5 14z" />
<glyph unicode=":" horiz-adv-x="420" d="M210 220q29 0 55.5 -14t40.5 -40.5t14 -55.5t-14 -55.5t-40.5 -40.5t-55.5 -14t-55.5 14t-40.5 40.5t-14 55.5t14 55.5t40.5 40.5t55.5 14zM210 900q29 0 55.5 -14t40.5 -40.5t14 -55.5t-14 -55.5t-40.5 -40.5t-55.5 -14t-55.5 14t-40.5 40.5t-14 55.5t14 55.5t40.5 40.5 t55.5 14z" />
<glyph unicode="&#xa4fc;" horiz-adv-x="476" d="M236 217q48 -10 89 -54q51 -58 51 -153q0 -103 -71.5 -191.5t-226.5 -139.5v44q103 34 159.5 105.5t56.5 151.5q0 19 -9 32q-5 6 -9 8l-10 -6q-27 -14 -56 -14t-55.5 14t-40.5 40.5t-14 55.5t14 55.5t41 40.5q25 13 52 14h3q13 0 26 -3zM210 900q29 0 55.5 -14 t40.5 -40.5t14 -55.5t-14 -55.5t-40.5 -40.5t-55.5 -14t-55.5 14t-40.5 40.5t-14 55.5t14 55.5t40.5 40.5t55.5 14z" />
<glyph unicode="&#x37e;" horiz-adv-x="476" d="M236 217q48 -10 89 -54q51 -58 51 -153q0 -103 -71.5 -191.5t-226.5 -139.5v44q103 34 159.5 105.5t56.5 151.5q0 19 -9 32q-5 6 -9 8l-10 -6q-27 -14 -56 -14t-55.5 14t-40.5 40.5t-14 55.5t14 55.5t41 40.5q25 13 52 14h3q13 0 26 -3zM210 900q29 0 55.5 -14 t40.5 -40.5t14 -55.5t-14 -55.5t-40.5 -40.5t-55.5 -14t-55.5 14t-40.5 40.5t-14 55.5t14 55.5t40.5 40.5t55.5 14z" />
<glyph unicode=";" horiz-adv-x="476" d="M236 217q48 -10 89 -54q51 -58 51 -153q0 -103 -71.5 -191.5t-226.5 -139.5v44q103 34 159.5 105.5t56.5 151.5q0 19 -9 32q-5 6 -9 8l-10 -6q-27 -14 -56 -14t-55.5 14t-40.5 40.5t-14 55.5t14 55.5t41 40.5q25 13 52 14h3q13 0 26 -3zM210 900q29 0 55.5 -14 t40.5 -40.5t14 -55.5t-14 -55.5t-40.5 -40.5t-55.5 -14t-55.5 14t-40.5 40.5t-14 55.5t14 55.5t40.5 40.5t55.5 14z" />
<glyph unicode="&#x3c;" horiz-adv-x="1200" d="M100 740l1000 364v-80l-891 -324l891 -324v-80l-1000 365v79z" />
<glyph unicode="=" horiz-adv-x="1200" d="M100 812v75h1000v-75h-1000zM100 512v75h1000v-75h-1000z" />
<glyph unicode="&#x3e;" horiz-adv-x="1200" d="M1100 661l-1000 -365v80l891 324l-891 324v80l1000 -364v-79z" />
<glyph unicode="?" horiz-adv-x="900" d="M450 220q29 0 55.5 -14t40.5 -40.5t14 -55.5t-14 -55.5t-40.5 -40.5t-55.5 -14t-55.5 14t-40.5 40.5t-14 55.5t14 55.5t40.5 40.5t55.5 14zM465 400h-59q6 118 29.5 195.5t96.5 214.5l88 163q30 57 30 115q0 129 -77.5 199.5t-170.5 70.5q-83 0 -130.5 -38.5t-47.5 -83.5 q0 -35 28.5 -85.5t28.5 -76.5q0 -34 -22 -57t-53 -23q-40 0 -73 39t-33 108q0 106 92.5 187.5t250.5 81.5q196 0 288 -112q69 -83 69 -193q0 -69 -31 -141t-118 -169q-138 -154 -159 -218.5t-27 -176.5z" />
<glyph unicode="@" horiz-adv-x="1939" d="M725.5 638.5q-52.5 -90.5 -72.5 -188.5q-10 -52 -10 -102q0 -44 8 -86q16 -91 70.5 -139t123.5 -48q70 0 144.5 48t127 139t71.5 188q11 54 11 105q0 43 -7 84q-17 90 -72 138t-125 48q-69 0 -143 -48t-126.5 -138.5zM1443 139q4 3 9 6q102 73 175 237t73 342 q0 181 -82.5 326t-233 227.5t-332.5 82.5q-231 0 -429 -127.5t-310.5 -357.5t-112.5 -488q0 -230 98.5 -418t282.5 -283.5t396 -95.5q263 0 475.5 140t328.5 411h58q-90 -274 -327 -437.5t-540 -163.5q-238 0 -442 106t-317 312.5t-113 454.5q0 274 124 502.5t347.5 361.5 t474.5 133q207 0 373.5 -90t253.5 -254.5t87 -359.5q0 -183 -81.5 -362.5t-207.5 -261.5q-48 -31 -80 -49q-61 -33 -117 -33q-46 0 -84.5 25.5t-50.5 73.5q-2 6 -3 14q-39 -31 -84 -55q-113 -58 -222 -58q-108 0 -196.5 58t-120.5 167q-20 63 -20 130q0 47 10 95 q24 117 99.5 225.5t187.5 166.5t220 58q109 0 198 -58q4 -3 8 -5l162 63h50l-126 -633q-8 -38 -8 -66q0 -36 14 -54q24 -31 70 -31q30 0 65 23z" />
<glyph unicode="&#x13aa;" horiz-adv-x="1579" d="M471 480l-117 -289q-5 -18 -5 -37q0 -29 11 -59q20 -55 90 -55h50v-40h-500v40h50q70 0 125 55q51 51 72 98l488 1207h108l487 -1205q22 -48 74 -100q55 -55 125 -55h50v-40h-600v40h50q70 0 86 55q7 25 7 50q0 23 -6 45l-117 290h-528zM958 580l-223 553l-224 -553h447z " />
<glyph unicode="&#x410;" horiz-adv-x="1579" d="M471 480l-117 -289q-5 -18 -5 -37q0 -29 11 -59q20 -55 90 -55h50v-40h-500v40h50q70 0 125 55q51 51 72 98l488 1207h108l487 -1205q22 -48 74 -100q55 -55 125 -55h50v-40h-600v40h50q70 0 86 55q7 25 7 50q0 23 -6 45l-117 290h-528zM958 580l-223 553l-224 -553h447z " />
<glyph unicode="&#x391;" horiz-adv-x="1579" d="M471 480l-117 -289q-5 -18 -5 -37q0 -29 11 -59q20 -55 90 -55h50v-40h-500v40h50q70 0 125 55q51 51 72 98l488 1207h108l487 -1205q22 -48 74 -100q55 -55 125 -55h50v-40h-600v40h50q70 0 86 55q7 25 7 50q0 23 -6 45l-117 290h-528zM958 580l-223 553l-224 -553h447z " />
<glyph unicode="A" horiz-adv-x="1579" d="M471 480l-117 -289q-5 -18 -5 -37q0 -29 11 -59q20 -55 90 -55h50v-40h-500v40h50q70 0 125 55q51 51 72 98l488 1207h108l487 -1205q22 -48 74 -100q55 -55 125 -55h50v-40h-600v40h50q70 0 86 55q7 25 7 50q0 23 -6 45l-117 290h-528zM958 580l-223 553l-224 -553h447z " />
<glyph unicode="&#x102a1;" horiz-adv-x="1350" d="M450 130q120 -30 245 -30q175 0 290 62.5t115 212.5t-115 212.5t-290 62.5q-125 0 -245 -30v-490zM250 1200q0 50 -40 105t-110 55h-50v40h670q250 0 390 -92.5t140 -282.5t-155 -297q-15 -10 -31 -18q45 -15 81 -37q155 -108 155 -298t-140 -282.5t-390 -92.5h-720v40 h50q70 0 110 55t40 105v1000zM695 750q125 0 240 62.5t115 212.5t-115 212.5t-240 62.5t-245 -30v-490q120 -30 245 -30z" />
<glyph unicode="&#x10282;" horiz-adv-x="1350" d="M450 130q120 -30 245 -30q175 0 290 62.5t115 212.5t-115 212.5t-290 62.5q-125 0 -245 -30v-490zM250 1200q0 50 -40 105t-110 55h-50v40h670q250 0 390 -92.5t140 -282.5t-155 -297q-15 -10 -31 -18q45 -15 81 -37q155 -108 155 -298t-140 -282.5t-390 -92.5h-720v40 h50q70 0 110 55t40 105v1000zM695 750q125 0 240 62.5t115 212.5t-115 212.5t-240 62.5t-245 -30v-490q120 -30 245 -30z" />
<glyph unicode="&#x2c82;" horiz-adv-x="1350" d="M450 130q120 -30 245 -30q175 0 290 62.5t115 212.5t-115 212.5t-290 62.5q-125 0 -245 -30v-490zM250 1200q0 50 -40 105t-110 55h-50v40h670q250 0 390 -92.5t140 -282.5t-155 -297q-15 -10 -31 -18q45 -15 81 -37q155 -108 155 -298t-140 -282.5t-390 -92.5h-720v40 h50q70 0 110 55t40 105v1000zM695 750q125 0 240 62.5t115 212.5t-115 212.5t-240 62.5t-245 -30v-490q120 -30 245 -30z" />
<glyph unicode="&#x13f4;" horiz-adv-x="1350" d="M450 130q120 -30 245 -30q175 0 290 62.5t115 212.5t-115 212.5t-290 62.5q-125 0 -245 -30v-490zM250 1200q0 50 -40 105t-110 55h-50v40h670q250 0 390 -92.5t140 -282.5t-155 -297q-15 -10 -31 -18q45 -15 81 -37q155 -108 155 -298t-140 -282.5t-390 -92.5h-720v40 h50q70 0 110 55t40 105v1000zM695 750q125 0 240 62.5t115 212.5t-115 212.5t-240 62.5t-245 -30v-490q120 -30 245 -30z" />
<glyph unicode="&#x412;" horiz-adv-x="1350" d="M450 130q120 -30 245 -30q175 0 290 62.5t115 212.5t-115 212.5t-290 62.5q-125 0 -245 -30v-490zM250 1200q0 50 -40 105t-110 55h-50v40h670q250 0 390 -92.5t140 -282.5t-155 -297q-15 -10 -31 -18q45 -15 81 -37q155 -108 155 -298t-140 -282.5t-390 -92.5h-720v40 h50q70 0 110 55t40 105v1000zM695 750q125 0 240 62.5t115 212.5t-115 212.5t-240 62.5t-245 -30v-490q120 -30 245 -30z" />
<glyph unicode="&#x392;" horiz-adv-x="1350" d="M450 130q120 -30 245 -30q175 0 290 62.5t115 212.5t-115 212.5t-290 62.5q-125 0 -245 -30v-490zM250 1200q0 50 -40 105t-110 55h-50v40h670q250 0 390 -92.5t140 -282.5t-155 -297q-15 -10 -31 -18q45 -15 81 -37q155 -108 155 -298t-140 -282.5t-390 -92.5h-720v40 h50q70 0 110 55t40 105v1000zM695 750q125 0 240 62.5t115 212.5t-115 212.5t-240 62.5t-245 -30v-490q120 -30 245 -30z" />
<glyph unicode="B" horiz-adv-x="1350" d="M450 130q120 -30 245 -30q175 0 290 62.5t115 212.5t-115 212.5t-290 62.5q-125 0 -245 -30v-490zM250 1200q0 50 -40 105t-110 55h-50v40h670q250 0 390 -92.5t140 -282.5t-155 -297q-15 -10 -31 -18q45 -15 81 -37q155 -108 155 -298t-140 -282.5t-390 -92.5h-720v40 h50q70 0 110 55t40 105v1000zM695 750q125 0 240 62.5t115 212.5t-115 212.5t-240 62.5t-245 -30v-490q120 -30 245 -30z" />
<glyph unicode="&#x102a2;" horiz-adv-x="1248" d="M750 1310q-237 0 -368.5 -193.5t-131.5 -416.5q0 -219 131.5 -414.5t368.5 -195.5q269 0 423 164l25 -35l-22 -24q-194 -205 -426 -205q-312 0 -506 204.5t-194 505.5q0 300 192 505t508 205q100 0 185 -39t115 -39t53.5 26.5t23.5 51.5h37v-450h-37q0 80 -53.5 165 t-141 135t-182.5 50z" />
<glyph unicode="&#x10141;" horiz-adv-x="1248" d="M750 1310q-237 0 -368.5 -193.5t-131.5 -416.5q0 -219 131.5 -414.5t368.5 -195.5q269 0 423 164l25 -35l-22 -24q-194 -205 -426 -205q-312 0 -506 204.5t-194 505.5q0 300 192 505t508 205q100 0 185 -39t115 -39t53.5 26.5t23.5 51.5h37v-450h-37q0 80 -53.5 165 t-141 135t-182.5 50z" />
<glyph unicode="&#x2ca4;" horiz-adv-x="1248" d="M750 1310q-237 0 -368.5 -193.5t-131.5 -416.5q0 -219 131.5 -414.5t368.5 -195.5q269 0 423 164l25 -35l-22 -24q-194 -205 -426 -205q-312 0 -506 204.5t-194 505.5q0 300 192 505t508 205q100 0 185 -39t115 -39t53.5 26.5t23.5 51.5h37v-450h-37q0 80 -53.5 165 t-141 135t-182.5 50z" />
<glyph unicode="&#x216d;" horiz-adv-x="1248" d="M750 1310q-237 0 -368.5 -193.5t-131.5 -416.5q0 -219 131.5 -414.5t368.5 -195.5q269 0 423 164l25 -35l-22 -24q-194 -205 -426 -205q-312 0 -506 204.5t-194 505.5q0 300 192 505t508 205q100 0 185 -39t115 -39t53.5 26.5t23.5 51.5h37v-450h-37q0 80 -53.5 165 t-141 135t-182.5 50z" />
<glyph unicode="&#x13df;" horiz-adv-x="1248" d="M750 1310q-237 0 -368.5 -193.5t-131.5 -416.5q0 -219 131.5 -414.5t368.5 -195.5q269 0 423 164l25 -35l-22 -24q-194 -205 -426 -205q-312 0 -506 204.5t-194 505.5q0 300 192 505t508 205q100 0 185 -39t115 -39t53.5 26.5t23.5 51.5h37v-450h-37q0 80 -53.5 165 t-141 135t-182.5 50z" />
<glyph unicode="&#x421;" horiz-adv-x="1248" d="M750 1310q-237 0 -368.5 -193.5t-131.5 -416.5q0 -219 131.5 -414.5t368.5 -195.5q269 0 423 164l25 -35l-22 -24q-194 -205 -426 -205q-312 0 -506 204.5t-194 505.5q0 300 192 505t508 205q100 0 185 -39t115 -39t53.5 26.5t23.5 51.5h37v-450h-37q0 80 -53.5 165 t-141 135t-182.5 50z" />
<glyph unicode="&#x3f9;" horiz-adv-x="1248" d="M750 1310q-237 0 -368.5 -193.5t-131.5 -416.5q0 -219 131.5 -414.5t368.5 -195.5q269 0 423 164l25 -35l-22 -24q-194 -205 -426 -205q-312 0 -506 204.5t-194 505.5q0 300 192 505t508 205q100 0 185 -39t115 -39t53.5 26.5t23.5 51.5h37v-450h-37q0 80 -53.5 165 t-141 135t-182.5 50z" />
<glyph unicode="C" horiz-adv-x="1248" d="M750 1310q-237 0 -368.5 -193.5t-131.5 -416.5q0 -219 131.5 -414.5t368.5 -195.5q269 0 423 164l25 -35l-22 -24q-194 -205 -426 -205q-312 0 -506 204.5t-194 505.5q0 300 192 505t508 205q100 0 185 -39t115 -39t53.5 26.5t23.5 51.5h37v-450h-37q0 80 -53.5 165 t-141 135t-182.5 50z" />
<glyph unicode="&#x216e;" horiz-adv-x="1400" d="M50 0v40h50q70 0 110 55t40 105v1000q0 50 -40 105t-110 55h-50v40h690q270 0 440 -172.5t170 -527.5q0 -353 -155 -526.5t-455 -173.5h-690zM450 1300v-1200h265q145 0 290 139t145 461q0 324 -145 462t-290 138h-265z" />
<glyph unicode="&#x13a0;" horiz-adv-x="1400" d="M50 0v40h50q70 0 110 55t40 105v1000q0 50 -40 105t-110 55h-50v40h690q270 0 440 -172.5t170 -527.5q0 -353 -155 -526.5t-455 -173.5h-690zM450 1300v-1200h265q145 0 290 139t145 461q0 324 -145 462t-290 138h-265z" />
<glyph unicode="D" horiz-adv-x="1400" d="M50 0v40h50q70 0 110 55t40 105v1000q0 50 -40 105t-110 55h-50v40h690q270 0 440 -172.5t170 -527.5q0 -353 -155 -526.5t-455 -173.5h-690zM450 1300v-1200h265q145 0 290 139t145 461q0 324 -145 462t-290 138h-265z" />
<glyph unicode="&#x13ac;" horiz-adv-x="1350" d="M250 1200q0 50 -40 105t-110 55h-50v40h1150l100 -350h-40q-110 250 -210 250h-600v-550h400q50 0 105 40t55 110v50h40v-500h-40v50q0 70 -55 110t-105 40h-400v-550h600q100 0 210 250h40l-100 -350h-1150v40h50q70 0 110 55t40 105v1000z" />
<glyph unicode="&#x415;" horiz-adv-x="1350" d="M250 1200q0 50 -40 105t-110 55h-50v40h1150l100 -350h-40q-110 250 -210 250h-600v-550h400q50 0 105 40t55 110v50h40v-500h-40v50q0 70 -55 110t-105 40h-400v-550h600q100 0 210 250h40l-100 -350h-1150v40h50q70 0 110 55t40 105v1000z" />
<glyph unicode="&#x395;" horiz-adv-x="1350" d="M250 1200q0 50 -40 105t-110 55h-50v40h1150l100 -350h-40q-110 250 -210 250h-600v-550h400q50 0 105 40t55 110v50h40v-500h-40v50q0 70 -55 110t-105 40h-400v-550h600q100 0 210 250h40l-100 -350h-1150v40h50q70 0 110 55t40 105v1000z" />
<glyph unicode="E" horiz-adv-x="1350" d="M250 1200q0 50 -40 105t-110 55h-50v40h1150l100 -350h-40q-110 250 -210 250h-600v-550h400q50 0 105 40t55 110v50h40v-500h-40v50q0 70 -55 110t-105 40h-400v-550h600q100 0 210 250h40l-100 -350h-1150v40h50q70 0 110 55t40 105v1000z" />
<glyph unicode="&#x10287;" horiz-adv-x="1350" d="M250 1200q0 50 -40 105t-110 55h-50v40h1150l100 -350h-40q-110 250 -210 250h-600v-550h400q50 0 105 40t55 110v50h40v-500h-40v50q0 70 -55 110t-105 40h-400v-450q0 -50 40 -105t110 -55h50v-40h-600v40h50q70 0 110 55t40 105v1000z" />
<glyph unicode="F" horiz-adv-x="1350" d="M250 1200q0 50 -40 105t-110 55h-50v40h1150l100 -350h-40q-110 250 -210 250h-600v-550h400q50 0 105 40t55 110v50h40v-500h-40v50q0 70 -55 110t-105 40h-400v-450q0 -50 40 -105t110 -55h50v-40h-600v40h50q70 0 110 55t40 105v1000z" />
<glyph unicode="&#x13c0;" horiz-adv-x="1428" d="M750 1410q100 0 185 -39t115 -39t53.5 26.5t23.5 51.5h37v-450h-37q0 80 -53.5 165t-141 135t-182.5 50q-237 0 -368.5 -193.5t-131.5 -416.5q0 -219 131.5 -414.5t368.5 -195.5q126 0 228 40v320q0 50 -40 105t-110 55h-50v40h600v-40h-50q-70 0 -110 -55t-40 -105v-320 q-216 -140 -428 -140q-312 0 -506 204.5t-194 505.5q0 300 192 505t508 205z" />
<glyph unicode="G" horiz-adv-x="1428" d="M750 1410q100 0 185 -39t115 -39t53.5 26.5t23.5 51.5h37v-450h-37q0 80 -53.5 165t-141 135t-182.5 50q-237 0 -368.5 -193.5t-131.5 -416.5q0 -219 131.5 -414.5t368.5 -195.5q126 0 228 40v320q0 50 -40 105t-110 55h-50v40h600v-40h-50q-70 0 -110 -55t-40 -105v-320 q-216 -140 -428 -140q-312 0 -506 204.5t-194 505.5q0 300 192 505t508 205z" />
<glyph unicode="&#x2c8e;" horiz-adv-x="1550" d="M450 650v-450q0 -50 40 -105t110 -55h50v-40h-600v40h50q70 0 110 55t40 105v1000q0 50 -40 105t-110 55h-50v40h600v-40h-50q-70 0 -110 -55t-40 -105v-450h650v450q0 50 -40 105t-110 55h-50v40h600v-40h-50q-70 0 -110 -55t-40 -105v-1000q0 -50 40 -105t110 -55h50 v-40h-600v40h50q70 0 110 55t40 105v450h-650z" />
<glyph unicode="&#x13bb;" horiz-adv-x="1550" d="M450 650v-450q0 -50 40 -105t110 -55h50v-40h-600v40h50q70 0 110 55t40 105v1000q0 50 -40 105t-110 55h-50v40h600v-40h-50q-70 0 -110 -55t-40 -105v-450h650v450q0 50 -40 105t-110 55h-50v40h600v-40h-50q-70 0 -110 -55t-40 -105v-1000q0 -50 40 -105t110 -55h50 v-40h-600v40h50q70 0 110 55t40 105v450h-650z" />
<glyph unicode="&#x41d;" horiz-adv-x="1550" d="M450 650v-450q0 -50 40 -105t110 -55h50v-40h-600v40h50q70 0 110 55t40 105v1000q0 50 -40 105t-110 55h-50v40h600v-40h-50q-70 0 -110 -55t-40 -105v-450h650v450q0 50 -40 105t-110 55h-50v40h600v-40h-50q-70 0 -110 -55t-40 -105v-1000q0 -50 40 -105t110 -55h50 v-40h-600v40h50q70 0 110 55t40 105v450h-650z" />
<glyph unicode="&#x397;" horiz-adv-x="1550" d="M450 650v-450q0 -50 40 -105t110 -55h50v-40h-600v40h50q70 0 110 55t40 105v1000q0 50 -40 105t-110 55h-50v40h600v-40h-50q-70 0 -110 -55t-40 -105v-450h650v450q0 50 -40 105t-110 55h-50v40h600v-40h-50q-70 0 -110 -55t-40 -105v-1000q0 -50 40 -105t110 -55h50 v-40h-600v40h50q70 0 110 55t40 105v450h-650z" />
<glyph unicode="H" horiz-adv-x="1550" d="M450 650v-450q0 -50 40 -105t110 -55h50v-40h-600v40h50q70 0 110 55t40 105v1000q0 50 -40 105t-110 55h-50v40h600v-40h-50q-70 0 -110 -55t-40 -105v-450h650v450q0 50 -40 105t-110 55h-50v40h600v-40h-50q-70 0 -110 -55t-40 -105v-1000q0 -50 40 -105t110 -55h50 v-40h-600v40h50q70 0 110 55t40 105v450h-650z" />
<glyph unicode="&#x10a7d;" horiz-adv-x="700" d="M650 1400v-40h-50q-70 0 -110 -55t-40 -105v-1000q0 -50 40 -105t110 -55h50v-40h-600v40h50q70 0 110 55t40 105v1000q0 50 -40 105t-110 55h-50v40h600z" />
<glyph unicode="&#x10926;" horiz-adv-x="700" d="M650 1400v-40h-50q-70 0 -110 -55t-40 -105v-1000q0 -50 40 -105t110 -55h50v-40h-600v40h50q70 0 110 55t40 105v1000q0 50 -40 105t-110 55h-50v40h600z" />
<glyph unicode="&#x10339;" horiz-adv-x="700" d="M650 1400v-40h-50q-70 0 -110 -55t-40 -105v-1000q0 -50 40 -105t110 -55h50v-40h-600v40h50q70 0 110 55t40 105v1000q0 50 -40 105t-110 55h-50v40h600z" />
<glyph unicode="&#x10320;" horiz-adv-x="700" d="M650 1400v-40h-50q-70 0 -110 -55t-40 -105v-1000q0 -50 40 -105t110 -55h50v-40h-600v40h50q70 0 110 55t40 105v1000q0 50 -40 105t-110 55h-50v40h600z" />
<glyph unicode="&#x10309;" horiz-adv-x="700" d="M650 1400v-40h-50q-70 0 -110 -55t-40 -105v-1000q0 -50 40 -105t110 -55h50v-40h-600v40h50q70 0 110 55t40 105v1000q0 50 -40 105t-110 55h-50v40h600z" />
<glyph unicode="&#x1028a;" horiz-adv-x="700" d="M650 1400v-40h-50q-70 0 -110 -55t-40 -105v-1000q0 -50 40 -105t110 -55h50v-40h-600v40h50q70 0 110 55t40 105v1000q0 50 -40 105t-110 55h-50v40h600z" />
<glyph unicode="&#x2d4f;" horiz-adv-x="700" d="M650 1400v-40h-50q-70 0 -110 -55t-40 -105v-1000q0 -50 40 -105t110 -55h50v-40h-600v40h50q70 0 110 55t40 105v1000q0 50 -40 105t-110 55h-50v40h600z" />
<glyph unicode="&#x2c92;" horiz-adv-x="700" d="M650 1400v-40h-50q-70 0 -110 -55t-40 -105v-1000q0 -50 40 -105t110 -55h50v-40h-600v40h50q70 0 110 55t40 105v1000q0 50 -40 105t-110 55h-50v40h600z" />
<glyph unicode="&#x16c1;" horiz-adv-x="700" d="M650 1400v-40h-50q-70 0 -110 -55t-40 -105v-1000q0 -50 40 -105t110 -55h50v-40h-600v40h50q70 0 110 55t40 105v1000q0 50 -40 105t-110 55h-50v40h600z" />
<glyph unicode="&#x4c0;" horiz-adv-x="700" d="M650 1400v-40h-50q-70 0 -110 -55t-40 -105v-1000q0 -50 40 -105t110 -55h50v-40h-600v40h50q70 0 110 55t40 105v1000q0 50 -40 105t-110 55h-50v40h600z" />
<glyph unicode="&#x406;" horiz-adv-x="700" d="M650 1400v-40h-50q-70 0 -110 -55t-40 -105v-1000q0 -50 40 -105t110 -55h50v-40h-600v40h50q70 0 110 55t40 105v1000q0 50 -40 105t-110 55h-50v40h600z" />
<glyph unicode="&#x399;" horiz-adv-x="700" d="M650 1400v-40h-50q-70 0 -110 -55t-40 -105v-1000q0 -50 40 -105t110 -55h50v-40h-600v40h50q70 0 110 55t40 105v1000q0 50 -40 105t-110 55h-50v40h600z" />
<glyph unicode="I" horiz-adv-x="700" d="M650 1400v-40h-50q-70 0 -110 -55t-40 -105v-1000q0 -50 40 -105t110 -55h50v-40h-600v40h50q70 0 110 55t40 105v1000q0 50 -40 105t-110 55h-50v40h600z" />
<glyph unicode="&#x13ab;" horiz-adv-x="906" d="M656 490q0 -167 -24 -265.5t-94.5 -166.5t-178.5 -68q-109 0 -184.5 38t-119.5 146q-5 18 -5 34q0 76 56 86q10 1 19 1q41 0 65 -35q27 -41 27 -72v-3q-1 -2 -1 -3q0 -32 41 -78q42 -49 102 -49q59 0 78 54t19 111v980q0 50 -40 105t-110 55h-50v40h600v-40h-50 q-70 0 -110 -55t-40 -105v-710z" />
<glyph unicode="&#x408;" horiz-adv-x="906" d="M656 490q0 -167 -24 -265.5t-94.5 -166.5t-178.5 -68q-109 0 -184.5 38t-119.5 146q-5 18 -5 34q0 76 56 86q10 1 19 1q41 0 65 -35q27 -41 27 -72v-3q-1 -2 -1 -3q0 -32 41 -78q42 -49 102 -49q59 0 78 54t19 111v980q0 50 -40 105t-110 55h-50v40h600v-40h-50 q-70 0 -110 -55t-40 -105v-710z" />
<glyph unicode="J" horiz-adv-x="906" d="M656 490q0 -167 -24 -265.5t-94.5 -166.5t-178.5 -68q-109 0 -184.5 38t-119.5 146q-5 18 -5 34q0 76 56 86q10 1 19 1q41 0 65 -35q27 -41 27 -72v-3q-1 -2 -1 -3q0 -32 41 -78q42 -49 102 -49q59 0 78 54t19 111v980q0 50 -40 105t-110 55h-50v40h600v-40h-50 q-70 0 -110 -55t-40 -105v-710z" />
<glyph unicode="&#x212a;" horiz-adv-x="1575" d="M967 1208q40 46 58 97q4 12 4 22q0 33 -54 33h-50v40h500v-40h-50q-70 0 -150 -55q-48 -33 -85 -65l-490 -490l550 -550q55 -50 130 -105t145 -55h50v-40h-600v40h50q45 0 45 22q0 13 -15 33q-35 48 -75 92l-421 422l-59 -59v-350q0 -50 40 -105t110 -55h50v-40h-600v40 h50q70 0 110 55t40 105v1000q0 50 -40 105t-110 55h-50v40h600v-40h-50q-70 0 -110 -55t-40 -105v-509z" />
<glyph unicode="&#x16d5;" horiz-adv-x="1575" d="M967 1208q40 46 58 97q4 12 4 22q0 33 -54 33h-50v40h500v-40h-50q-70 0 -150 -55q-48 -33 -85 -65l-490 -490l550 -550q55 -50 130 -105t145 -55h50v-40h-600v40h50q45 0 45 22q0 13 -15 33q-35 48 -75 92l-421 422l-59 -59v-350q0 -50 40 -105t110 -55h50v-40h-600v40 h50q70 0 110 55t40 105v1000q0 50 -40 105t-110 55h-50v40h600v-40h-50q-70 0 -110 -55t-40 -105v-509z" />
<glyph unicode="&#x13e6;" horiz-adv-x="1575" d="M967 1208q40 46 58 97q4 12 4 22q0 33 -54 33h-50v40h500v-40h-50q-70 0 -150 -55q-48 -33 -85 -65l-490 -490l550 -550q55 -50 130 -105t145 -55h50v-40h-600v40h50q45 0 45 22q0 13 -15 33q-35 48 -75 92l-421 422l-59 -59v-350q0 -50 40 -105t110 -55h50v-40h-600v40 h50q70 0 110 55t40 105v1000q0 50 -40 105t-110 55h-50v40h600v-40h-50q-70 0 -110 -55t-40 -105v-509z" />
<glyph unicode="&#x39a;" horiz-adv-x="1575" d="M967 1208q40 46 58 97q4 12 4 22q0 33 -54 33h-50v40h500v-40h-50q-70 0 -150 -55q-48 -33 -85 -65l-490 -490l550 -550q55 -50 130 -105t145 -55h50v-40h-600v40h50q45 0 45 22q0 13 -15 33q-35 48 -75 92l-421 422l-59 -59v-350q0 -50 40 -105t110 -55h50v-40h-600v40 h50q70 0 110 55t40 105v1000q0 50 -40 105t-110 55h-50v40h600v-40h-50q-70 0 -110 -55t-40 -105v-509z" />
<glyph unicode="K" horiz-adv-x="1575" d="M967 1208q40 46 58 97q4 12 4 22q0 33 -54 33h-50v40h500v-40h-50q-70 0 -150 -55q-48 -33 -85 -65l-490 -490l550 -550q55 -50 130 -105t145 -55h50v-40h-600v40h50q45 0 45 22q0 13 -15 33q-35 48 -75 92l-421 422l-59 -59v-350q0 -50 40 -105t110 -55h50v-40h-600v40 h50q70 0 110 55t40 105v1000q0 50 -40 105t-110 55h-50v40h600v-40h-50q-70 0 -110 -55t-40 -105v-509z" />
<glyph unicode="&#x2cd0;" horiz-adv-x="1350" d="M650 1400v-40h-50q-70 0 -110 -55t-40 -105v-1100h600q100 0 210 250h40l-100 -350h-1150v40h50q70 0 110 55t40 105v1000q0 50 -40 105t-110 55h-50v40h600z" />
<glyph unicode="&#x216c;" horiz-adv-x="1350" d="M650 1400v-40h-50q-70 0 -110 -55t-40 -105v-1100h600q100 0 210 250h40l-100 -350h-1150v40h50q70 0 110 55t40 105v1000q0 50 -40 105t-110 55h-50v40h600z" />
<glyph unicode="&#x13de;" horiz-adv-x="1350" d="M650 1400v-40h-50q-70 0 -110 -55t-40 -105v-1100h600q100 0 210 250h40l-100 -350h-1150v40h50q70 0 110 55t40 105v1000q0 50 -40 105t-110 55h-50v40h600z" />
<glyph unicode="L" horiz-adv-x="1350" d="M650 1400v-40h-50q-70 0 -110 -55t-40 -105v-1100h600q100 0 210 250h40l-100 -350h-1150v40h50q70 0 110 55t40 105v1000q0 50 -40 105t-110 55h-50v40h600z" />
<glyph unicode="&#x2c98;" horiz-adv-x="1930" d="M400 1035v-835q0 -50 40 -105t110 -55h50v-40h-500v40h50q70 0 110 55t40 105v1039q-25 32 -65 66q-65 55 -135 55h-50v40h400l543 -1164l542 1164h345v-40h-50q-70 0 -110 -55t-40 -105v-1000q0 -50 40 -105t110 -55h50v-40h-600v40h50q70 0 110 55t40 105v843 l-486 -1043h-111z" />
<glyph unicode="&#x216f;" horiz-adv-x="1930" d="M400 1035v-835q0 -50 40 -105t110 -55h50v-40h-500v40h50q70 0 110 55t40 105v1039q-25 32 -65 66q-65 55 -135 55h-50v40h400l543 -1164l542 1164h345v-40h-50q-70 0 -110 -55t-40 -105v-1000q0 -50 40 -105t110 -55h50v-40h-600v40h50q70 0 110 55t40 105v843 l-486 -1043h-111z" />
<glyph unicode="&#x13b7;" horiz-adv-x="1930" d="M400 1035v-835q0 -50 40 -105t110 -55h50v-40h-500v40h50q70 0 110 55t40 105v1039q-25 32 -65 66q-65 55 -135 55h-50v40h400l543 -1164l542 1164h345v-40h-50q-70 0 -110 -55t-40 -105v-1000q0 -50 40 -105t110 -55h50v-40h-600v40h50q70 0 110 55t40 105v843 l-486 -1043h-111z" />
<glyph unicode="&#x41c;" horiz-adv-x="1930" d="M400 1035v-835q0 -50 40 -105t110 -55h50v-40h-500v40h50q70 0 110 55t40 105v1039q-25 32 -65 66q-65 55 -135 55h-50v40h400l543 -1164l542 1164h345v-40h-50q-70 0 -110 -55t-40 -105v-1000q0 -50 40 -105t110 -55h50v-40h-600v40h50q70 0 110 55t40 105v843 l-486 -1043h-111z" />
<glyph unicode="&#x39c;" horiz-adv-x="1930" d="M400 1035v-835q0 -50 40 -105t110 -55h50v-40h-500v40h50q70 0 110 55t40 105v1039q-25 32 -65 66q-65 55 -135 55h-50v40h400l543 -1164l542 1164h345v-40h-50q-70 0 -110 -55t-40 -105v-1000q0 -50 40 -105t110 -55h50v-40h-600v40h50q70 0 110 55t40 105v843 l-486 -1043h-111z" />
<glyph unicode="M" horiz-adv-x="1930" d="M400 1035v-835q0 -50 40 -105t110 -55h50v-40h-500v40h50q70 0 110 55t40 105v1039q-25 32 -65 66q-65 55 -135 55h-50v40h400l543 -1164l542 1164h345v-40h-50q-70 0 -110 -55t-40 -105v-1000q0 -50 40 -105t110 -55h50v-40h-600v40h50q70 0 110 55t40 105v843 l-486 -1043h-111z" />
<glyph unicode="&#x2c9a;" horiz-adv-x="1677" d="M412 200q0 -50 40 -105t110 -55h50v-40h-500v40h50q70 0 110 55t40 105v1007l-92 100q-50 53 -120 53h-50v40h362l915 -1091v891q0 50 -40 105t-110 55h-50v40h500v-40h-50q-70 0 -110 -55t-40 -105v-1200h-102l-913 1088v-888z" />
<glyph unicode="&#x39d;" horiz-adv-x="1677" d="M412 200q0 -50 40 -105t110 -55h50v-40h-500v40h50q70 0 110 55t40 105v1007l-92 100q-50 53 -120 53h-50v40h362l915 -1091v891q0 50 -40 105t-110 55h-50v40h500v-40h-50q-70 0 -110 -55t-40 -105v-1200h-102l-913 1088v-888z" />
<glyph unicode="N" horiz-adv-x="1677" d="M412 200q0 -50 40 -105t110 -55h50v-40h-500v40h50q70 0 110 55t40 105v1007l-92 100q-50 53 -120 53h-50v40h362l915 -1091v891q0 50 -40 105t-110 55h-50v40h500v-40h-50q-70 0 -110 -55t-40 -105v-1200h-102l-913 1088v-888z" />
<glyph unicode="&#x1030f;" horiz-adv-x="1400" d="M700 1410q293 0 471.5 -205t178.5 -505q0 -301 -180 -505.5t-470 -204.5t-470 204.5t-180 505.5q0 300 178.5 505t471.5 205zM700 1310q-213 0 -331.5 -193.5t-118.5 -416.5q0 -219 118.5 -414.5t331.5 -195.5q210 0 330 195.5t120 414.5q0 223 -120 416.5t-330 193.5z " />
<glyph unicode="&#x102ab;" horiz-adv-x="1400" d="M700 1410q293 0 471.5 -205t178.5 -505q0 -301 -180 -505.5t-470 -204.5t-470 204.5t-180 505.5q0 300 178.5 505t471.5 205zM700 1310q-213 0 -331.5 -193.5t-118.5 -416.5q0 -219 118.5 -414.5t331.5 -195.5q210 0 330 195.5t120 414.5q0 223 -120 416.5t-330 193.5z " />
<glyph unicode="&#x10292;" horiz-adv-x="1400" d="M700 1410q293 0 471.5 -205t178.5 -505q0 -301 -180 -505.5t-470 -204.5t-470 204.5t-180 505.5q0 300 178.5 505t471.5 205zM700 1310q-213 0 -331.5 -193.5t-118.5 -416.5q0 -219 118.5 -414.5t331.5 -195.5q210 0 330 195.5t120 414.5q0 223 -120 416.5t-330 193.5z " />
<glyph unicode="&#x2d54;" horiz-adv-x="1400" d="M700 1410q293 0 471.5 -205t178.5 -505q0 -301 -180 -505.5t-470 -204.5t-470 204.5t-180 505.5q0 300 178.5 505t471.5 205zM700 1310q-213 0 -331.5 -193.5t-118.5 -416.5q0 -219 118.5 -414.5t331.5 -195.5q210 0 330 195.5t120 414.5q0 223 -120 416.5t-330 193.5z " />
<glyph unicode="&#x2c9e;" horiz-adv-x="1400" d="M700 1410q293 0 471.5 -205t178.5 -505q0 -301 -180 -505.5t-470 -204.5t-470 204.5t-180 505.5q0 300 178.5 505t471.5 205zM700 1310q-213 0 -331.5 -193.5t-118.5 -416.5q0 -219 118.5 -414.5t331.5 -195.5q210 0 330 195.5t120 414.5q0 223 -120 416.5t-330 193.5z " />
<glyph unicode="&#x555;" horiz-adv-x="1400" d="M700 1410q293 0 471.5 -205t178.5 -505q0 -301 -180 -505.5t-470 -204.5t-470 204.5t-180 505.5q0 300 178.5 505t471.5 205zM700 1310q-213 0 -331.5 -193.5t-118.5 -416.5q0 -219 118.5 -414.5t331.5 -195.5q210 0 330 195.5t120 414.5q0 223 -120 416.5t-330 193.5z " />
<glyph unicode="&#x41e;" horiz-adv-x="1400" d="M700 1410q293 0 471.5 -205t178.5 -505q0 -301 -180 -505.5t-470 -204.5t-470 204.5t-180 505.5q0 300 178.5 505t471.5 205zM700 1310q-213 0 -331.5 -193.5t-118.5 -416.5q0 -219 118.5 -414.5t331.5 -195.5q210 0 330 195.5t120 414.5q0 223 -120 416.5t-330 193.5z " />
<glyph unicode="&#x39f;" horiz-adv-x="1400" d="M700 1410q293 0 471.5 -205t178.5 -505q0 -301 -180 -505.5t-470 -204.5t-470 204.5t-180 505.5q0 300 178.5 505t471.5 205zM700 1310q-213 0 -331.5 -193.5t-118.5 -416.5q0 -219 118.5 -414.5t331.5 -195.5q210 0 330 195.5t120 414.5q0 223 -120 416.5t-330 193.5z " />
<glyph unicode="O" horiz-adv-x="1400" d="M700 1410q293 0 471.5 -205t178.5 -505q0 -301 -180 -505.5t-470 -204.5t-470 204.5t-180 505.5q0 300 178.5 505t471.5 205zM700 1310q-213 0 -331.5 -193.5t-118.5 -416.5q0 -219 118.5 -414.5t331.5 -195.5q210 0 330 195.5t120 414.5q0 223 -120 416.5t-330 193.5z " />
<glyph unicode="&#x2ca2;" horiz-adv-x="1300" d="M720 1400q250 0 390 -92.5t140 -282.5t-125 -282.5t-405 -92.5h-270v-450q0 -50 40 -105t110 -55h50v-40h-600v40h50q70 0 110 55t40 105v1000q0 50 -40 105t-110 55h-50v40h670zM450 1270v-490q120 -30 245 -30t240 62.5t115 212.5t-115 212.5t-240 62.5t-245 -30z" />
<glyph unicode="&#x13e2;" horiz-adv-x="1300" d="M720 1400q250 0 390 -92.5t140 -282.5t-125 -282.5t-405 -92.5h-270v-450q0 -50 40 -105t110 -55h50v-40h-600v40h50q70 0 110 55t40 105v1000q0 50 -40 105t-110 55h-50v40h670zM450 1270v-490q120 -30 245 -30t240 62.5t115 212.5t-115 212.5t-240 62.5t-245 -30z" />
<glyph unicode="&#x420;" horiz-adv-x="1300" d="M720 1400q250 0 390 -92.5t140 -282.5t-125 -282.5t-405 -92.5h-270v-450q0 -50 40 -105t110 -55h50v-40h-600v40h50q70 0 110 55t40 105v1000q0 50 -40 105t-110 55h-50v40h670zM450 1270v-490q120 -30 245 -30t240 62.5t115 212.5t-115 212.5t-240 62.5t-245 -30z" />
<glyph unicode="&#x3a1;" horiz-adv-x="1300" d="M720 1400q250 0 390 -92.5t140 -282.5t-125 -282.5t-405 -92.5h-270v-450q0 -50 40 -105t110 -55h50v-40h-600v40h50q70 0 110 55t40 105v1000q0 50 -40 105t-110 55h-50v40h670zM450 1270v-490q120 -30 245 -30t240 62.5t115 212.5t-115 212.5t-240 62.5t-245 -30z" />
<glyph unicode="P" horiz-adv-x="1300" d="M720 1400q250 0 390 -92.5t140 -282.5t-125 -282.5t-405 -92.5h-270v-450q0 -50 40 -105t110 -55h50v-40h-600v40h50q70 0 110 55t40 105v1000q0 50 -40 105t-110 55h-50v40h670zM450 1270v-490q120 -30 245 -30t240 62.5t115 212.5t-115 212.5t-240 62.5t-245 -30z" />
<glyph unicode="&#x51a;" horiz-adv-x="1400" d="M996 236q18 23 34 50q120 195 120 414q0 223 -120 416.5t-330 193.5q-213 0 -331.5 -193.5t-118.5 -416.5q0 -219 118.5 -414.5t331.5 -195.5q123 0 215 67q-77 97 -112 117q-45 26 -96 34q-15 2 -29 2q-35 0 -63 -13q-41 -19 -60 -52l-55 31q35 60 96 98q58 36 127 36h5 q72 -2 132 -37q49 -28 136 -137zM994 56q-130 -66 -294 -66q-290 0 -470 204.5t-180 505.5q0 300 178.5 505t471.5 205t471.5 -205t178.5 -505q0 -301 -180 -505q-38 -44 -82 -78q72 -91 106 -110q45 -26 97 -33q14 -1 27 -1q35 0 65 12q40 18 60 52l55 -32q-34 -60 -95 -97 q-60 -35 -128 -35h-6q-72 1 -132 35q-51 31 -143 148z" />
<glyph unicode="Q" horiz-adv-x="1400" d="M996 236q18 23 34 50q120 195 120 414q0 223 -120 416.5t-330 193.5q-213 0 -331.5 -193.5t-118.5 -416.5q0 -219 118.5 -414.5t331.5 -195.5q123 0 215 67q-77 97 -112 117q-45 26 -96 34q-15 2 -29 2q-35 0 -63 -13q-41 -19 -60 -52l-55 31q35 60 96 98q58 36 127 36h5 q72 -2 132 -37q49 -28 136 -137zM994 56q-130 -66 -294 -66q-290 0 -470 204.5t-180 505.5q0 300 178.5 505t471.5 205t471.5 -205t178.5 -505q0 -301 -180 -505q-38 -44 -82 -78q72 -91 106 -110q45 -26 97 -33q14 -1 27 -1q35 0 65 12q40 18 60 52l55 -32q-34 -60 -95 -97 q-60 -35 -128 -35h-6q-72 1 -132 35q-51 31 -143 148z" />
<glyph unicode="R" horiz-adv-x="1538" d="M450 1270v-490q120 -30 245 -30t240 62.5t115 212.5t-115 212.5t-240 62.5t-245 -30zM733 650h-283v-450q0 -50 40 -105t110 -55h50v-40h-600v40h50q70 0 110 55t40 105v1000q0 50 -40 105t-110 55h-50v40h670q250 0 390 -92.5t140 -282.5t-125 -282q-66 -49 -174 -72 l278 -482q29 -45 81 -94q58 -55 128 -55h50v-40h-600v40h50q70 0 75 55q1 9 1 18q0 43 -20 83z" />
<glyph unicode="&#x10296;" horiz-adv-x="1001" d="M861 1410v-463h-37q-18 133 -64.5 212t-132.5 115t-178 36q-104 0 -172 -52t-68 -142q0 -62 43 -112q52 -74 275 -197q190 -101 269.5 -155t117 -127t37.5 -153q0 -162 -119.5 -272t-307.5 -110q-59 0 -111 9q-31 5 -128.5 36t-123.5 31q-25 0 -39.5 -15t-21.5 -61h-37 v459h37q26 -144 70 -215.5t134.5 -107.5t198.5 -36q125 0 197.5 53.5t72.5 152.5q0 50 -27.5 100t-85.5 94q-39 29 -213 125.5t-247.5 153.5t-111.5 126.5t-38 152.5q0 154 112 258t285 104q108 0 229 -52q56 -25 79 -25q26 0 42.5 15.5t26.5 61.5h37z" />
<glyph unicode="&#x13da;" horiz-adv-x="1001" d="M861 1410v-463h-37q-18 133 -64.5 212t-132.5 115t-178 36q-104 0 -172 -52t-68 -142q0 -62 43 -112q52 -74 275 -197q190 -101 269.5 -155t117 -127t37.5 -153q0 -162 -119.5 -272t-307.5 -110q-59 0 -111 9q-31 5 -128.5 36t-123.5 31q-25 0 -39.5 -15t-21.5 -61h-37 v459h37q26 -144 70 -215.5t134.5 -107.5t198.5 -36q125 0 197.5 53.5t72.5 152.5q0 50 -27.5 100t-85.5 94q-39 29 -213 125.5t-247.5 153.5t-111.5 126.5t-38 152.5q0 154 112 258t285 104q108 0 229 -52q56 -25 79 -25q26 0 42.5 15.5t26.5 61.5h37z" />
<glyph unicode="&#x10bd;" horiz-adv-x="1001" d="M861 1410v-463h-37q-18 133 -64.5 212t-132.5 115t-178 36q-104 0 -172 -52t-68 -142q0 -62 43 -112q52 -74 275 -197q190 -101 269.5 -155t117 -127t37.5 -153q0 -162 -119.5 -272t-307.5 -110q-59 0 -111 9q-31 5 -128.5 36t-123.5 31q-25 0 -39.5 -15t-21.5 -61h-37 v459h37q26 -144 70 -215.5t134.5 -107.5t198.5 -36q125 0 197.5 53.5t72.5 152.5q0 50 -27.5 100t-85.5 94q-39 29 -213 125.5t-247.5 153.5t-111.5 126.5t-38 152.5q0 154 112 258t285 104q108 0 229 -52q56 -25 79 -25q26 0 42.5 15.5t26.5 61.5h37z" />
<glyph unicode="&#x54f;" horiz-adv-x="1001" d="M861 1410v-463h-37q-18 133 -64.5 212t-132.5 115t-178 36q-104 0 -172 -52t-68 -142q0 -62 43 -112q52 -74 275 -197q190 -101 269.5 -155t117 -127t37.5 -153q0 -162 -119.5 -272t-307.5 -110q-59 0 -111 9q-31 5 -128.5 36t-123.5 31q-25 0 -39.5 -15t-21.5 -61h-37 v459h37q26 -144 70 -215.5t134.5 -107.5t198.5 -36q125 0 197.5 53.5t72.5 152.5q0 50 -27.5 100t-85.5 94q-39 29 -213 125.5t-247.5 153.5t-111.5 126.5t-38 152.5q0 154 112 258t285 104q108 0 229 -52q56 -25 79 -25q26 0 42.5 15.5t26.5 61.5h37z" />
<glyph unicode="&#x405;" horiz-adv-x="1001" d="M861 1410v-463h-37q-18 133 -64.5 212t-132.5 115t-178 36q-104 0 -172 -52t-68 -142q0 -62 43 -112q52 -74 275 -197q190 -101 269.5 -155t117 -127t37.5 -153q0 -162 -119.5 -272t-307.5 -110q-59 0 -111 9q-31 5 -128.5 36t-123.5 31q-25 0 -39.5 -15t-21.5 -61h-37 v459h37q26 -144 70 -215.5t134.5 -107.5t198.5 -36q125 0 197.5 53.5t72.5 152.5q0 50 -27.5 100t-85.5 94q-39 29 -213 125.5t-247.5 153.5t-111.5 126.5t-38 152.5q0 154 112 258t285 104q108 0 229 -52q56 -25 79 -25q26 0 42.5 15.5t26.5 61.5h37z" />
<glyph unicode="S" horiz-adv-x="1001" d="M861 1410v-463h-37q-18 133 -64.5 212t-132.5 115t-178 36q-104 0 -172 -52t-68 -142q0 -62 43 -112q52 -74 275 -197q190 -101 269.5 -155t117 -127t37.5 -153q0 -162 -119.5 -272t-307.5 -110q-59 0 -111 9q-31 5 -128.5 36t-123.5 31q-25 0 -39.5 -15t-21.5 -61h-37 v459h37q26 -144 70 -215.5t134.5 -107.5t198.5 -36q125 0 197.5 53.5t72.5 152.5q0 50 -27.5 100t-85.5 94q-39 29 -213 125.5t-247.5 153.5t-111.5 126.5t-38 152.5q0 154 112 258t285 104q108 0 229 -52q56 -25 79 -25q26 0 42.5 15.5t26.5 61.5h37z" />
<glyph unicode="&#x10344;" horiz-adv-x="1400" d="M800 200q0 -50 40 -105t110 -55h50v-40h-600v40h50q70 0 110 55t40 105v1100h-300q-100 0 -210 -250h-40l100 350h1100l100 -350h-40q-110 250 -210 250h-300v-1100z" />
<glyph unicode="&#x10315;" horiz-adv-x="1400" d="M800 200q0 -50 40 -105t110 -55h50v-40h-600v40h50q70 0 110 55t40 105v1100h-300q-100 0 -210 -250h-40l100 350h1100l100 -350h-40q-110 250 -210 250h-300v-1100z" />
<glyph unicode="&#x102b1;" horiz-adv-x="1400" d="M800 200q0 -50 40 -105t110 -55h50v-40h-600v40h50q70 0 110 55t40 105v1100h-300q-100 0 -210 -250h-40l100 350h1100l100 -350h-40q-110 250 -210 250h-300v-1100z" />
<glyph unicode="&#x10297;" horiz-adv-x="1400" d="M800 200q0 -50 40 -105t110 -55h50v-40h-600v40h50q70 0 110 55t40 105v1100h-300q-100 0 -210 -250h-40l100 350h1100l100 -350h-40q-110 250 -210 250h-300v-1100z" />
<glyph unicode="&#x2ca6;" horiz-adv-x="1400" d="M800 200q0 -50 40 -105t110 -55h50v-40h-600v40h50q70 0 110 55t40 105v1100h-300q-100 0 -210 -250h-40l100 350h1100l100 -350h-40q-110 250 -210 250h-300v-1100z" />
<glyph unicode="&#x13a2;" horiz-adv-x="1400" d="M800 200q0 -50 40 -105t110 -55h50v-40h-600v40h50q70 0 110 55t40 105v1100h-300q-100 0 -210 -250h-40l100 350h1100l100 -350h-40q-110 250 -210 250h-300v-1100z" />
<glyph unicode="&#x422;" horiz-adv-x="1400" d="M800 200q0 -50 40 -105t110 -55h50v-40h-600v40h50q70 0 110 55t40 105v1100h-300q-100 0 -210 -250h-40l100 350h1100l100 -350h-40q-110 250 -210 250h-300v-1100z" />
<glyph unicode="&#x3a4;" horiz-adv-x="1400" d="M800 200q0 -50 40 -105t110 -55h50v-40h-600v40h50q70 0 110 55t40 105v1100h-300q-100 0 -210 -250h-40l100 350h1100l100 -350h-40q-110 250 -210 250h-300v-1100z" />
<glyph unicode="T" horiz-adv-x="1400" d="M800 200q0 -50 40 -105t110 -55h50v-40h-600v40h50q70 0 110 55t40 105v1100h-300q-100 0 -210 -250h-40l100 350h1100l100 -350h-40q-110 250 -210 250h-300v-1100z" />
<glyph unicode="&#x54d;" horiz-adv-x="1600" d="M1550 1400v-40h-50q-70 0 -110 -55t-40 -105v-710q0 -200 -150 -350t-350 -150q-300 0 -450 165t-150 385v660q0 50 -40 105t-110 55h-50v40h600v-40h-50q-70 0 -110 -55t-40 -105v-610q0 -220 100 -360t300 -140q150 0 275 125t125 325v660q0 50 -40 105t-110 55h-50v40 h500z" />
<glyph unicode="U" horiz-adv-x="1600" d="M1550 1400v-40h-50q-70 0 -110 -55t-40 -105v-710q0 -200 -150 -350t-350 -150q-300 0 -450 165t-150 385v660q0 50 -40 105t-110 55h-50v40h600v-40h-50q-70 0 -110 -55t-40 -105v-610q0 -220 100 -360t300 -140q150 0 275 125t125 325v660q0 50 -40 105t-110 55h-50v40 h500z" />
<glyph unicode="&#x10c1f;" horiz-adv-x="1579" d="M600 1400v-40h-50q-70 0 -86 -55q-7 -25 -7 -50q0 -23 6 -45l381 -943l381 942q5 18 5 37q0 29 -11 59q-20 55 -90 55h-50v40h500v-40h-50q-70 0 -125 -55q-51 -51 -72 -98l-488 -1207h-108l-487 1205q-22 48 -74 100q-55 55 -125 55h-50v40h600z" />
<glyph unicode="&#x2d38;" horiz-adv-x="1579" d="M600 1400v-40h-50q-70 0 -86 -55q-7 -25 -7 -50q0 -23 6 -45l381 -943l381 942q5 18 5 37q0 29 -11 59q-20 55 -90 55h-50v40h500v-40h-50q-70 0 -125 -55q-51 -51 -72 -98l-488 -1207h-108l-487 1205q-22 48 -74 100q-55 55 -125 55h-50v40h600z" />
<glyph unicode="&#x13d9;" horiz-adv-x="1579" d="M600 1400v-40h-50q-70 0 -86 -55q-7 -25 -7 -50q0 -23 6 -45l381 -943l381 942q5 18 5 37q0 29 -11 59q-20 55 -90 55h-50v40h500v-40h-50q-70 0 -125 -55q-51 -51 -72 -98l-488 -1207h-108l-487 1205q-22 48 -74 100q-55 55 -125 55h-50v40h600z" />
<glyph unicode="V" horiz-adv-x="1579" d="M600 1400v-40h-50q-70 0 -86 -55q-7 -25 -7 -50q0 -23 6 -45l381 -943l381 942q5 18 5 37q0 29 -11 59q-20 55 -90 55h-50v40h500v-40h-50q-70 0 -125 -55q-51 -51 -72 -98l-488 -1207h-108l-487 1205q-22 48 -74 100q-55 55 -125 55h-50v40h600z" />
<glyph unicode="&#x13b3;" horiz-adv-x="2279" d="M1140 733l-296 -733h-108l-487 1205q-22 48 -74 100q-55 55 -125 55h-50v40h600v-40h-50q-70 0 -86 -55q-7 -25 -7 -50q0 -23 6 -45l381 -943l242 598l-137 340q-22 48 -74 100q-55 55 -125 55h-50v40h600v-40h-50q-70 0 -86 -55q-7 -25 -7 -50q0 -23 6 -45l381 -943 l381 942q5 18 5 37q0 29 -11 59q-20 55 -90 55h-50v40h500v-40h-50q-70 0 -125 -55q-51 -51 -72 -98l-488 -1207h-108z" />
<glyph unicode="&#x51c;" horiz-adv-x="2279" d="M1140 733l-296 -733h-108l-487 1205q-22 48 -74 100q-55 55 -125 55h-50v40h600v-40h-50q-70 0 -86 -55q-7 -25 -7 -50q0 -23 6 -45l381 -943l242 598l-137 340q-22 48 -74 100q-55 55 -125 55h-50v40h600v-40h-50q-70 0 -86 -55q-7 -25 -7 -50q0 -23 6 -45l381 -943 l381 942q5 18 5 37q0 29 -11 59q-20 55 -90 55h-50v40h500v-40h-50q-70 0 -125 -55q-51 -51 -72 -98l-488 -1207h-108z" />
<glyph unicode="W" horiz-adv-x="2279" d="M1140 733l-296 -733h-108l-487 1205q-22 48 -74 100q-55 55 -125 55h-50v40h600v-40h-50q-70 0 -86 -55q-7 -25 -7 -50q0 -23 6 -45l381 -943l242 598l-137 340q-22 48 -74 100q-55 55 -125 55h-50v40h600v-40h-50q-70 0 -86 -55q-7 -25 -7 -50q0 -23 6 -45l381 -943 l381 942q5 18 5 37q0 29 -11 59q-20 55 -90 55h-50v40h500v-40h-50q-70 0 -125 -55q-51 -51 -72 -98l-488 -1207h-108z" />
<glyph unicode="&#x10a69;" horiz-adv-x="1502" d="M682 1400v-40h-50q-70 0 -75 -55q-1 -9 -1 -18q0 -43 19 -82l212 -368l260 372q25 46 25 96q0 55 -70 55h-50v40h500v-40h-50q-70 0 -139 -55q-57 -45 -88 -87l-13 -18l-320 -458l319 -553q29 -45 81 -94q58 -55 128 -55h50v-40h-600v40h50q70 0 75 55q1 9 1 18 q0 43 -20 83l-211 366l-253 -362q-32 -50 -32 -105t70 -55h50v-40h-500v40h50q70 0 135 55q61 51 101 99l324 463l-315 548q-36 48 -88 100q-55 55 -125 55h-50v40h600z" />
<glyph unicode="&#x10347;" horiz-adv-x="1502" d="M682 1400v-40h-50q-70 0 -75 -55q-1 -9 -1 -18q0 -43 19 -82l212 -368l260 372q25 46 25 96q0 55 -70 55h-50v40h500v-40h-50q-70 0 -139 -55q-57 -45 -88 -87l-13 -18l-320 -458l319 -553q29 -45 81 -94q58 -55 128 -55h50v-40h-600v40h50q70 0 75 55q1 9 1 18 q0 43 -20 83l-211 366l-253 -362q-32 -50 -32 -105t70 -55h50v-40h-500v40h50q70 0 135 55q61 51 101 99l324 463l-315 548q-36 48 -88 100q-55 55 -125 55h-50v40h600z" />
<glyph unicode="&#x10322;" horiz-adv-x="1502" d="M682 1400v-40h-50q-70 0 -75 -55q-1 -9 -1 -18q0 -43 19 -82l212 -368l260 372q25 46 25 96q0 55 -70 55h-50v40h500v-40h-50q-70 0 -139 -55q-57 -45 -88 -87l-13 -18l-320 -458l319 -553q29 -45 81 -94q58 -55 128 -55h50v-40h-600v40h50q70 0 75 55q1 9 1 18 q0 43 -20 83l-211 366l-253 -362q-32 -50 -32 -105t70 -55h50v-40h-500v40h50q70 0 135 55q61 51 101 99l324 463l-315 548q-36 48 -88 100q-55 55 -125 55h-50v40h600z" />
<glyph unicode="&#x10317;" horiz-adv-x="1502" d="M682 1400v-40h-50q-70 0 -75 -55q-1 -9 -1 -18q0 -43 19 -82l212 -368l260 372q25 46 25 96q0 55 -70 55h-50v40h500v-40h-50q-70 0 -139 -55q-57 -45 -88 -87l-13 -18l-320 -458l319 -553q29 -45 81 -94q58 -55 128 -55h50v-40h-600v40h50q70 0 75 55q1 9 1 18 q0 43 -20 83l-211 366l-253 -362q-32 -50 -32 -105t70 -55h50v-40h-500v40h50q70 0 135 55q61 51 101 99l324 463l-315 548q-36 48 -88 100q-55 55 -125 55h-50v40h600z" />
<glyph unicode="&#x102b4;" horiz-adv-x="1502" d="M682 1400v-40h-50q-70 0 -75 -55q-1 -9 -1 -18q0 -43 19 -82l212 -368l260 372q25 46 25 96q0 55 -70 55h-50v40h500v-40h-50q-70 0 -139 -55q-57 -45 -88 -87l-13 -18l-320 -458l319 -553q29 -45 81 -94q58 -55 128 -55h50v-40h-600v40h50q70 0 75 55q1 9 1 18 q0 43 -20 83l-211 366l-253 -362q-32 -50 -32 -105t70 -55h50v-40h-500v40h50q70 0 135 55q61 51 101 99l324 463l-315 548q-36 48 -88 100q-55 55 -125 55h-50v40h600z" />
<glyph unicode="&#x10290;" horiz-adv-x="1502" d="M682 1400v-40h-50q-70 0 -75 -55q-1 -9 -1 -18q0 -43 19 -82l212 -368l260 372q25 46 25 96q0 55 -70 55h-50v40h500v-40h-50q-70 0 -139 -55q-57 -45 -88 -87l-13 -18l-320 -458l319 -553q29 -45 81 -94q58 -55 128 -55h50v-40h-600v40h50q70 0 75 55q1 9 1 18 q0 43 -20 83l-211 366l-253 -362q-32 -50 -32 -105t70 -55h50v-40h-500v40h50q70 0 135 55q61 51 101 99l324 463l-315 548q-36 48 -88 100q-55 55 -125 55h-50v40h600z" />
<glyph unicode="&#x2d5d;" horiz-adv-x="1502" d="M682 1400v-40h-50q-70 0 -75 -55q-1 -9 -1 -18q0 -43 19 -82l212 -368l260 372q25 46 25 96q0 55 -70 55h-50v40h500v-40h-50q-70 0 -139 -55q-57 -45 -88 -87l-13 -18l-320 -458l319 -553q29 -45 81 -94q58 -55 128 -55h50v-40h-600v40h50q70 0 75 55q1 9 1 18 q0 43 -20 83l-211 366l-253 -362q-32 -50 -32 -105t70 -55h50v-40h-500v40h50q70 0 135 55q61 51 101 99l324 463l-315 548q-36 48 -88 100q-55 55 -125 55h-50v40h600z" />
<glyph unicode="&#x2cac;" horiz-adv-x="1502" d="M682 1400v-40h-50q-70 0 -75 -55q-1 -9 -1 -18q0 -43 19 -82l212 -368l260 372q25 46 25 96q0 55 -70 55h-50v40h500v-40h-50q-70 0 -139 -55q-57 -45 -88 -87l-13 -18l-320 -458l319 -553q29 -45 81 -94q58 -55 128 -55h50v-40h-600v40h50q70 0 75 55q1 9 1 18 q0 43 -20 83l-211 366l-253 -362q-32 -50 -32 -105t70 -55h50v-40h-500v40h50q70 0 135 55q61 51 101 99l324 463l-315 548q-36 48 -88 100q-55 55 -125 55h-50v40h600z" />
<glyph unicode="&#x16b7;" horiz-adv-x="1502" d="M682 1400v-40h-50q-70 0 -75 -55q-1 -9 -1 -18q0 -43 19 -82l212 -368l260 372q25 46 25 96q0 55 -70 55h-50v40h500v-40h-50q-70 0 -139 -55q-57 -45 -88 -87l-13 -18l-320 -458l319 -553q29 -45 81 -94q58 -55 128 -55h50v-40h-600v40h50q70 0 75 55q1 9 1 18 q0 43 -20 83l-211 366l-253 -362q-32 -50 -32 -105t70 -55h50v-40h-500v40h50q70 0 135 55q61 51 101 99l324 463l-315 548q-36 48 -88 100q-55 55 -125 55h-50v40h600z" />
<glyph unicode="&#x425;" horiz-adv-x="1502" d="M682 1400v-40h-50q-70 0 -75 -55q-1 -9 -1 -18q0 -43 19 -82l212 -368l260 372q25 46 25 96q0 55 -70 55h-50v40h500v-40h-50q-70 0 -139 -55q-57 -45 -88 -87l-13 -18l-320 -458l319 -553q29 -45 81 -94q58 -55 128 -55h50v-40h-600v40h50q70 0 75 55q1 9 1 18 q0 43 -20 83l-211 366l-253 -362q-32 -50 -32 -105t70 -55h50v-40h-500v40h50q70 0 135 55q61 51 101 99l324 463l-315 548q-36 48 -88 100q-55 55 -125 55h-50v40h600z" />
<glyph unicode="&#x3a7;" horiz-adv-x="1502" d="M682 1400v-40h-50q-70 0 -75 -55q-1 -9 -1 -18q0 -43 19 -82l212 -368l260 372q25 46 25 96q0 55 -70 55h-50v40h500v-40h-50q-70 0 -139 -55q-57 -45 -88 -87l-13 -18l-320 -458l319 -553q29 -45 81 -94q58 -55 128 -55h50v-40h-600v40h50q70 0 75 55q1 9 1 18 q0 43 -20 83l-211 366l-253 -362q-32 -50 -32 -105t70 -55h50v-40h-500v40h50q70 0 135 55q61 51 101 99l324 463l-315 548q-36 48 -88 100q-55 55 -125 55h-50v40h600z" />
<glyph unicode="X" horiz-adv-x="1502" d="M682 1400v-40h-50q-70 0 -75 -55q-1 -9 -1 -18q0 -43 19 -82l212 -368l260 372q25 46 25 96q0 55 -70 55h-50v40h500v-40h-50q-70 0 -139 -55q-57 -45 -88 -87l-13 -18l-320 -458l319 -553q29 -45 81 -94q58 -55 128 -55h50v-40h-600v40h50q70 0 75 55q1 9 1 18 q0 43 -20 83l-211 366l-253 -362q-32 -50 -32 -105t70 -55h50v-40h-500v40h50q70 0 135 55q61 51 101 99l324 463l-315 548q-36 48 -88 100q-55 55 -125 55h-50v40h600z" />
<glyph unicode="&#x10316;" horiz-adv-x="1652" d="M313 1202q-34 49 -88 103q-55 55 -125 55h-50v40h600v-40h-50q-70 0 -75 -55q-1 -7 -1 -14q0 -41 21 -79l313 -483l332 474q32 49 32 102q0 55 -70 55h-50v40h500v-40h-50q-70 0 -140 -55q-53 -42 -85 -81l-407 -581v-443q0 -50 40 -105t110 -55h50v-40h-600v40h50 q70 0 110 55t40 105v375z" />
<glyph unicode="&#x102b2;" horiz-adv-x="1652" d="M313 1202q-34 49 -88 103q-55 55 -125 55h-50v40h600v-40h-50q-70 0 -75 -55q-1 -7 -1 -14q0 -41 21 -79l313 -483l332 474q32 49 32 102q0 55 -70 55h-50v40h500v-40h-50q-70 0 -140 -55q-53 -42 -85 -81l-407 -581v-443q0 -50 40 -105t110 -55h50v-40h-600v40h50 q70 0 110 55t40 105v375z" />
<glyph unicode="&#x2ca8;" horiz-adv-x="1652" d="M313 1202q-34 49 -88 103q-55 55 -125 55h-50v40h600v-40h-50q-70 0 -75 -55q-1 -7 -1 -14q0 -41 21 -79l313 -483l332 474q32 49 32 102q0 55 -70 55h-50v40h500v-40h-50q-70 0 -140 -55q-53 -42 -85 -81l-407 -581v-443q0 -50 40 -105t110 -55h50v-40h-600v40h50 q70 0 110 55t40 105v375z" />
<glyph unicode="&#x4ae;" horiz-adv-x="1652" d="M313 1202q-34 49 -88 103q-55 55 -125 55h-50v40h600v-40h-50q-70 0 -75 -55q-1 -7 -1 -14q0 -41 21 -79l313 -483l332 474q32 49 32 102q0 55 -70 55h-50v40h500v-40h-50q-70 0 -140 -55q-53 -42 -85 -81l-407 -581v-443q0 -50 40 -105t110 -55h50v-40h-600v40h50 q70 0 110 55t40 105v375z" />
<glyph unicode="&#x3a5;" horiz-adv-x="1652" d="M313 1202q-34 49 -88 103q-55 55 -125 55h-50v40h600v-40h-50q-70 0 -75 -55q-1 -7 -1 -14q0 -41 21 -79l313 -483l332 474q32 49 32 102q0 55 -70 55h-50v40h500v-40h-50q-70 0 -140 -55q-53 -42 -85 -81l-407 -581v-443q0 -50 40 -105t110 -55h50v-40h-600v40h50 q70 0 110 55t40 105v375z" />
<glyph unicode="Y" horiz-adv-x="1652" d="M313 1202q-34 49 -88 103q-55 55 -125 55h-50v40h600v-40h-50q-70 0 -75 -55q-1 -7 -1 -14q0 -41 21 -79l313 -483l332 474q32 49 32 102q0 55 -70 55h-50v40h500v-40h-50q-70 0 -140 -55q-53 -42 -85 -81l-407 -581v-443q0 -50 40 -105t110 -55h50v-40h-600v40h50 q70 0 110 55t40 105v375z" />
<glyph unicode="&#x13c3;" horiz-adv-x="1326" d="M365 100h661q100 0 210 250h40l-100 -350h-1126l911 1300h-661q-100 0 -210 -250h-40l100 350h1126z" />
<glyph unicode="&#x396;" horiz-adv-x="1326" d="M365 100h661q100 0 210 250h40l-100 -350h-1126l911 1300h-661q-100 0 -210 -250h-40l100 350h1126z" />
<glyph unicode="Z" horiz-adv-x="1326" d="M365 100h661q100 0 210 250h40l-100 -350h-1126l911 1300h-661q-100 0 -210 -250h-40l100 350h1126z" />
<glyph unicode="[" horiz-adv-x="550" d="M500 -500h-400v2100h400v-75h-300v-1950h300v-75z" />
<glyph unicode="&#x29f5;" horiz-adv-x="790" d="M610 0l-510 1400h80l510 -1400h-80z" />
<glyph unicode="\" horiz-adv-x="790" d="M610 0l-510 1400h80l510 -1400h-80z" />
<glyph unicode="]" horiz-adv-x="550" d="M50 -425h300v1950h-300v75h400v-2100h-400v75z" />
<glyph unicode="^" horiz-adv-x="790" d="M395 1290l-215 -590h-80l255 700h80l255 -700h-80z" />
<glyph unicode="_" horiz-adv-x="1000" d="M1000 -75h-1000v75h1000v-75z" />
<glyph unicode="&#x2cff;" horiz-adv-x="600" d="M322 1400l178 -350h-50l-350 350h222z" />
<glyph unicode="&#x1fef;" horiz-adv-x="600" d="M322 1400l178 -350h-50l-350 350h222z" />
<glyph unicode="&#x2cb;" horiz-adv-x="600" d="M322 1400l178 -350h-50l-350 350h222z" />
<glyph unicode="`" horiz-adv-x="600" d="M322 1400l178 -350h-50l-350 350h222z" />
<glyph unicode="&#x430;" horiz-adv-x="841" d="M506 554v126q0 57 -34 111t-93 54q-60 0 -89.5 -13t-51.5 -48q-22 -34 -22 -64q0 -2 1 -4v-5q0 -30 -17 -61q-15 -26 -52 -26q-10 0 -22 3q-56 9 -56 65q0 16 5 34q44 108 119.5 146t184.5 38q108 0 178.5 -68t84.5 -166.5t14 -235.5v-183q0 -89 15 -120t61 -31 q33 0 43 7.5t27 47.5h39q-35 -98 -78 -134.5t-111 -36.5q-46 0 -75 25.5t-50 73.5q-7 16 -12 35q-129 -97 -161 -112q-50 -22 -105 -22q-87 0 -143 58t-56 162q0 60 27 103q38 61 131 114q90 52 298 127zM508 177q-2 26 -2 58v264q-130 -51 -169 -72q-72 -39 -104.5 -81.5 t-32.5 -93.5q0 -74 41 -116.5t92 -42.5q67 0 175 84z" />
<glyph unicode="a" horiz-adv-x="841" d="M506 554v126q0 57 -34 111t-93 54q-60 0 -89.5 -13t-51.5 -48q-22 -34 -22 -64q0 -2 1 -4v-5q0 -30 -17 -61q-15 -26 -52 -26q-10 0 -22 3q-56 9 -56 65q0 16 5 34q44 108 119.5 146t184.5 38q108 0 178.5 -68t84.5 -166.5t14 -235.5v-183q0 -89 15 -120t61 -31 q33 0 43 7.5t27 47.5h39q-35 -98 -78 -134.5t-111 -36.5q-46 0 -75 25.5t-50 73.5q-7 16 -12 35q-129 -97 -161 -112q-50 -22 -105 -22q-87 0 -143 58t-56 162q0 60 27 103q38 61 131 114q90 52 298 127zM508 177q-2 26 -2 58v264q-130 -51 -169 -72q-72 -39 -104.5 -81.5 t-32.5 -93.5q0 -74 41 -116.5t92 -42.5q67 0 175 84z" />
<glyph unicode="b" horiz-adv-x="1005" d="M344.5 648.5q-34.5 -90.5 -34.5 -198.5v-260q69 -79 123.5 -102t123.5 -23q50 0 114.5 48t99 139t34.5 198q0 108 -34.5 198.5t-99 138.5t-114.5 48q-69 0 -123.5 -48t-89 -138.5zM160 1110q0 100 -10 135t-50 35t-87 -18l-13 38l260 110h50v-595q23 21 49 37 q90 58 198 58q89 0 189.5 -58t154.5 -166.5t54 -235.5t-54 -235.5t-154.5 -166.5t-189.5 -58q-108 0 -198.5 13t-198.5 107v1000z" />
<glyph unicode="&#x2ca5;" horiz-adv-x="866" d="M467 65q100 0 184.5 53t119.5 134l9 26l31 -22q-33 -115 -129 -190.5t-215 -75.5q-108 0 -208.5 58t-154.5 166.5t-54 235.5t54 235.5t154.5 166.5t208.5 58q109 0 204.5 -53t139.5 -161q5 -18 5 -34q0 -56 -60 -65q-14 -3 -25 -3q-40 0 -54 26q-14 24 -14 49q0 8 2 17 q1 8 1 17q0 25 -12 51q-18 35 -67.5 58t-119.5 23q-69 0 -133.5 -48t-99 -138.5t-34.5 -198.5q0 -107 34.5 -198t99 -139t133.5 -48z" />
<glyph unicode="&#x217d;" horiz-adv-x="866" d="M467 65q100 0 184.5 53t119.5 134l9 26l31 -22q-33 -115 -129 -190.5t-215 -75.5q-108 0 -208.5 58t-154.5 166.5t-54 235.5t54 235.5t154.5 166.5t208.5 58q109 0 204.5 -53t139.5 -161q5 -18 5 -34q0 -56 -60 -65q-14 -3 -25 -3q-40 0 -54 26q-14 24 -14 49q0 8 2 17 q1 8 1 17q0 25 -12 51q-18 35 -67.5 58t-119.5 23q-69 0 -133.5 -48t-99 -138.5t-34.5 -198.5q0 -107 34.5 -198t99 -139t133.5 -48z" />
<glyph unicode="&#x441;" horiz-adv-x="866" d="M467 65q100 0 184.5 53t119.5 134l9 26l31 -22q-33 -115 -129 -190.5t-215 -75.5q-108 0 -208.5 58t-154.5 166.5t-54 235.5t54 235.5t154.5 166.5t208.5 58q109 0 204.5 -53t139.5 -161q5 -18 5 -34q0 -56 -60 -65q-14 -3 -25 -3q-40 0 -54 26q-14 24 -14 49q0 8 2 17 q1 8 1 17q0 25 -12 51q-18 35 -67.5 58t-119.5 23q-69 0 -133.5 -48t-99 -138.5t-34.5 -198.5q0 -107 34.5 -198t99 -139t133.5 -48z" />
<glyph unicode="&#x3f2;" horiz-adv-x="866" d="M467 65q100 0 184.5 53t119.5 134l9 26l31 -22q-33 -115 -129 -190.5t-215 -75.5q-108 0 -208.5 58t-154.5 166.5t-54 235.5t54 235.5t154.5 166.5t208.5 58q109 0 204.5 -53t139.5 -161q5 -18 5 -34q0 -56 -60 -65q-14 -3 -25 -3q-40 0 -54 26q-14 24 -14 49q0 8 2 17 q1 8 1 17q0 25 -12 51q-18 35 -67.5 58t-119.5 23q-69 0 -133.5 -48t-99 -138.5t-34.5 -198.5q0 -107 34.5 -198t99 -139t133.5 -48z" />
<glyph unicode="c" horiz-adv-x="866" d="M467 65q100 0 184.5 53t119.5 134l9 26l31 -22q-33 -115 -129 -190.5t-215 -75.5q-108 0 -208.5 58t-154.5 166.5t-54 235.5t54 235.5t154.5 166.5t208.5 58q109 0 204.5 -53t139.5 -161q5 -18 5 -34q0 -56 -60 -65q-14 -3 -25 -3q-40 0 -54 26q-14 24 -14 49q0 8 2 17 q1 8 1 17q0 25 -12 51q-18 35 -67.5 58t-119.5 23q-69 0 -133.5 -48t-99 -138.5t-34.5 -198.5q0 -107 34.5 -198t99 -139t133.5 -48z" />
<glyph unicode="&#x217e;" horiz-adv-x="1095" d="M467 835q-69 0 -133.5 -48t-99 -138.5t-34.5 -198.5q0 -107 34.5 -198t99 -139t133.5 -48q70 0 134.5 48t99 139t34.5 198q0 108 -34.5 198.5t-99 138.5t-134.5 48zM735 1110q0 100 -10 135t-50 35t-87 -18l-13 38l260 110h50v-1120q0 -100 10 -135t50 -35t87 18l13 -38 l-260 -110h-50v99q-27 -23 -58 -41q-101 -58 -210 -58q-108 0 -208.5 58t-154.5 166.5t-54 235.5t54 235.5t154.5 166.5t208.5 58q109 0 210 -58q31 -18 58 -41v299z" />
<glyph unicode="&#x501;" horiz-adv-x="1095" d="M467 835q-69 0 -133.5 -48t-99 -138.5t-34.5 -198.5q0 -107 34.5 -198t99 -139t133.5 -48q70 0 134.5 48t99 139t34.5 198q0 108 -34.5 198.5t-99 138.5t-134.5 48zM735 1110q0 100 -10 135t-50 35t-87 -18l-13 38l260 110h50v-1120q0 -100 10 -135t50 -35t87 18l13 -38 l-260 -110h-50v99q-27 -23 -58 -41q-101 -58 -210 -58q-108 0 -208.5 58t-154.5 166.5t-54 235.5t54 235.5t154.5 166.5t208.5 58q109 0 210 -58q31 -18 58 -41v299z" />
<glyph unicode="d" horiz-adv-x="1095" d="M467 835q-69 0 -133.5 -48t-99 -138.5t-34.5 -198.5q0 -107 34.5 -198t99 -139t133.5 -48q70 0 134.5 48t99 139t34.5 198q0 108 -34.5 198.5t-99 138.5t-134.5 48zM735 1110q0 100 -10 135t-50 35t-87 -18l-13 38l260 110h50v-1120q0 -100 10 -135t50 -35t87 18l13 -38 l-260 -110h-50v99q-27 -23 -58 -41q-101 -58 -210 -58q-108 0 -208.5 58t-154.5 166.5t-54 235.5t54 235.5t154.5 166.5t208.5 58q109 0 210 -58q31 -18 58 -41v299z" />
<glyph unicode="&#x435;" horiz-adv-x="1000" d="M220 470v-20q0 -107 38.5 -198t101 -139t169.5 -48q109 0 201 49.5t139 121.5l29 -16q-47 -97 -134 -163.5t-235 -66.5q-146 0 -254.5 58t-166.5 166.5t-58 235.5t58 235.5t166.5 166.5t224.5 58q118 0 226.5 -58t166.5 -166q56 -104 58 -216h-730zM773 545 q-10 53 -31 104q-39 90 -101.5 138t-141.5 48q-77 0 -139.5 -48t-100.5 -138q-22 -51 -32 -104h546z" />
<glyph unicode="e" horiz-adv-x="1000" d="M220 470v-20q0 -107 38.5 -198t101 -139t169.5 -48q109 0 201 49.5t139 121.5l29 -16q-47 -97 -134 -163.5t-235 -66.5q-146 0 -254.5 58t-166.5 166.5t-58 235.5t58 235.5t166.5 166.5t224.5 58q118 0 226.5 -58t166.5 -166q56 -104 58 -216h-730zM773 545 q-10 53 -31 104q-39 90 -101.5 138t-141.5 48q-77 0 -139.5 -48t-100.5 -138q-22 -51 -32 -104h546z" />
<glyph unicode="f" horiz-adv-x="650" d="M220 850v60q0 167 24 265.5t94.5 166.5t178.5 68q109 0 184.5 -38t119.5 -146q5 -18 5 -34q0 -56 -55 -65q-13 -3 -23 -3q-37 0 -51 26q-18 31 -18 61q0 2 1 5v4q0 30 -21 64q-23 35 -52.5 48t-89.5 13q-59 0 -103 -54t-44 -161v-280h230v-75h-230v-605q0 -50 25 -90 t95 -40h50v-40h-490v40h50q70 0 95 40t25 90v605h-170v75h170z" />
<glyph unicode="g" horiz-adv-x="1113" d="M288 -58q-47 -51 -71 -95t-24 -81q0 -48 58 -84q100 -62 289 -62q180 0 265.5 63.5t85.5 135.5q0 52 -51 74q-52 22 -206 26q-225 6 -346 23zM282 698.5q-32 -66.5 -32 -148.5q0 -71 32 -138t92.5 -102t125.5 -35t125.5 35t92.5 102t32 138q0 82 -32 148.5t-92.5 101.5 t-125.5 35t-125.5 -35t-92.5 -101.5zM323 235q-25 -25 -35 -44q-16 -29 -16 -49q0 -17 16.5 -33t64.5 -23q28 -4 140 -7q206 -5 267 -14q93 -13 148.5 -69t55.5 -138q0 -113 -106 -212q-156 -146 -407 -146q-193 0 -326 87q-75 50 -75 104q0 24 11 48q17 37 70 103 q7 9 102 108q-52 31 -73.5 55.5t-21.5 55.5q0 35 29 82q25 42 109 114q-80 44 -124 118q-52 84 -52 175q0 101 51.5 185.5t148 129.5t200.5 45t201 -45q79 -37 128 -101q14 8 28 17q78 52 130 129l126 -82q-57 -83 -257 -106q44 -78 44 -172q0 -91 -51.5 -175.5t-148 -129.5 t-200.5 -45q-91 0 -177 35z" />
<glyph unicode="h" horiz-adv-x="1200" d="M370 170q0 -50 25 -90t95 -40h50v-40h-490v40h50q70 0 95 40t25 90v940q0 100 -10 135t-50 35t-87 -18l-13 38l260 110h50v-656q21 28 45 53q98 103 216 103q116 0 199.5 -58t116.5 -166.5t33 -225.5v-290q0 -50 25 -90t95 -40h50v-40h-490v40h50q70 0 95 40t25 90v290 q0 97 -13.5 188t-61 139t-124.5 48q-79 0 -141.5 -53t-91 -149t-28.5 -193v-270z" />
<glyph unicode="&#x456;" horiz-adv-x="590" d="M370 170q0 -50 25 -90t95 -40h50v-40h-490v40h50q70 0 95 40t25 90v440q0 100 -10 135t-50 35t-87 -18l-13 38l260 110h50v-740zM280 1335q29 0 55.5 -14t40.5 -40.5t14 -55.5t-14 -55.5t-40.5 -40.5t-55.5 -14t-55.5 14t-40.5 40.5t-14 55.5t14 55.5t40.5 40.5t55.5 14z " />
<glyph unicode="i" horiz-adv-x="590" d="M370 170q0 -50 25 -90t95 -40h50v-40h-490v40h50q70 0 95 40t25 90v440q0 100 -10 135t-50 35t-87 -18l-13 38l260 110h50v-740zM280 1335q29 0 55.5 -14t40.5 -40.5t14 -55.5t-14 -55.5t-40.5 -40.5t-55.5 -14t-55.5 14t-40.5 40.5t-14 55.5t14 55.5t40.5 40.5t55.5 14z " />
<glyph unicode="&#x458;" horiz-adv-x="530" d="M360 -47q0 -235 -92.5 -349t-252.5 -114q-91 0 -135 33t-44 68t24.5 60t57.5 25q26 0 53 -13q17 -7 65.5 -50.5t81.5 -43.5q24 0 47 18.5t34 62t11 188.5v772q0 100 -10 135t-50 35t-87 -18l-13 38l260 110h50v-957zM270 1335q29 0 55.5 -14t40.5 -40.5t14 -55.5 t-14 -55.5t-40.5 -40.5t-55.5 -14t-55.5 14t-40.5 40.5t-14 55.5t14 55.5t40.5 40.5t55.5 14z" />
<glyph unicode="&#x3f3;" horiz-adv-x="530" d="M360 -47q0 -235 -92.5 -349t-252.5 -114q-91 0 -135 33t-44 68t24.5 60t57.5 25q26 0 53 -13q17 -7 65.5 -50.5t81.5 -43.5q24 0 47 18.5t34 62t11 188.5v772q0 100 -10 135t-50 35t-87 -18l-13 38l260 110h50v-957zM270 1335q29 0 55.5 -14t40.5 -40.5t14 -55.5 t-14 -55.5t-40.5 -40.5t-55.5 -14t-55.5 14t-40.5 40.5t-14 55.5t14 55.5t40.5 40.5t55.5 14z" />
<glyph unicode="j" horiz-adv-x="530" d="M360 -47q0 -235 -92.5 -349t-252.5 -114q-91 0 -135 33t-44 68t24.5 60t57.5 25q26 0 53 -13q17 -7 65.5 -50.5t81.5 -43.5q24 0 47 18.5t34 62t11 188.5v772q0 100 -10 135t-50 35t-87 -18l-13 38l260 110h50v-957zM270 1335q29 0 55.5 -14t40.5 -40.5t14 -55.5 t-14 -55.5t-40.5 -40.5t-55.5 -14t-55.5 14t-40.5 40.5t-14 55.5t14 55.5t40.5 40.5t55.5 14z" />
<glyph unicode="k" horiz-adv-x="1180" d="M370 345v-175q0 -50 25 -90t95 -40h50v-40h-490v40h50q70 0 95 40t25 90v940q0 100 -10 135t-50 35t-87 -18l-13 38l260 110h50v-924l222 222q40 46 58 97q5 14 5 24q0 31 -45 31h-50v40h480v-40h-50q-60 0 -140 -55q-48 -33 -85 -65l-221 -221l319 -319q55 -50 130 -105 t135 -55h50v-40h-509v40h50q36 0 36 20q0 13 -16 35q-35 48 -75 92l-226 226z" />
<glyph unicode="&#x217c;" horiz-adv-x="590" d="M370 170q0 -50 25 -90t95 -40h50v-40h-490v40h50q70 0 95 40t25 90v940q0 100 -10 135t-50 35t-87 -18l-13 38l260 110h50v-1240z" />
<glyph unicode="l" horiz-adv-x="590" d="M370 170q0 -50 25 -90t95 -40h50v-40h-490v40h50q70 0 95 40t25 90v940q0 100 -10 135t-50 35t-87 -18l-13 38l260 110h50v-1240z" />
<glyph unicode="&#x217f;" horiz-adv-x="1810" d="M943 699q35 59 82 108q98 103 216 103q116 0 199.5 -58t116.5 -166.5t33 -225.5v-290q0 -50 25 -90t95 -40h50v-40h-490v40h50q70 0 95 40t25 90v290q0 97 -13.5 188t-61 139t-124.5 48q-79 0 -141.5 -53t-91 -149t-28.5 -193v-270q0 -50 25 -90t95 -40h50v-40h-490v40 h50q70 0 95 40t25 90v290q0 97 -13.5 188t-61 139t-124.5 48q-79 0 -141.5 -53t-91 -149t-28.5 -193v-270q0 -50 25 -90t95 -40h50v-40h-490v40h50q70 0 95 40t25 90v440q0 100 -10 135t-50 35t-87 -18l-13 38l260 110h50v-156q21 28 45 53q98 103 216 103q116 0 200 -58 q78 -54 112 -153z" />
<glyph unicode="m" horiz-adv-x="1810" d="M943 699q35 59 82 108q98 103 216 103q116 0 199.5 -58t116.5 -166.5t33 -225.5v-290q0 -50 25 -90t95 -40h50v-40h-490v40h50q70 0 95 40t25 90v290q0 97 -13.5 188t-61 139t-124.5 48q-79 0 -141.5 -53t-91 -149t-28.5 -193v-270q0 -50 25 -90t95 -40h50v-40h-490v40 h50q70 0 95 40t25 90v290q0 97 -13.5 188t-61 139t-124.5 48q-79 0 -141.5 -53t-91 -149t-28.5 -193v-270q0 -50 25 -90t95 -40h50v-40h-490v40h50q70 0 95 40t25 90v440q0 100 -10 135t-50 35t-87 -18l-13 38l260 110h50v-156q21 28 45 53q98 103 216 103q116 0 200 -58 q78 -54 112 -153z" />
<glyph unicode="&#x2d16;" horiz-adv-x="1200" d="M370 170q0 -50 25 -90t95 -40h50v-40h-490v40h50q70 0 95 40t25 90v440q0 100 -10 135t-50 35t-87 -18l-13 38l260 110h50v-156q21 28 45 53q98 103 216 103q116 0 199.5 -58t116.5 -166.5t33 -225.5v-290q0 -50 25 -90t95 -40h50v-40h-490v40h50q70 0 95 40t25 90v290 q0 97 -13.5 188t-61 139t-124.5 48q-79 0 -141.5 -53t-91 -149t-28.5 -193v-270z" />
<glyph unicode="&#x578;" horiz-adv-x="1200" d="M370 170q0 -50 25 -90t95 -40h50v-40h-490v40h50q70 0 95 40t25 90v440q0 100 -10 135t-50 35t-87 -18l-13 38l260 110h50v-156q21 28 45 53q98 103 216 103q116 0 199.5 -58t116.5 -166.5t33 -225.5v-290q0 -50 25 -90t95 -40h50v-40h-490v40h50q70 0 95 40t25 90v290 q0 97 -13.5 188t-61 139t-124.5 48q-79 0 -141.5 -53t-91 -149t-28.5 -193v-270z" />
<glyph unicode="n" horiz-adv-x="1200" d="M370 170q0 -50 25 -90t95 -40h50v-40h-490v40h50q70 0 95 40t25 90v440q0 100 -10 135t-50 35t-87 -18l-13 38l260 110h50v-156q21 28 45 53q98 103 216 103q116 0 199.5 -58t116.5 -166.5t33 -225.5v-290q0 -50 25 -90t95 -40h50v-40h-490v40h50q70 0 95 40t25 90v290 q0 97 -13.5 188t-61 139t-124.5 48q-79 0 -141.5 -53t-91 -149t-28.5 -193v-270z" />
<glyph unicode="&#x2c9f;" horiz-adv-x="935" d="M467 910q109 0 209.5 -58t154.5 -166.5t54 -235.5t-54 -235.5t-154.5 -166.5t-209.5 -58q-108 0 -208.5 58t-154.5 166.5t-54 235.5t54 235.5t154.5 166.5t208.5 58zM333.5 787q-64.5 -48 -99 -138.5t-34.5 -198.5q0 -107 34.5 -198t99 -139t133.5 -48q70 0 134.5 48 t99 139t34.5 198q0 108 -34.5 198.5t-99 138.5t-134.5 48q-69 0 -133.5 -48z" />
<glyph unicode="&#x1d0f;" horiz-adv-x="935" d="M467 910q109 0 209.5 -58t154.5 -166.5t54 -235.5t-54 -235.5t-154.5 -166.5t-209.5 -58q-108 0 -208.5 58t-154.5 166.5t-54 235.5t54 235.5t154.5 166.5t208.5 58zM333.5 787q-64.5 -48 -99 -138.5t-34.5 -198.5q0 -107 34.5 -198t99 -139t133.5 -48q70 0 134.5 48 t99 139t34.5 198q0 108 -34.5 198.5t-99 138.5t-134.5 48q-69 0 -133.5 -48z" />
<glyph unicode="&#x585;" horiz-adv-x="935" d="M467 910q109 0 209.5 -58t154.5 -166.5t54 -235.5t-54 -235.5t-154.5 -166.5t-209.5 -58q-108 0 -208.5 58t-154.5 166.5t-54 235.5t54 235.5t154.5 166.5t208.5 58zM333.5 787q-64.5 -48 -99 -138.5t-34.5 -198.5q0 -107 34.5 -198t99 -139t133.5 -48q70 0 134.5 48 t99 139t34.5 198q0 108 -34.5 198.5t-99 138.5t-134.5 48q-69 0 -133.5 -48z" />
<glyph unicode="&#x43e;" horiz-adv-x="935" d="M467 910q109 0 209.5 -58t154.5 -166.5t54 -235.5t-54 -235.5t-154.5 -166.5t-209.5 -58q-108 0 -208.5 58t-154.5 166.5t-54 235.5t54 235.5t154.5 166.5t208.5 58zM333.5 787q-64.5 -48 -99 -138.5t-34.5 -198.5q0 -107 34.5 -198t99 -139t133.5 -48q70 0 134.5 48 t99 139t34.5 198q0 108 -34.5 198.5t-99 138.5t-134.5 48q-69 0 -133.5 -48z" />
<glyph unicode="&#x3bf;" horiz-adv-x="935" d="M467 910q109 0 209.5 -58t154.5 -166.5t54 -235.5t-54 -235.5t-154.5 -166.5t-209.5 -58q-108 0 -208.5 58t-154.5 166.5t-54 235.5t54 235.5t154.5 166.5t208.5 58zM333.5 787q-64.5 -48 -99 -138.5t-34.5 -198.5q0 -107 34.5 -198t99 -139t133.5 -48q70 0 134.5 48 t99 139t34.5 198q0 108 -34.5 198.5t-99 138.5t-134.5 48q-69 0 -133.5 -48z" />
<glyph unicode="o" horiz-adv-x="935" d="M467 910q109 0 209.5 -58t154.5 -166.5t54 -235.5t-54 -235.5t-154.5 -166.5t-209.5 -58q-108 0 -208.5 58t-154.5 166.5t-54 235.5t54 235.5t154.5 166.5t208.5 58zM333.5 787q-64.5 -48 -99 -138.5t-34.5 -198.5q0 -107 34.5 -198t99 -139t133.5 -48q70 0 134.5 48 t99 139t34.5 198q0 108 -34.5 198.5t-99 138.5t-134.5 48q-69 0 -133.5 -48z" />
<glyph unicode="&#x440;" horiz-adv-x="1105" d="M404.5 648.5q-34.5 -90.5 -34.5 -198.5q0 -107 34.5 -198t99 -139t133.5 -48q70 0 134.5 48t99 139t34.5 198q0 108 -34.5 198.5t-99 138.5t-134.5 48q-69 0 -133.5 -48t-99 -138.5zM370 89v-419q0 -50 25 -90t95 -40h50v-40h-490v40h50q70 0 95 40t25 90v940 q0 100 -10 135t-50 35t-87 -18l-13 38l260 110h50v-99q27 23 59 41q100 58 208 58q109 0 209.5 -58t154.5 -166.5t54 -235.5t-54 -235.5t-154.5 -166.5t-209.5 -58q-108 0 -208 58q-32 18 -59 41z" />
<glyph unicode="p" horiz-adv-x="1105" d="M404.5 648.5q-34.5 -90.5 -34.5 -198.5q0 -107 34.5 -198t99 -139t133.5 -48q70 0 134.5 48t99 139t34.5 198q0 108 -34.5 198.5t-99 138.5t-134.5 48q-69 0 -133.5 -48t-99 -138.5zM370 89v-419q0 -50 25 -90t95 -40h50v-40h-490v40h50q70 0 95 40t25 90v940 q0 100 -10 135t-50 35t-87 -18l-13 38l260 110h50v-99q27 23 59 41q100 58 208 58q109 0 209.5 -58t154.5 -166.5t54 -235.5t-54 -235.5t-154.5 -166.5t-209.5 -58q-108 0 -208 58q-32 18 -59 41z" />
<glyph unicode="&#x51b;" horiz-adv-x="1105" d="M467 835q-69 0 -133.5 -48t-99 -138.5t-34.5 -198.5q0 -107 34.5 -198t99 -139t133.5 -48q70 0 134.5 48t99 139t34.5 198q0 108 -34.5 198.5t-99 138.5t-134.5 48zM677 48q-101 -58 -210 -58q-108 0 -208.5 58t-154.5 166.5t-54 235.5t54 235.5t154.5 166.5t208.5 58 q109 0 210 -58q31 -18 58 -41v99h50l260 -110l-13 -38q-47 18 -87 18t-50 -35t-10 -135v-940q0 -50 25 -90t95 -40h50v-40h-490v40h50q70 0 95 40t25 90v419q-27 -23 -58 -41z" />
<glyph unicode="q" horiz-adv-x="1105" d="M467 835q-69 0 -133.5 -48t-99 -138.5t-34.5 -198.5q0 -107 34.5 -198t99 -139t133.5 -48q70 0 134.5 48t99 139t34.5 198q0 108 -34.5 198.5t-99 138.5t-134.5 48zM677 48q-101 -58 -210 -58q-108 0 -208.5 58t-154.5 166.5t-54 235.5t54 235.5t154.5 166.5t208.5 58 q109 0 210 -58q31 -18 58 -41v99h50l260 -110l-13 -38q-47 18 -87 18t-50 -35t-10 -135v-940q0 -50 25 -90t95 -40h50v-40h-490v40h50q70 0 95 40t25 90v419q-27 -23 -58 -41z" />
<glyph unicode="r" horiz-adv-x="863" d="M399 633q-29 -96 -29 -193v-270q0 -50 25 -90t95 -40h50v-40h-490v40h50q70 0 95 40t25 90v440q0 100 -10 135t-50 35t-87 -18l-13 38l260 110h50v-156q21 28 45 53q98 103 216 103h9q68 0 117 -14q17 -8 30 -18q26 -21 26 -48q0 -18 -12 -40q-28 -48 -61 -48q-3 0 -7 1 q-37 6 -59 31.5t-60 34.5q-10 2 -21 2q-30 0 -66 -18q-49 -25 -98 -86q-18 -33 -30 -74z" />
<glyph unicode="&#xa731;" horiz-adv-x="700" d="M584 910v-289h-32q-36 136 -93.5 185t-145.5 49q-67 0 -108.5 -34t-41.5 -76q0 -52 31 -99q30 -38 101 -81l140 -65q215 -92 215 -242q0 -126 -90.5 -197t-203.5 -71q-80 0 -184 28q-32 9 -52 9q-22 0 -34 -24h-32v303h42q16 -130 92 -195.5t170 -65.5q66 0 108 37.5 t42 100.5q0 64 -41.5 107.5t-181 110t-182.5 120.5q-53 53 -53 133q0 115 74.5 185.5t192.5 70.5q52 0 126 -21q49 -14 65 -14q15 0 24 6.5t20 28.5h32z" />
<glyph unicode="&#x455;" horiz-adv-x="700" d="M584 910v-289h-32q-36 136 -93.5 185t-145.5 49q-67 0 -108.5 -34t-41.5 -76q0 -52 31 -99q30 -38 101 -81l140 -65q215 -92 215 -242q0 -126 -90.5 -197t-203.5 -71q-80 0 -184 28q-32 9 -52 9q-22 0 -34 -24h-32v303h42q16 -130 92 -195.5t170 -65.5q66 0 108 37.5 t42 100.5q0 64 -41.5 107.5t-181 110t-182.5 120.5q-53 53 -53 133q0 115 74.5 185.5t192.5 70.5q52 0 126 -21q49 -14 65 -14q15 0 24 6.5t20 28.5h32z" />
<glyph unicode="s" horiz-adv-x="700" d="M584 910v-289h-32q-36 136 -93.5 185t-145.5 49q-67 0 -108.5 -34t-41.5 -76q0 -52 31 -99q30 -38 101 -81l140 -65q215 -92 215 -242q0 -126 -90.5 -197t-203.5 -71q-80 0 -184 28q-32 9 -52 9q-22 0 -34 -24h-32v303h42q16 -130 92 -195.5t170 -65.5q66 0 108 37.5 t42 100.5q0 64 -41.5 107.5t-181 110t-182.5 120.5q-53 53 -53 133q0 115 74.5 185.5t192.5 70.5q52 0 126 -21q49 -14 65 -14q15 0 24 6.5t20 28.5h32z" />
<glyph unicode="t" horiz-adv-x="667" d="M360 825v-568q0 -89 30 -120t76 -31q33 0 64 20.5t48 60.5h39q-35 -98 -99 -147.5t-132 -49.5q-46 0 -90 25.5t-65 73t-21 146.5v590h-160v75q160 0 260 300h50v-300h190v-75h-190z" />
<glyph unicode="&#x57d;" horiz-adv-x="1190" d="M830 730q0 50 -25 90t-95 40h-50v40h320v-610q0 -100 10 -135t50 -35t87 18l13 -38l-260 -110h-50v156q-21 -28 -45 -53q-98 -103 -216 -103q-116 0 -199.5 58t-116.5 166.5t-33 225.5v290q0 50 -25 90t-95 40h-50v40h320v-460q0 -97 13.5 -188t61 -139t124.5 -48 q79 0 141.5 53t91 149t28.5 193v270z" />
<glyph unicode="u" horiz-adv-x="1190" d="M830 730q0 50 -25 90t-95 40h-50v40h320v-610q0 -100 10 -135t50 -35t87 18l13 -38l-260 -110h-50v156q-21 -28 -45 -53q-98 -103 -216 -103q-116 0 -199.5 58t-116.5 166.5t-33 225.5v290q0 50 -25 90t-95 40h-50v40h320v-460q0 -97 13.5 -188t61 -139t124.5 -48 q79 0 141.5 53t91 149t28.5 193v270z" />
<glyph unicode="&#x1d20;" horiz-adv-x="1255" d="M576 900v-40h-50q-60 0 -76 -55q-8 -26 -8 -52q0 -21 6 -42l207 -511l206 509q5 18 5 37q0 29 -11 59q-20 55 -80 55h-50v40h480v-40h-50q-60 0 -115 -55q-51 -51 -72 -98l-286 -707h-108l-285 704q-21 48 -74 101q-55 55 -115 55h-50v40h526z" />
<glyph unicode="v" horiz-adv-x="1255" d="M576 900v-40h-50q-60 0 -76 -55q-8 -26 -8 -52q0 -21 6 -42l207 -511l206 509q5 18 5 37q0 29 -11 59q-20 55 -80 55h-50v40h480v-40h-50q-60 0 -115 -55q-51 -51 -72 -98l-286 -707h-108l-285 704q-21 48 -74 101q-55 55 -115 55h-50v40h526z" />
<glyph unicode="&#x1d21;" horiz-adv-x="1835" d="M918 584l-236 -584h-108l-285 704q-21 48 -74 101q-55 55 -115 55h-50v40h526v-40h-50q-60 0 -76 -55q-8 -26 -8 -52q0 -21 6 -42l207 -511l206 509l2 8q-22 42 -68 88q-55 55 -115 55h-50v40h526v-40h-50q-60 0 -76 -55q-8 -26 -8 -52q0 -21 6 -42l207 -511l206 509 q5 18 5 37q0 29 -11 59q-20 55 -80 55h-50v40h480v-40h-50q-60 0 -115 -55q-51 -51 -72 -98l-286 -707h-108z" />
<glyph unicode="&#x51d;" horiz-adv-x="1835" d="M918 584l-236 -584h-108l-285 704q-21 48 -74 101q-55 55 -115 55h-50v40h526v-40h-50q-60 0 -76 -55q-8 -26 -8 -52q0 -21 6 -42l207 -511l206 509l2 8q-22 42 -68 88q-55 55 -115 55h-50v40h526v-40h-50q-60 0 -76 -55q-8 -26 -8 -52q0 -21 6 -42l207 -511l206 509 q5 18 5 37q0 29 -11 59q-20 55 -80 55h-50v40h480v-40h-50q-60 0 -115 -55q-51 -51 -72 -98l-286 -707h-108z" />
<glyph unicode="w" horiz-adv-x="1835" d="M918 584l-236 -584h-108l-285 704q-21 48 -74 101q-55 55 -115 55h-50v40h526v-40h-50q-60 0 -76 -55q-8 -26 -8 -52q0 -21 6 -42l207 -511l206 509l2 8q-22 42 -68 88q-55 55 -115 55h-50v40h526v-40h-50q-60 0 -76 -55q-8 -26 -8 -52q0 -21 6 -42l207 -511l206 509 q5 18 5 37q0 29 -11 59q-20 55 -80 55h-50v40h480v-40h-50q-60 0 -115 -55q-51 -51 -72 -98l-286 -707h-108z" />
<glyph unicode="&#x2cad;" horiz-adv-x="1112" d="M571 900v-40h-50q-50 0 -55 -55q-1 -9 -1 -19q0 -41 18 -79l87 -151l107 153q25 46 25 96q0 55 -50 55h-50v40h460v-40h-50q-50 0 -119 -55t-101 -105l1 1l-169 -240l152 -263l-1 2q30 -50 88 -105t108 -55h50v-40h-489v40h50q50 0 55 55q1 9 1 18q0 42 -19 81l-82 142 l-103 -147l8 11q-32 -50 -32 -105t50 -55h50v-40h-460v40h50q50 0 115 55q61 51 101 98l166 238l-158 275q-35 47 -87 99q-55 55 -105 55h-50v40h489z" />
<glyph unicode="&#x445;" horiz-adv-x="1112" d="M571 900v-40h-50q-50 0 -55 -55q-1 -9 -1 -19q0 -41 18 -79l87 -151l107 153q25 46 25 96q0 55 -50 55h-50v40h460v-40h-50q-50 0 -119 -55t-101 -105l1 1l-169 -240l152 -263l-1 2q30 -50 88 -105t108 -55h50v-40h-489v40h50q50 0 55 55q1 9 1 18q0 42 -19 81l-82 142 l-103 -147l8 11q-32 -50 -32 -105t50 -55h50v-40h-460v40h50q50 0 115 55q61 51 101 98l166 238l-158 275q-35 47 -87 99q-55 55 -105 55h-50v40h489z" />
<glyph unicode="x" horiz-adv-x="1112" d="M571 900v-40h-50q-50 0 -55 -55q-1 -9 -1 -19q0 -41 18 -79l87 -151l107 153q25 46 25 96q0 55 -50 55h-50v40h460v-40h-50q-50 0 -119 -55t-101 -105l1 1l-169 -240l152 -263l-1 2q30 -50 88 -105t108 -55h50v-40h-489v40h50q50 0 55 55q1 9 1 18q0 42 -19 81l-82 142 l-103 -147l8 11q-32 -50 -32 -105t50 -55h50v-40h-460v40h50q50 0 115 55q61 51 101 98l166 238l-158 275q-35 47 -87 99q-55 55 -105 55h-50v40h489z" />
<glyph unicode="&#x443;" horiz-adv-x="1255" d="M574 0l-285 704q-21 48 -74 101q-55 55 -115 55h-50v40h526v-40h-50q-60 0 -76 -55q-8 -26 -8 -52q0 -21 6 -42l207 -511l206 509q5 18 5 37q0 29 -11 59q-20 55 -80 55h-50v40h480v-40h-50q-60 0 -115 -55q-51 -51 -72 -98l-382 -944q-54 -133 -151.5 -198t-178.5 -65 q-59 0 -97 34t-38 78q0 42 27.5 67.5t75.5 25.5q33 0 90 -22q40 -15 50 -15q30 0 65.5 32t71.5 121z" />
<glyph unicode="y" horiz-adv-x="1255" d="M574 0l-285 704q-21 48 -74 101q-55 55 -115 55h-50v40h526v-40h-50q-60 0 -76 -55q-8 -26 -8 -52q0 -21 6 -42l207 -511l206 509q5 18 5 37q0 29 -11 59q-20 55 -80 55h-50v40h480v-40h-50q-60 0 -115 -55q-51 -51 -72 -98l-382 -944q-54 -133 -151.5 -198t-178.5 -65 q-59 0 -97 34t-38 78q0 42 27.5 67.5t75.5 25.5q33 0 90 -22q40 -15 50 -15q30 0 65.5 32t71.5 121z" />
<glyph unicode="&#x1d22;" horiz-adv-x="913" d="M610 800h-310q-100 0 -200 -210h-40l90 310h713l-560 -800h310q100 0 200 210h40l-90 -310h-713z" />
<glyph unicode="z" horiz-adv-x="913" d="M610 800h-310q-100 0 -200 -210h-40l90 310h713l-560 -800h310q100 0 200 210h40l-90 -310h-713z" />
<glyph unicode="{" horiz-adv-x="850" d="M50 554q99 26 175 103q116 116 116 353v80q0 215 160 362.5t349 147.5q-127 0 -243 -161.5t-116 -348.5v-80q0 -265 -160 -367q-110 -71 -253 -93q143 -22 253 -92q160 -103 160 -368v-80q0 -182 116 -346t243 -164q-187 0 -348 147t-161 363v80q0 237 -116 354 q-76 76 -175 102v8z" />
<glyph unicode="&#x5c0;" horiz-adv-x="275" d="M175 -300h-75v1700h75v-1700z" />
<glyph unicode="|" horiz-adv-x="275" d="M175 -300h-75v1700h75v-1700z" />
<glyph unicode="}" horiz-adv-x="850" d="M800 546q-99 -26 -175 -102q-116 -117 -116 -354v-80q0 -216 -161 -363t-348 -147q127 0 243 164t116 346v80q0 265 160 368q110 70 253 92q-143 22 -253 93q-160 102 -160 367v80q0 187 -116 348.5t-243 161.5q189 0 349 -147.5t160 -362.5v-80q0 -237 116 -353 q76 -77 175 -103v-8z" />
<glyph unicode="&#x223c;" horiz-adv-x="1200" d="M163 568h-63q0 69 34 132t97 97.5t132 34.5t245 -75t228 -75t100 19.5t74 55.5t26 75h64q0 -69 -34.5 -132t-97.5 -97.5t-132 -34.5t-245 75t-228 75t-100 -19.5t-74 -55.5t-26 -75z" />
<glyph unicode="~" horiz-adv-x="1200" d="M163 568h-63q0 69 34 132t97 97.5t132 34.5t245 -75t228 -75t100 19.5t74 55.5t26 75h64q0 -69 -34.5 -132t-97.5 -97.5t-132 -34.5t-245 75t-228 75t-100 -19.5t-74 -55.5t-26 -75z" />
<glyph unicode="&#xa1;" horiz-adv-x="420" d="M210 680q-29 0 -55.5 14t-40.5 40.5t-14 55.5t14 55.5t40.5 40.5t55.5 14t55.5 -14t40.5 -40.5t14 -55.5t-14 -55.5t-40.5 -40.5t-55.5 -14zM192 500h36l86 -788q6 -51 6 -77q0 -61 -32.5 -98t-78.5 -37t-77.5 37t-31.5 110q0 23 4 65z" />
<glyph unicode="&#xa2;" horiz-adv-x="866" d="M316 20l-98 -270h-80l111 304q-94 57 -145 161q-54 108 -54 235t54 235.5t154.5 166.5t208.5 58q46 0 90 -10l91 250h80l-99 -272q21 -9 43 -21q95 -53 139 -161q5 -18 5 -34q0 -56 -60 -65q-14 -3 -25 -3q-40 0 -54 26q-14 24 -14 49q0 8 2 17q1 8 1 17q0 25 -12 51 q-15 29 -52 50l-255 -700q58 -39 120 -39q100 0 184.5 53t119.5 134l9 26l31 -22q-33 -115 -129 -190.5t-215 -75.5q-77 0 -151 30zM287 158l244 671q-29 6 -64 6q-69 0 -133.5 -48t-99 -138.5t-34.5 -198.5q0 -107 35 -198q20 -55 52 -94z" />
<glyph unicode="&#xa3;" horiz-adv-x="1020" d="M288 185q-22 14 -43 21t-42 7q-46 0 -74.5 -24.5t-28.5 -63.5q0 -36 23 -60.5t50 -24.5q33 0 64.5 34.5t50.5 110.5zM459 663q1 -38 1 -51q0 -104 -15 -183.5t-51 -182.5q197 -63 225 -69q53 -12 103 -12q83 0 135.5 38.5t76.5 120.5l36 -9q-21 -160 -104 -242.5 t-184 -82.5q-69 0 -124 24.5t-204 134.5q-40 -79 -86.5 -119t-99.5 -40q-51 0 -84.5 34.5t-33.5 93.5q0 67 46 111t119 44q17 0 38 -2t47 -6q2 26 2.5 45t0.5 32q0 84 -15 321h-238v75h233q-13 200 -13 243q0 122 48.5 222.5t135.5 153.5t187 53q126 0 190 -67.5t64 -135.5 q0 -32 -25 -56.5t-54 -24.5q-38 0 -63 37q-11 18 -15 77.5t-29 91.5q-36 28 -93 28q-79 0 -130.5 -64t-51.5 -219q0 -73 12 -196q6 -67 10 -143h244v-75h-241z" />
<glyph unicode="&#xa4;" horiz-adv-x="961" d="M684 851l-1 -1q-22 31 -53 53l1 1l-24 14q-60 32 -126 32t-126 -32t-92 -92t-32 -126t32 -126t92 -92t126 -32t126 32l24 14l-1 1q32 22 53 53l1 -1q8 12 15 25q32 60 32 126t-32 126q-7 13 -15 25zM738 495l123 -122l-53 -53l-123 122q-19 -14 -40 -25q-78 -42 -164 -42 t-164 42q-22 11 -41 26l-123 -123l-53 53l123 123q-14 19 -25 40q-42 78 -42 164t42 164q11 21 25 40l-122 123l53 53l122 -123q19 15 41 27q78 41 164 41t164 -41q21 -12 40 -26l122 122l53 -53l-122 -122q15 -19 27 -41q41 -78 41 -164t-41 -164q-12 -22 -27 -41z" />
<glyph unicode="&#xa5;" horiz-adv-x="1652" d="M920 305v-105q0 -50 40 -105t110 -55h50v-40h-600v40h50q70 0 110 55t40 105v105h-294v75h294v110h-294v75h294v10l-407 627q-34 49 -88 103q-55 55 -125 55h-50v40h600v-40h-50q-70 0 -75 -55q-1 -7 -1 -14q0 -41 21 -79l313 -483l332 474q32 49 32 102q0 55 -70 55h-50 v40h500v-40h-50q-70 0 -140 -55q-53 -42 -85 -81l-407 -581v-78h306v-75h-306v-110h306v-75h-306z" />
<glyph unicode="&#xa6;" horiz-adv-x="275" d="M175 -300h-75v600h75v-600zM175 800h-75v600h75v-600z" />
<glyph unicode="&#xa7;" horiz-adv-x="1000" d="M348 824q-75 79 -107 144t-32 132q0 134 92 222t227 88q124 0 204 -71.5t80 -162.5q0 -42 -29 -74q-21 -22 -59 -22q-39 0 -63.5 24.5t-24.5 57.5q0 16 9 56q6 25 6 46q0 44 -33 72.5t-90 28.5q-82 0 -138.5 -54t-56.5 -132q0 -68 30 -123q50 -75 170 -157 q225 -154 309 -276q58 -88 58 -184q0 -97 -59.5 -193.5t-188.5 -170.5q78 -81 108 -141t30 -129q0 -140 -92 -227.5t-227 -87.5q-122 0 -202 73t-80 167q0 40 26.5 67t60.5 27q35 0 60 -25t25 -68q0 -29 -9 -63.5t-9 -52.5q0 -31 28 -51q44 -32 107 -32q75 0 136 55.5 t61 120.5q0 66 -35 128q-53 80 -195 181q-211 149 -288 263q-57 86 -57 183q0 98 60.5 193t187.5 168zM389 773q-163 -92 -163 -224q0 -71 40 -130q56 -82 212 -193q76 -54 132 -103q166 94 166 223q0 66 -48 137t-196 179q-88 64 -143 111z" />
<glyph unicode="&#xa8;" horiz-adv-x="770" d="M210 1335q29 0 55.5 -14t40.5 -40.5t14 -55.5t-14 -55.5t-40.5 -40.5t-55.5 -14t-55.5 14t-40.5 40.5t-14 55.5t14 55.5t40.5 40.5t55.5 14zM560 1335q29 0 55.5 -14t40.5 -40.5t14 -55.5t-14 -55.5t-40.5 -40.5t-55.5 -14t-55.5 14t-40.5 40.5t-14 55.5t14 55.5 t40.5 40.5t55.5 14z" />
<glyph unicode="&#xa9;" horiz-adv-x="1600" d="M800 1410q185 0 355.5 -92t262.5 -262.5t92 -355.5q0 -186 -92 -356t-262.5 -262t-355.5 -92t-355.5 92t-262.5 262t-92 356q0 185 92 355.5t262.5 262.5t355.5 92zM482 1253q-153 -82 -235 -234.5t-82 -318.5q0 -167 82 -319t235 -234t318 -82q166 0 318.5 82t234.5 234 t82 319q0 166 -82 318.5t-234.5 234.5t-318.5 82q-165 0 -318 -82zM849.981 1085.97q-142.194 0 -221.091 -116.095q-78.8965 -116.096 -78.8965 -249.891q0 -131.395 78.8965 -248.689t221.091 -117.295q161.394 0 253.79 98.3955l14.999 -20.999l-13.1992 -14.3994 q-116.396 -122.995 -255.59 -122.995q-187.192 0 -303.587 122.695q-116.396 122.695 -116.396 303.287q0 179.993 115.195 302.988t304.787 122.995q59.998 0 110.996 -23.3994q50.9971 -23.3984 68.9971 -23.3984q17.999 0 32.0986 15.8984 q14.0996 15.8994 14.0996 30.8994h22.1982v-269.989h-22.1982q0 47.998 -32.0986 98.9961q-32.0996 50.998 -84.5967 80.9961q-52.498 29.999 -109.496 29.999z" />
<glyph unicode="&#x1d43;" horiz-adv-x="606" d="M324 1134v74q0 35 -18.5 64.5t-43.5 29.5q-31 0 -44 -6t-26 -26q-12 -19 -12 -37v-5q0 -19 -12 -41q-11 -18 -39 -18q-9 0 -21 2q-46 8 -46 44q0 9 3 19q27 67 76.5 92t120.5 25q74 0 119.5 -44t54 -102.5t8.5 -140.5v-110q0 -54 7.5 -69.5t22.5 -15.5q12 0 14.5 1.5 t15.5 31.5h52q-22 -64 -51.5 -88.5t-78.5 -24.5q-36 0 -56.5 18t-32.5 44q-3 8 -4 8q0 -1 1 -3q-56 -42 -77 -52q-35 -15 -73 -15q-61 0 -97.5 37.5t-36.5 99.5q0 35 16 61q24 38 83 71q55 32 175 76zM325 906q-1 16 -1 35v146q-54 -21 -76 -33q-40 -22 -59 -46.5t-19 -56.5 q0 -45 22 -67.5t43 -22.5q32 0 90 45z" />
<glyph unicode="&#xaa;" horiz-adv-x="606" d="M324 1134v74q0 35 -18.5 64.5t-43.5 29.5q-31 0 -44 -6t-26 -26q-12 -19 -12 -37v-5q0 -19 -12 -41q-11 -18 -39 -18q-9 0 -21 2q-46 8 -46 44q0 9 3 19q27 67 76.5 92t120.5 25q74 0 119.5 -44t54 -102.5t8.5 -140.5v-110q0 -54 7.5 -69.5t22.5 -15.5q12 0 14.5 1.5 t15.5 31.5h52q-22 -64 -51.5 -88.5t-78.5 -24.5q-36 0 -56.5 18t-32.5 44q-3 8 -4 8q0 -1 1 -3q-56 -42 -77 -52q-35 -15 -73 -15q-61 0 -97.5 37.5t-36.5 99.5q0 35 16 61q24 38 83 71q55 32 175 76zM325 906q-1 16 -1 35v146q-54 -21 -76 -33q-40 -22 -59 -46.5t-19 -56.5 q0 -45 22 -67.5t43 -22.5q32 0 90 45z" />
<glyph unicode="&#xab;" horiz-adv-x="750" d="M50 450l350 350h50l-250 -350l250 -350h-50zM300 450l350 350h50l-250 -350l250 -350h-50z" />
<glyph unicode="&#xac;" horiz-adv-x="1200" d="M100 663v75h1000v-325h-150v250h-850z" />
<glyph unicode="&#x2011;" horiz-adv-x="700" d="M100 375v150h500v-150h-500z" />
<glyph unicode="&#x2010;" horiz-adv-x="700" d="M100 375v150h500v-150h-500z" />
<glyph unicode="&#xad;" horiz-adv-x="700" d="M100 375v150h500v-150h-500z" />
<glyph unicode="&#xae;" horiz-adv-x="1600" d="M800 1410q185 0 355.5 -92t262.5 -262.5t92 -355.5q0 -186 -92 -356t-262.5 -262t-355.5 -92t-355.5 92t-262.5 262t-92 356q0 185 92 355.5t262.5 262.5t355.5 92zM482 1253q-153 -82 -235 -234.5t-82 -318.5q0 -167 82 -319t235 -234t318 -82q166 0 318.5 82t234.5 234 t82 319q0 166 -82 318.5t-234.5 234.5t-318.5 82q-165 0 -318 -82zM629.989 1061.97v-293.988q71.9971 -17.999 146.994 -17.999t143.994 37.499q68.9971 37.498 68.9971 127.494q0 89.9971 -68.9971 127.495q-68.9971 37.499 -143.994 37.499t-146.994 -18z M799.782 689.984h-169.793v-269.989q0 -29.999 23.999 -62.9971q23.999 -32.999 65.9971 -32.999h29.999v-23.999h-359.985v23.999h29.999q41.998 0 65.9971 32.999q23.999 32.998 23.999 62.9971v599.976q0 29.999 -23.999 62.9971q-23.999 32.999 -65.9971 32.999h-29.999 v23.999h401.983q149.994 0 233.99 -55.498q83.9971 -55.4971 83.9971 -169.493q0 -113.995 -74.9971 -169.192q-39.5986 -29.3994 -104.396 -43.1982l166.793 -289.188q17.3994 -26.999 48.5977 -56.3975q34.7988 -32.999 76.7969 -32.999h29.999v-23.999h-359.985v23.999 h29.999q41.998 0 44.998 32.999q0.599609 5.39941 0.599609 10.7988q0 25.7988 -11.999 49.7988z" />
<glyph unicode="&#x2c9;" horiz-adv-x="778" d="M678 1300v-150h-578v150h578z" />
<glyph unicode="&#xaf;" horiz-adv-x="778" d="M678 1300v-150h-578v150h578z" />
<glyph unicode="&#xb0;" horiz-adv-x="700" d="M350 1410q66 0 126 -32t92 -92t32 -126t-32 -126t-92 -92t-126 -32t-126 32t-92 92t-32 126t32 126t92 92t126 32zM274 1291q-36 -19 -55 -55t-19 -76t19 -76t55 -55t76 -19t76 19t55 55t19 76t-19 76t-55 55t-76 19t-76 -19z" />
<glyph unicode="&#xb1;" horiz-adv-x="1200" d="M563 763h-463v75h463v462h75v-462h462v-75h-462v-463h-75v463zM100 112v75h1000v-75h-1000z" />
<glyph unicode="&#xb2;" horiz-adv-x="600" d="M584 962l-61 -167h-508v38q212 194 298.5 316t86.5 225q0 84 -45 130.5t-101 46.5q-52 0 -96.5 -38t-68.5 -111h-51q15 115 80 182t168 67q108 0 177 -71.5t69 -162.5q0 -61 -28 -122q-45 -98 -145 -207q-150 -164 -182 -193h193q63 0 85.5 4.5t41 17.5t36.5 45h51z" />
<glyph unicode="&#xb3;" horiz-adv-x="600" d="M423 1025q0 48 -20 91t-55 63.5t-154 20.5v41q80 0 125 28t62.5 69t17.5 86q0 51 -17.5 86t-46.5 54.5t-57 19.5q-31 0 -68.5 -14.5t-99.5 -101.5l-40 40q50 89 99.5 116t108.5 27q65 0 123.5 -30t88 -83t29.5 -114q0 -55 -29.5 -108t-91.5 -85q3 -1 16 -7q63 -31 96 -86 t33 -113q0 -63 -33 -118.5t-97.5 -86.5t-134.5 -31q-78 0 -139.5 40.5t-81.5 97.5l42 25q10 -23 12 -29q20 -38 66.5 -62t100.5 -24q34 0 66 21.5t55.5 66t23.5 100.5z" />
<glyph unicode="&#x1ffd;" horiz-adv-x="600" d="M500 1400l-350 -350h-50l178 350h222z" />
<glyph unicode="&#x384;" horiz-adv-x="600" d="M500 1400l-350 -350h-50l178 350h222z" />
<glyph unicode="&#x2ca;" horiz-adv-x="600" d="M500 1400l-350 -350h-50l178 350h222z" />
<glyph unicode="&#xb4;" horiz-adv-x="600" d="M500 1400l-350 -350h-50l178 350h222z" />
<glyph unicode="&#xb5;" horiz-adv-x="1190" d="M220 730q0 50 -25 90t-95 40h-50v40h320v-460q0 -97 13.5 -188t61 -139t124.5 -48q79 0 141.5 53t91 149t28.5 193v270q0 50 -25 90t-95 40h-50v40h320v-610q0 -100 10 -135t50 -35t87 18l13 -38l-260 -110h-50v156q-21 -28 -45 -53q-98 -103 -216 -103q-116 0 -199 58 q-28 19 -50 44v-92q0 -220 30 -280t30 -110t-30 -80t-80 -30t-80 30t-30 80t30 110t30 280v730z" />
<glyph unicode="&#xb6;" horiz-adv-x="1025" d="M475 650q-99 0 -189 48t-138 138t-48 189t48 189t138 138t189 48h450v-1700h-100v1600h-200v-1600h-100v950h-50z" />
<glyph unicode="&#x2e31;" horiz-adv-x="420" d="M210 810q29 0 55.5 -14t40.5 -40.5t14 -55.5t-14 -55.5t-40.5 -40.5t-55.5 -14t-55.5 14t-40.5 40.5t-14 55.5t14 55.5t40.5 40.5t55.5 14z" />
<glyph unicode="&#x22c5;" horiz-adv-x="420" d="M210 810q29 0 55.5 -14t40.5 -40.5t14 -55.5t-14 -55.5t-40.5 -40.5t-55.5 -14t-55.5 14t-40.5 40.5t-14 55.5t14 55.5t40.5 40.5t55.5 14z" />
<glyph unicode="&#x387;" horiz-adv-x="420" d="M210 810q29 0 55.5 -14t40.5 -40.5t14 -55.5t-14 -55.5t-40.5 -40.5t-55.5 -14t-55.5 14t-40.5 40.5t-14 55.5t14 55.5t40.5 40.5t55.5 14z" />
<glyph unicode="&#xb7;" horiz-adv-x="420" d="M210 810q29 0 55.5 -14t40.5 -40.5t14 -55.5t-14 -55.5t-40.5 -40.5t-55.5 -14t-55.5 14t-40.5 40.5t-14 55.5t14 55.5t40.5 40.5t55.5 14z" />
<glyph unicode="&#xb8;" horiz-adv-x="549" d="M264 6h80l-80 -109q93 0 139 -26t46 -90q0 -72 -60 -126.5t-155 -54.5q-57 0 -134 17v43q58 -14 88 -14q51 0 86 33.5t35 76.5q0 40 -48 57t-82 17q-10 0 -26 -2z" />
<glyph unicode="&#xb9;" horiz-adv-x="600" d="M275 902v463h-171v55q172 0 217 231h74v-749q0 -31 13 -52t44 -21h45v-34h-324v34h45q31 0 44 21t13 52z" />
<glyph unicode="&#x1d52;" horiz-adv-x="631" d="M315 1351q72 0 136.5 -37t97 -103t32.5 -141t-32.5 -141t-97 -103t-136.5 -37q-71 0 -135.5 37t-97 103t-32.5 141t32.5 141t97 103t135.5 37zM246 1270q-35 -26 -55.5 -80t-20.5 -120q0 -65 20.5 -119.5t55.5 -80.5t69 -26q35 0 70 26t55.5 80.5t20.5 119.5 q0 66 -20.5 120t-55.5 80t-70 26q-34 0 -69 -26z" />
<glyph unicode="&#xba;" horiz-adv-x="631" d="M315 1351q72 0 136.5 -37t97 -103t32.5 -141t-32.5 -141t-97 -103t-136.5 -37q-71 0 -135.5 37t-97 103t-32.5 141t32.5 141t97 103t135.5 37zM246 1270q-35 -26 -55.5 -80t-20.5 -120q0 -65 20.5 -119.5t55.5 -80.5t69 -26q35 0 70 26t55.5 80.5t20.5 119.5 q0 66 -20.5 120t-55.5 80t-70 26q-34 0 -69 -26z" />
<glyph unicode="&#xbb;" horiz-adv-x="750" d="M350 100h-50l250 350l-250 350h50l350 -350zM100 100h-50l250 350l-250 350h50l350 -350z" />
<glyph unicode="&#xbc;" d="M325 902v463h-171v55q172 0 217 231h74v-749q0 -31 13 -52t44 -21h45v-34h-324v34h45q31 0 44 21t13 52zM1286 1400l-981 -1400h-91l980 1400h92zM1343 605v-540h107v-100h-107v-210h-120v210h-373v94l377 546h116zM1223 65v413l-286 -413h286z" />
<glyph unicode="&#xbd;" d="M325 902v463h-171v55q172 0 217 231h74v-749q0 -31 13 -52t44 -21h45v-34h-324v34h45q31 0 44 21t13 52zM1286 1400l-981 -1400h-91l980 1400h92zM1434 -78l-61 -167h-508v38q212 194 298.5 316t86.5 225q0 84 -45 130.5t-101 46.5q-52 0 -96.5 -38t-68.5 -111h-51 q15 115 80 182t168 67q108 0 177 -71.5t69 -162.5q0 -61 -28 -122q-45 -98 -145 -207q-150 -164 -182 -193h193q63 0 85.5 4.5t41 17.5t36.5 45h51z" />
<glyph unicode="&#xbe;" d="M473 1025q0 48 -20 91t-55 63.5t-154 20.5v41q80 0 125 28t62.5 69t17.5 86q0 51 -17.5 86t-46.5 54.5t-57 19.5q-31 0 -68.5 -14.5t-99.5 -101.5l-40 40q50 89 99.5 116t108.5 27q65 0 123.5 -30t88 -83t29.5 -114q0 -55 -29.5 -108t-91.5 -85q3 -1 16 -7q63 -31 96 -86 t33 -113q0 -63 -33 -118.5t-97.5 -86.5t-134.5 -31q-78 0 -139.5 40.5t-81.5 97.5l42 25q10 -23 12 -29q20 -38 66.5 -62t100.5 -24q34 0 66 21.5t55.5 66t23.5 100.5zM1343 605v-540h107v-100h-107v-210h-120v210h-373v94l377 546h116zM1223 65v413l-286 -413h286z M1286 1400l-981 -1400h-91l980 1400h92z" />
<glyph unicode="&#xbf;" horiz-adv-x="900" d="M450 680q-29 0 -55.5 14t-40.5 40.5t-14 55.5t14 55.5t40.5 40.5t55.5 14t55.5 -14t40.5 -40.5t14 -55.5t-14 -55.5t-40.5 -40.5t-55.5 -14zM435 500h59q-6 -118 -29.5 -195.5t-96.5 -214.5l-88 -163q-30 -57 -30 -115q0 -129 77.5 -199.5t170.5 -70.5q83 0 130.5 38.5 t47.5 83.5q0 35 -28.5 85.5t-28.5 76.5q0 34 22 57t53 23q40 0 73 -39t33 -108q0 -106 -92.5 -187.5t-250.5 -81.5q-196 0 -288 112q-69 83 -69 193q0 69 31 141t118 169q138 154 159 218.5t27 176.5z" />
<glyph unicode="&#xc0;" horiz-adv-x="1579" d="M471 480l-117 -289q-5 -18 -5 -37q0 -29 11 -59q20 -55 90 -55h50v-40h-500v40h50q70 0 125 55q51 51 72 98l488 1207h108l487 -1205q22 -48 74 -100q55 -55 125 -55h50v-40h-600v40h50q70 0 86 55q7 25 7 50q0 23 -6 45l-117 290h-528zM958 580l-223 553l-224 -553h447z M712 1900l178 -350h-50l-350 350h222z" />
<glyph unicode="&#xc1;" horiz-adv-x="1579" d="M471 480l-117 -289q-5 -18 -5 -37q0 -29 11 -59q20 -55 90 -55h50v-40h-500v40h50q70 0 125 55q51 51 72 98l488 1207h108l487 -1205q22 -48 74 -100q55 -55 125 -55h50v-40h-600v40h50q70 0 86 55q7 25 7 50q0 23 -6 45l-117 290h-528zM958 580l-223 553l-224 -553h447z M1070 1900l-350 -350h-50l178 350h222z" />
<glyph unicode="&#xc2;" horiz-adv-x="1579" d="M471 480l-117 -289q-5 -18 -5 -37q0 -29 11 -59q20 -55 90 -55h50v-40h-500v40h50q70 0 125 55q51 51 72 98l488 1207h108l487 -1205q22 -48 74 -100q55 -55 125 -55h50v-40h-600v40h50q70 0 86 55q7 25 7 50q0 23 -6 45l-117 290h-528zM958 580l-223 553l-224 -553h447z M890 1900l178 -350h-50l-239 239l-239 -239h-50l178 350h222z" />
<glyph unicode="&#xc3;" horiz-adv-x="1579" d="M471 480l-117 -289q-5 -18 -5 -37q0 -29 11 -59q20 -55 90 -55h50v-40h-500v40h50q70 0 125 55q51 51 72 98l488 1207h108l487 -1205q22 -48 74 -100q55 -55 125 -55h50v-40h-600v40h50q70 0 86 55q7 25 7 50q0 23 -6 45l-117 290h-528zM958 580l-223 553l-224 -553h447z M1084 1844h56q-3 -114 -49.5 -177.5t-125.5 -63.5q-83 0 -204.5 65.5t-167.5 65.5q-47 0 -66 -22.5t-31 -106.5h-56q3 118 48 180t125 62q76 0 200.5 -68t171.5 -68q46 0 69.5 27t29.5 106z" />
<glyph unicode="&#x4d2;" horiz-adv-x="1579" d="M471 480l-117 -289q-5 -18 -5 -37q0 -29 11 -59q20 -55 90 -55h50v-40h-500v40h50q70 0 125 55q51 51 72 98l488 1207h108l487 -1205q22 -48 74 -100q55 -55 125 -55h50v-40h-600v40h50q70 0 86 55q7 25 7 50q0 23 -6 45l-117 290h-528zM958 580l-223 553l-224 -553h447z M610 1835q29 0 55.5 -14t40.5 -40.5t14 -55.5t-14 -55.5t-40.5 -40.5t-55.5 -14t-55.5 14t-40.5 40.5t-14 55.5t14 55.5t40.5 40.5t55.5 14zM960 1835q29 0 55.5 -14t40.5 -40.5t14 -55.5t-14 -55.5t-40.5 -40.5t-55.5 -14t-55.5 14t-40.5 40.5t-14 55.5t14 55.5t40.5 40.5 t55.5 14z" />
<glyph unicode="&#xc4;" horiz-adv-x="1579" d="M471 480l-117 -289q-5 -18 -5 -37q0 -29 11 -59q20 -55 90 -55h50v-40h-500v40h50q70 0 125 55q51 51 72 98l488 1207h108l487 -1205q22 -48 74 -100q55 -55 125 -55h50v-40h-600v40h50q70 0 86 55q7 25 7 50q0 23 -6 45l-117 290h-528zM958 580l-223 553l-224 -553h447z M610 1835q29 0 55.5 -14t40.5 -40.5t14 -55.5t-14 -55.5t-40.5 -40.5t-55.5 -14t-55.5 14t-40.5 40.5t-14 55.5t14 55.5t40.5 40.5t55.5 14zM960 1835q29 0 55.5 -14t40.5 -40.5t14 -55.5t-14 -55.5t-40.5 -40.5t-55.5 -14t-55.5 14t-40.5 40.5t-14 55.5t14 55.5t40.5 40.5 t55.5 14z" />
<glyph unicode="&#x212b;" horiz-adv-x="1579" d="M471 480l-117 -289q-5 -18 -5 -37q0 -29 11 -59q20 -55 90 -55h50v-40h-500v40h50q70 0 125 55q51 51 72 98l488 1207h108l487 -1205q22 -48 74 -100q55 -55 125 -55h50v-40h-600v40h50q70 0 86 55q7 25 7 50q0 23 -6 45l-117 290h-528zM958 580l-223 553l-224 -553h447z M785 1900q46 0 88 -22.5t64.5 -64.5t22.5 -88t-22.5 -88t-64.5 -64.5t-88 -22.5t-88 22.5t-64.5 64.5t-22.5 88t22.5 88t64.5 64.5t88 22.5zM735 1812q-24 -13 -37 -37t-13 -50t13 -50t37 -37t50 -13t50 13t37 37t13 50t-13 50t-37 37t-50 13t-50 -13z" />
<glyph unicode="&#xc5;" horiz-adv-x="1579" d="M471 480l-117 -289q-5 -18 -5 -37q0 -29 11 -59q20 -55 90 -55h50v-40h-500v40h50q70 0 125 55q51 51 72 98l488 1207h108l487 -1205q22 -48 74 -100q55 -55 125 -55h50v-40h-600v40h50q70 0 86 55q7 25 7 50q0 23 -6 45l-117 290h-528zM958 580l-223 553l-224 -553h447z M785 1900q46 0 88 -22.5t64.5 -64.5t22.5 -88t-22.5 -88t-64.5 -64.5t-88 -22.5t-88 22.5t-64.5 64.5t-22.5 88t22.5 88t64.5 64.5t88 22.5zM735 1812q-24 -13 -37 -37t-13 -50t13 -50t37 -37t50 -13t50 13t37 37t13 50t-13 50t-37 37t-50 13t-50 -13z" />
<glyph unicode="&#x4d4;" horiz-adv-x="1907" d="M907 750v551l-257 -551h257zM754 1212q20 45 38 93q4 12 4 22q0 33 -54 33h-50v40h1015l100 -350h-40q-110 250 -210 250h-450v-550h250q50 0 105 40t55 110v50h40v-500h-40v50q0 70 -55 110t-105 40h-250v-550h450q100 0 210 250h40l-100 -350h-1000v40h50q70 0 110 55 t40 105v450h-303l-215 -461q-15 -37 -15 -76q0 -9 1 -18q5 -55 75 -55h50v-40h-500v40h50q70 0 137 55q63 52 94 99z" />
<glyph unicode="&#xc6;" horiz-adv-x="1907" d="M907 750v551l-257 -551h257zM754 1212q20 45 38 93q4 12 4 22q0 33 -54 33h-50v40h1015l100 -350h-40q-110 250 -210 250h-450v-550h250q50 0 105 40t55 110v50h40v-500h-40v50q0 70 -55 110t-105 40h-250v-550h450q100 0 210 250h40l-100 -350h-1000v40h50q70 0 110 55 t40 105v450h-303l-215 -461q-15 -37 -15 -76q0 -9 1 -18q5 -55 75 -55h50v-40h-500v40h50q70 0 137 55q63 52 94 99z" />
<glyph unicode="&#xc7;" horiz-adv-x="1248" d="M611 1q-218 37 -367 194q-194 204 -194 504q0 301 192 506t508 205q100 0 185 -39t115 -39t53.5 26.5t23.5 51.5h37v-450h-37q0 80 -53.5 165t-141 135t-182.5 50q-237 0 -368.5 -193.5t-131.5 -415.5q0 -220 131.5 -415.5t368.5 -195.5q269 0 423 164l25 -35l-22 -24 q-194 -205 -426 -205q-34 0 -67 2l-69 -95q93 0 139 -26t46 -90q0 -72 -60 -126.5t-155 -54.5q-57 0 -134 17v43q58 -14 88 -14q51 0 86 33.5t35 76.5q0 40 -48 57t-82 17q-10 0 -26 -2z" />
<glyph unicode="&#x400;" horiz-adv-x="1350" d="M250 1200q0 50 -40 105t-110 55h-50v40h1150l100 -350h-40q-110 250 -210 250h-600v-550h400q50 0 105 40t55 110v50h40v-500h-40v50q0 70 -55 110t-105 40h-400v-550h600q100 0 210 250h40l-100 -350h-1150v40h50q70 0 110 55t40 105v1000zM652 1900l178 -350h-50 l-350 350h222z" />
<glyph unicode="&#xc8;" horiz-adv-x="1350" d="M250 1200q0 50 -40 105t-110 55h-50v40h1150l100 -350h-40q-110 250 -210 250h-600v-550h400q50 0 105 40t55 110v50h40v-500h-40v50q0 70 -55 110t-105 40h-400v-550h600q100 0 210 250h40l-100 -350h-1150v40h50q70 0 110 55t40 105v1000zM652 1900l178 -350h-50 l-350 350h222z" />
<glyph unicode="&#xc9;" horiz-adv-x="1350" d="M250 1200q0 50 -40 105t-110 55h-50v40h1150l100 -350h-40q-110 250 -210 250h-600v-550h400q50 0 105 40t55 110v50h40v-500h-40v50q0 70 -55 110t-105 40h-400v-550h600q100 0 210 250h40l-100 -350h-1150v40h50q70 0 110 55t40 105v1000zM970 1900l-350 -350h-50 l178 350h222z" />
<glyph unicode="&#xca;" horiz-adv-x="1350" d="M250 1200q0 50 -40 105t-110 55h-50v40h1150l100 -350h-40q-110 250 -210 250h-600v-550h400q50 0 105 40t55 110v50h40v-500h-40v50q0 70 -55 110t-105 40h-400v-550h600q100 0 210 250h40l-100 -350h-1150v40h50q70 0 110 55t40 105v1000zM800 1900l178 -350h-50 l-239 239l-239 -239h-50l178 350h222z" />
<glyph unicode="&#x401;" horiz-adv-x="1350" d="M250 1200q0 50 -40 105t-110 55h-50v40h1150l100 -350h-40q-110 250 -210 250h-600v-550h400q50 0 105 40t55 110v50h40v-500h-40v50q0 70 -55 110t-105 40h-400v-550h600q100 0 210 250h40l-100 -350h-1150v40h50q70 0 110 55t40 105v1000zM530 1835q29 0 55.5 -14 t40.5 -40.5t14 -55.5t-14 -55.5t-40.5 -40.5t-55.5 -14t-55.5 14t-40.5 40.5t-14 55.5t14 55.5t40.5 40.5t55.5 14zM880 1835q29 0 55.5 -14t40.5 -40.5t14 -55.5t-14 -55.5t-40.5 -40.5t-55.5 -14t-55.5 14t-40.5 40.5t-14 55.5t14 55.5t40.5 40.5t55.5 14z" />
<glyph unicode="&#xcb;" horiz-adv-x="1350" d="M250 1200q0 50 -40 105t-110 55h-50v40h1150l100 -350h-40q-110 250 -210 250h-600v-550h400q50 0 105 40t55 110v50h40v-500h-40v50q0 70 -55 110t-105 40h-400v-550h600q100 0 210 250h40l-100 -350h-1150v40h50q70 0 110 55t40 105v1000zM530 1835q29 0 55.5 -14 t40.5 -40.5t14 -55.5t-14 -55.5t-40.5 -40.5t-55.5 -14t-55.5 14t-40.5 40.5t-14 55.5t14 55.5t40.5 40.5t55.5 14zM880 1835q29 0 55.5 -14t40.5 -40.5t14 -55.5t-14 -55.5t-40.5 -40.5t-55.5 -14t-55.5 14t-40.5 40.5t-14 55.5t14 55.5t40.5 40.5t55.5 14z" />
<glyph unicode="&#xcc;" horiz-adv-x="700" d="M650 1400v-40h-50q-70 0 -110 -55t-40 -105v-1000q0 -50 40 -105t110 -55h50v-40h-600v40h50q70 0 110 55t40 105v1000q0 50 -40 105t-110 55h-50v40h600zM282 1900l178 -350h-50l-350 350h222z" />
<glyph unicode="&#xcd;" horiz-adv-x="700" d="M650 1400v-40h-50q-70 0 -110 -55t-40 -105v-1000q0 -50 40 -105t110 -55h50v-40h-600v40h50q70 0 110 55t40 105v1000q0 50 -40 105t-110 55h-50v40h600zM650 1900l-350 -350h-50l178 350h222z" />
<glyph unicode="&#xce;" horiz-adv-x="700" d="M650 1400v-40h-50q-70 0 -110 -55t-40 -105v-1000q0 -50 40 -105t110 -55h50v-40h-600v40h50q70 0 110 55t40 105v1000q0 50 -40 105t-110 55h-50v40h600zM460 1900l178 -350h-50l-239 239l-239 -239h-50l178 350h222z" />
<glyph unicode="&#x407;" horiz-adv-x="700" d="M650 1400v-40h-50q-70 0 -110 -55t-40 -105v-1000q0 -50 40 -105t110 -55h50v-40h-600v40h50q70 0 110 55t40 105v1000q0 50 -40 105t-110 55h-50v40h600zM175 1835q29 0 55.5 -14t40.5 -40.5t14 -55.5t-14 -55.5t-40.5 -40.5t-55.5 -14t-55.5 14t-40.5 40.5t-14 55.5 t14 55.5t40.5 40.5t55.5 14zM525 1835q29 0 55.5 -14t40.5 -40.5t14 -55.5t-14 -55.5t-40.5 -40.5t-55.5 -14t-55.5 14t-40.5 40.5t-14 55.5t14 55.5t40.5 40.5t55.5 14z" />
<glyph unicode="&#x3aa;" horiz-adv-x="700" d="M650 1400v-40h-50q-70 0 -110 -55t-40 -105v-1000q0 -50 40 -105t110 -55h50v-40h-600v40h50q70 0 110 55t40 105v1000q0 50 -40 105t-110 55h-50v40h600zM175 1835q29 0 55.5 -14t40.5 -40.5t14 -55.5t-14 -55.5t-40.5 -40.5t-55.5 -14t-55.5 14t-40.5 40.5t-14 55.5 t14 55.5t40.5 40.5t55.5 14zM525 1835q29 0 55.5 -14t40.5 -40.5t14 -55.5t-14 -55.5t-40.5 -40.5t-55.5 -14t-55.5 14t-40.5 40.5t-14 55.5t14 55.5t40.5 40.5t55.5 14z" />
<glyph unicode="&#xcf;" horiz-adv-x="700" d="M650 1400v-40h-50q-70 0 -110 -55t-40 -105v-1000q0 -50 40 -105t110 -55h50v-40h-600v40h50q70 0 110 55t40 105v1000q0 50 -40 105t-110 55h-50v40h600zM175 1835q29 0 55.5 -14t40.5 -40.5t14 -55.5t-14 -55.5t-40.5 -40.5t-55.5 -14t-55.5 14t-40.5 40.5t-14 55.5 t14 55.5t40.5 40.5t55.5 14zM525 1835q29 0 55.5 -14t40.5 -40.5t14 -55.5t-14 -55.5t-40.5 -40.5t-55.5 -14t-55.5 14t-40.5 40.5t-14 55.5t14 55.5t40.5 40.5t55.5 14z" />
<glyph unicode="&#x189;" horiz-adv-x="1400" d="M450 650v-550h265q145 0 290 139t145 461q0 324 -145 462t-290 138h-265v-550h300v-100h-300zM250 750v450q0 50 -40 105t-110 55h-50v40h690q270 0 440 -172.5t170 -527.5q0 -353 -155 -526.5t-455 -173.5h-690v40h50q70 0 110 55t40 105v450h-200v100h200z" />
<glyph unicode="&#x110;" horiz-adv-x="1400" d="M450 650v-550h265q145 0 290 139t145 461q0 324 -145 462t-290 138h-265v-550h300v-100h-300zM250 750v450q0 50 -40 105t-110 55h-50v40h690q270 0 440 -172.5t170 -527.5q0 -353 -155 -526.5t-455 -173.5h-690v40h50q70 0 110 55t40 105v450h-200v100h200z" />
<glyph unicode="&#xd0;" horiz-adv-x="1400" d="M450 650v-550h265q145 0 290 139t145 461q0 324 -145 462t-290 138h-265v-550h300v-100h-300zM250 750v450q0 50 -40 105t-110 55h-50v40h690q270 0 440 -172.5t170 -527.5q0 -353 -155 -526.5t-455 -173.5h-690v40h50q70 0 110 55t40 105v450h-200v100h200z" />
<glyph unicode="&#xd1;" horiz-adv-x="1677" d="M412 200q0 -50 40 -105t110 -55h50v-40h-500v40h50q70 0 110 55t40 105v1007l-92 100q-50 53 -120 53h-50v40h362l915 -1091v891q0 50 -40 105t-110 55h-50v40h500v-40h-50q-70 0 -110 -55t-40 -105v-1200h-102l-913 1088v-888zM1144 1844h56q-3 -114 -49.5 -177.5 t-125.5 -63.5q-83 0 -204.5 65.5t-167.5 65.5q-47 0 -66 -22.5t-31 -106.5h-56q3 118 48 180t125 62q76 0 200.5 -68t171.5 -68q46 0 69.5 27t29.5 106z" />
<glyph unicode="&#xd2;" horiz-adv-x="1400" d="M700 1410q293 0 471.5 -205t178.5 -505q0 -301 -180 -505.5t-470 -204.5t-470 204.5t-180 505.5q0 300 178.5 505t471.5 205zM700 1310q-213 0 -331.5 -193.5t-118.5 -416.5q0 -219 118.5 -414.5t331.5 -195.5q210 0 330 195.5t120 414.5q0 223 -120 416.5t-330 193.5z M612 1900l178 -350h-50l-350 350h222z" />
<glyph unicode="&#xd3;" horiz-adv-x="1400" d="M700 1410q293 0 471.5 -205t178.5 -505q0 -301 -180 -505.5t-470 -204.5t-470 204.5t-180 505.5q0 300 178.5 505t471.5 205zM700 1310q-213 0 -331.5 -193.5t-118.5 -416.5q0 -219 118.5 -414.5t331.5 -195.5q210 0 330 195.5t120 414.5q0 223 -120 416.5t-330 193.5z M1020 1900l-350 -350h-50l178 350h222z" />
<glyph unicode="&#xd4;" horiz-adv-x="1400" d="M700 1410q293 0 471.5 -205t178.5 -505q0 -301 -180 -505.5t-470 -204.5t-470 204.5t-180 505.5q0 300 178.5 505t471.5 205zM700 1310q-213 0 -331.5 -193.5t-118.5 -416.5q0 -219 118.5 -414.5t331.5 -195.5q210 0 330 195.5t120 414.5q0 223 -120 416.5t-330 193.5z M810 1900l178 -350h-50l-239 239l-239 -239h-50l178 350h222z" />
<glyph unicode="&#xd5;" horiz-adv-x="1400" d="M700 1410q293 0 471.5 -205t178.5 -505q0 -301 -180 -505.5t-470 -204.5t-470 204.5t-180 505.5q0 300 178.5 505t471.5 205zM700 1310q-213 0 -331.5 -193.5t-118.5 -416.5q0 -219 118.5 -414.5t331.5 -195.5q210 0 330 195.5t120 414.5q0 223 -120 416.5t-330 193.5z M984 1844h56q-3 -114 -49.5 -177.5t-125.5 -63.5q-83 0 -204.5 65.5t-167.5 65.5q-47 0 -66 -22.5t-31 -106.5h-56q3 118 48 180t125 62q76 0 200.5 -68t171.5 -68q46 0 69.5 27t29.5 106z" />
<glyph unicode="&#x4e6;" horiz-adv-x="1400" d="M700 1410q293 0 471.5 -205t178.5 -505q0 -301 -180 -505.5t-470 -204.5t-470 204.5t-180 505.5q0 300 178.5 505t471.5 205zM700 1310q-213 0 -331.5 -193.5t-118.5 -416.5q0 -219 118.5 -414.5t331.5 -195.5q210 0 330 195.5t120 414.5q0 223 -120 416.5t-330 193.5z M525 1835q29 0 55.5 -14t40.5 -40.5t14 -55.5t-14 -55.5t-40.5 -40.5t-55.5 -14t-55.5 14t-40.5 40.5t-14 55.5t14 55.5t40.5 40.5t55.5 14zM875 1835q29 0 55.5 -14t40.5 -40.5t14 -55.5t-14 -55.5t-40.5 -40.5t-55.5 -14t-55.5 14t-40.5 40.5t-14 55.5t14 55.5t40.5 40.5 t55.5 14z" />
<glyph unicode="&#xd6;" horiz-adv-x="1400" d="M700 1410q293 0 471.5 -205t178.5 -505q0 -301 -180 -505.5t-470 -204.5t-470 204.5t-180 505.5q0 300 178.5 505t471.5 205zM700 1310q-213 0 -331.5 -193.5t-118.5 -416.5q0 -219 118.5 -414.5t331.5 -195.5q210 0 330 195.5t120 414.5q0 223 -120 416.5t-330 193.5z M525 1835q29 0 55.5 -14t40.5 -40.5t14 -55.5t-14 -55.5t-40.5 -40.5t-55.5 -14t-55.5 14t-40.5 40.5t-14 55.5t14 55.5t40.5 40.5t55.5 14zM875 1835q29 0 55.5 -14t40.5 -40.5t14 -55.5t-14 -55.5t-40.5 -40.5t-55.5 -14t-55.5 14t-40.5 40.5t-14 55.5t14 55.5t40.5 40.5 t55.5 14z" />
<glyph unicode="&#xd7;" horiz-adv-x="1200" d="M600 647l-327 -327l-53 53l327 327l-327 327l53 53l327 -327l327 327l53 -53l-327 -327l327 -327l-53 -53z" />
<glyph unicode="&#x2d41;" horiz-adv-x="1400" d="M421 214q109 -124 279 -124q210 0 330 195.5t120 415.5q0 212 -110 398zM979 1186q-111 124 -279 124q-213 0 -331.5 -193.5t-118.5 -415.5q0 -211 109 -400zM262 161q-17 16 -32 34q-180 204 -180 504q0 301 178.5 506t471.5 205q211 0 362 -106l67 96h122l-112 -160 q17 -17 33 -35q178 -205 178 -506q0 -300 -180 -504.5t-470 -204.5q-209 0 -361 107l-68 -97h-122z" />
<glyph unicode="&#xd8;" horiz-adv-x="1400" d="M421 214q109 -124 279 -124q210 0 330 195.5t120 415.5q0 212 -110 398zM979 1186q-111 124 -279 124q-213 0 -331.5 -193.5t-118.5 -415.5q0 -211 109 -400zM262 161q-17 16 -32 34q-180 204 -180 504q0 301 178.5 506t471.5 205q211 0 362 -106l67 96h122l-112 -160 q17 -17 33 -35q178 -205 178 -506q0 -300 -180 -504.5t-470 -204.5q-209 0 -361 107l-68 -97h-122z" />
<glyph unicode="&#xd9;" horiz-adv-x="1600" d="M1550 1400v-40h-50q-70 0 -110 -55t-40 -105v-710q0 -200 -150 -350t-350 -150q-300 0 -450 165t-150 385v660q0 50 -40 105t-110 55h-50v40h600v-40h-50q-70 0 -110 -55t-40 -105v-610q0 -220 100 -360t300 -140q150 0 275 125t125 325v660q0 50 -40 105t-110 55h-50v40 h500zM742 1900l178 -350h-50l-350 350h222z" />
<glyph unicode="&#xda;" horiz-adv-x="1600" d="M1550 1400v-40h-50q-70 0 -110 -55t-40 -105v-710q0 -200 -150 -350t-350 -150q-300 0 -450 165t-150 385v660q0 50 -40 105t-110 55h-50v40h600v-40h-50q-70 0 -110 -55t-40 -105v-610q0 -220 100 -360t300 -140q150 0 275 125t125 325v660q0 50 -40 105t-110 55h-50v40 h500zM1140 1900l-350 -350h-50l178 350h222z" />
<glyph unicode="&#xdb;" horiz-adv-x="1600" d="M1550 1400v-40h-50q-70 0 -110 -55t-40 -105v-710q0 -200 -150 -350t-350 -150q-300 0 -450 165t-150 385v660q0 50 -40 105t-110 55h-50v40h600v-40h-50q-70 0 -110 -55t-40 -105v-610q0 -220 100 -360t300 -140q150 0 275 125t125 325v660q0 50 -40 105t-110 55h-50v40 h500zM940 1900l178 -350h-50l-239 239l-239 -239h-50l178 350h222z" />
<glyph unicode="&#xdc;" horiz-adv-x="1600" d="M1550 1400v-40h-50q-70 0 -110 -55t-40 -105v-710q0 -200 -150 -350t-350 -150q-300 0 -450 165t-150 385v660q0 50 -40 105t-110 55h-50v40h600v-40h-50q-70 0 -110 -55t-40 -105v-610q0 -220 100 -360t300 -140q150 0 275 125t125 325v660q0 50 -40 105t-110 55h-50v40 h500zM640 1835q29 0 55.5 -14t40.5 -40.5t14 -55.5t-14 -55.5t-40.5 -40.5t-55.5 -14t-55.5 14t-40.5 40.5t-14 55.5t14 55.5t40.5 40.5t55.5 14zM990 1835q29 0 55.5 -14t40.5 -40.5t14 -55.5t-14 -55.5t-40.5 -40.5t-55.5 -14t-55.5 14t-40.5 40.5t-14 55.5t14 55.5 t40.5 40.5t55.5 14z" />
<glyph unicode="&#xdd;" horiz-adv-x="1652" d="M313 1202q-34 49 -88 103q-55 55 -125 55h-50v40h600v-40h-50q-70 0 -75 -55q-1 -7 -1 -14q0 -41 21 -79l313 -483l332 474q32 49 32 102q0 55 -70 55h-50v40h500v-40h-50q-70 0 -140 -55q-53 -42 -85 -81l-407 -581v-443q0 -50 40 -105t110 -55h50v-40h-600v40h50 q70 0 110 55t40 105v375zM1110 1900l-350 -350h-50l178 350h222z" />
<glyph unicode="&#x16a6;" horiz-adv-x="1300" d="M450 325v-125q0 -50 40 -105t110 -55h50v-40h-600v40h50q70 0 110 55t40 105v1000q0 50 -40 105t-110 55h-50v40h600v-40h-50q-70 0 -110 -55t-40 -105v-125h270q250 0 390 -92.5t140 -282.5t-125 -282.5t-405 -92.5h-270zM450 945v-490q120 -30 245 -30t240 62.5 t115 212.5t-115 212.5t-240 62.5t-245 -30z" />
<glyph unicode="&#x3f7;" horiz-adv-x="1300" d="M450 325v-125q0 -50 40 -105t110 -55h50v-40h-600v40h50q70 0 110 55t40 105v1000q0 50 -40 105t-110 55h-50v40h600v-40h-50q-70 0 -110 -55t-40 -105v-125h270q250 0 390 -92.5t140 -282.5t-125 -282.5t-405 -92.5h-270zM450 945v-490q120 -30 245 -30t240 62.5 t115 212.5t-115 212.5t-240 62.5t-245 -30z" />
<glyph unicode="&#xde;" horiz-adv-x="1300" d="M450 325v-125q0 -50 40 -105t110 -55h50v-40h-600v40h50q70 0 110 55t40 105v1000q0 50 -40 105t-110 55h-50v40h600v-40h-50q-70 0 -110 -55t-40 -105v-125h270q250 0 390 -92.5t140 -282.5t-125 -282.5t-405 -92.5h-270zM450 945v-490q120 -30 245 -30t240 62.5 t115 212.5t-115 212.5t-240 62.5t-245 -30z" />
<glyph unicode="&#xdf;" horiz-adv-x="1100" d="M625 775q23 9 45 26q13 9 25 22q30 32 49 81q26 67 26 146q0 80 -26 147t-74 102.5t-100 35.5t-100 -35.5t-74 -102.5t-26 -147v-1050h-320v40h50q70 0 95 40t25 90v880q0 99 45.5 184t129.5 130.5t175 45.5t175 -45.5t129.5 -130.5t45.5 -184t-45 -184q-23 -42 -55 -75 l31 -13q96 -48 147.5 -136t51.5 -192q0 -127 -45 -235.5t-129.5 -166.5t-175.5 -58q-115 0 -177.5 57.5t-62.5 123.5q0 42 21.5 64.5t57.5 22.5q39 0 60.5 -21.5t21.5 -57.5q0 -16 -4 -33q-6 -24 -6 -35q0 -18 20 -32t69 -14q52 0 100.5 48t74 139t25.5 198q0 84 -32 154.5 t-92 108.5q-19 11 -38 19q-43 18 -88 18h-25v25z" />
<glyph unicode="&#xe0;" horiz-adv-x="841" d="M506 554v126q0 57 -34 111t-93 54q-60 0 -89.5 -13t-51.5 -48q-22 -34 -22 -64q0 -2 1 -4v-5q0 -30 -17 -61q-15 -26 -52 -26q-10 0 -22 3q-56 9 -56 65q0 16 5 34q44 108 119.5 146t184.5 38q108 0 178.5 -68t84.5 -166.5t14 -235.5v-183q0 -89 15 -120t61 -31 q33 0 43 7.5t27 47.5h39q-35 -98 -78 -134.5t-111 -36.5q-46 0 -75 25.5t-50 73.5q-7 16 -12 35q-129 -97 -161 -112q-50 -22 -105 -22q-87 0 -143 58t-56 162q0 60 27 103q38 61 131 114q90 52 298 127zM508 177q-2 26 -2 58v264q-130 -51 -169 -72q-72 -39 -104.5 -81.5 t-32.5 -93.5q0 -74 41 -116.5t92 -42.5q67 0 175 84zM332 1400l178 -350h-50l-350 350h222z" />
<glyph unicode="&#xe1;" horiz-adv-x="841" d="M506 554v126q0 57 -34 111t-93 54q-60 0 -89.5 -13t-51.5 -48q-22 -34 -22 -64q0 -2 1 -4v-5q0 -30 -17 -61q-15 -26 -52 -26q-10 0 -22 3q-56 9 -56 65q0 16 5 34q44 108 119.5 146t184.5 38q108 0 178.5 -68t84.5 -166.5t14 -235.5v-183q0 -89 15 -120t61 -31 q33 0 43 7.5t27 47.5h39q-35 -98 -78 -134.5t-111 -36.5q-46 0 -75 25.5t-50 73.5q-7 16 -12 35q-129 -97 -161 -112q-50 -22 -105 -22q-87 0 -143 58t-56 162q0 60 27 103q38 61 131 114q90 52 298 127zM508 177q-2 26 -2 58v264q-130 -51 -169 -72q-72 -39 -104.5 -81.5 t-32.5 -93.5q0 -74 41 -116.5t92 -42.5q67 0 175 84zM660 1400l-350 -350h-50l178 350h222z" />
<glyph unicode="&#xe2;" horiz-adv-x="841" d="M506 554v126q0 57 -34 111t-93 54q-60 0 -89.5 -13t-51.5 -48q-22 -34 -22 -64q0 -2 1 -4v-5q0 -30 -17 -61q-15 -26 -52 -26q-10 0 -22 3q-56 9 -56 65q0 16 5 34q44 108 119.5 146t184.5 38q108 0 178.5 -68t84.5 -166.5t14 -235.5v-183q0 -89 15 -120t61 -31 q33 0 43 7.5t27 47.5h39q-35 -98 -78 -134.5t-111 -36.5q-46 0 -75 25.5t-50 73.5q-7 16 -12 35q-129 -97 -161 -112q-50 -22 -105 -22q-87 0 -143 58t-56 162q0 60 27 103q38 61 131 114q90 52 298 127zM508 177q-2 26 -2 58v264q-130 -51 -169 -72q-72 -39 -104.5 -81.5 t-32.5 -93.5q0 -74 41 -116.5t92 -42.5q67 0 175 84zM480 1400l178 -350h-50l-239 239l-239 -239h-50l178 350h222z" />
<glyph unicode="&#xe3;" horiz-adv-x="841" d="M506 554v126q0 57 -34 111t-93 54q-60 0 -89.5 -13t-51.5 -48q-22 -34 -22 -64q0 -2 1 -4v-5q0 -30 -17 -61q-15 -26 -52 -26q-10 0 -22 3q-56 9 -56 65q0 16 5 34q44 108 119.5 146t184.5 38q108 0 178.5 -68t84.5 -166.5t14 -235.5v-183q0 -89 15 -120t61 -31 q33 0 43 7.5t27 47.5h39q-35 -98 -78 -134.5t-111 -36.5q-46 0 -75 25.5t-50 73.5q-7 16 -12 35q-129 -97 -161 -112q-50 -22 -105 -22q-87 0 -143 58t-56 162q0 60 27 103q38 61 131 114q90 52 298 127zM508 177q-2 26 -2 58v264q-130 -51 -169 -72q-72 -39 -104.5 -81.5 t-32.5 -93.5q0 -74 41 -116.5t92 -42.5q67 0 175 84zM687 1344h56q-3 -114 -49.5 -177.5t-125.5 -63.5q-83 0 -204.5 65.5t-167.5 65.5q-47 0 -66 -22.5t-31 -106.5h-56q3 118 48 180t125 62q76 0 200.5 -68t171.5 -68q46 0 69.5 27t29.5 106z" />
<glyph unicode="&#x4d3;" horiz-adv-x="841" d="M506 554v126q0 57 -34 111t-93 54q-60 0 -89.5 -13t-51.5 -48q-22 -34 -22 -64q0 -2 1 -4v-5q0 -30 -17 -61q-15 -26 -52 -26q-10 0 -22 3q-56 9 -56 65q0 16 5 34q44 108 119.5 146t184.5 38q108 0 178.5 -68t84.5 -166.5t14 -235.5v-183q0 -89 15 -120t61 -31 q33 0 43 7.5t27 47.5h39q-35 -98 -78 -134.5t-111 -36.5q-46 0 -75 25.5t-50 73.5q-7 16 -12 35q-129 -97 -161 -112q-50 -22 -105 -22q-87 0 -143 58t-56 162q0 60 27 103q38 61 131 114q90 52 298 127zM508 177q-2 26 -2 58v264q-130 -51 -169 -72q-72 -39 -104.5 -81.5 t-32.5 -93.5q0 -74 41 -116.5t92 -42.5q67 0 175 84zM200 1335q29 0 55.5 -14t40.5 -40.5t14 -55.5t-14 -55.5t-40.5 -40.5t-55.5 -14t-55.5 14t-40.5 40.5t-14 55.5t14 55.5t40.5 40.5t55.5 14zM550 1335q29 0 55.5 -14t40.5 -40.5t14 -55.5t-14 -55.5t-40.5 -40.5 t-55.5 -14t-55.5 14t-40.5 40.5t-14 55.5t14 55.5t40.5 40.5t55.5 14z" />
<glyph unicode="&#xe4;" horiz-adv-x="841" d="M506 554v126q0 57 -34 111t-93 54q-60 0 -89.5 -13t-51.5 -48q-22 -34 -22 -64q0 -2 1 -4v-5q0 -30 -17 -61q-15 -26 -52 -26q-10 0 -22 3q-56 9 -56 65q0 16 5 34q44 108 119.5 146t184.5 38q108 0 178.5 -68t84.5 -166.5t14 -235.5v-183q0 -89 15 -120t61 -31 q33 0 43 7.5t27 47.5h39q-35 -98 -78 -134.5t-111 -36.5q-46 0 -75 25.5t-50 73.5q-7 16 -12 35q-129 -97 -161 -112q-50 -22 -105 -22q-87 0 -143 58t-56 162q0 60 27 103q38 61 131 114q90 52 298 127zM508 177q-2 26 -2 58v264q-130 -51 -169 -72q-72 -39 -104.5 -81.5 t-32.5 -93.5q0 -74 41 -116.5t92 -42.5q67 0 175 84zM200 1335q29 0 55.5 -14t40.5 -40.5t14 -55.5t-14 -55.5t-40.5 -40.5t-55.5 -14t-55.5 14t-40.5 40.5t-14 55.5t14 55.5t40.5 40.5t55.5 14zM550 1335q29 0 55.5 -14t40.5 -40.5t14 -55.5t-14 -55.5t-40.5 -40.5 t-55.5 -14t-55.5 14t-40.5 40.5t-14 55.5t14 55.5t40.5 40.5t55.5 14z" />
<glyph unicode="&#xe5;" horiz-adv-x="841" d="M506 554v126q0 57 -34 111t-93 54q-60 0 -89.5 -13t-51.5 -48q-22 -34 -22 -64q0 -2 1 -4v-5q0 -30 -17 -61q-15 -26 -52 -26q-10 0 -22 3q-56 9 -56 65q0 16 5 34q44 108 119.5 146t184.5 38q108 0 178.5 -68t84.5 -166.5t14 -235.5v-183q0 -89 15 -120t61 -31 q33 0 43 7.5t27 47.5h39q-35 -98 -78 -134.5t-111 -36.5q-46 0 -75 25.5t-50 73.5q-7 16 -12 35q-129 -97 -161 -112q-50 -22 -105 -22q-87 0 -143 58t-56 162q0 60 27 103q38 61 131 114q90 52 298 127zM508 177q-2 26 -2 58v264q-130 -51 -169 -72q-72 -39 -104.5 -81.5 t-32.5 -93.5q0 -74 41 -116.5t92 -42.5q67 0 175 84zM385 1400q46 0 88 -22.5t64.5 -64.5t22.5 -88t-22.5 -88t-64.5 -64.5t-88 -22.5t-88 22.5t-64.5 64.5t-22.5 88t22.5 88t64.5 64.5t88 22.5zM335 1312q-24 -13 -37 -37t-13 -50t13 -50t37 -37t50 -13t50 13t37 37t13 50 t-13 50t-37 37t-50 13t-50 -13z" />
<glyph unicode="&#x4d5;" horiz-adv-x="1376" d="M546 206q-40 88 -40 189v104q-130 -51 -169 -72q-72 -39 -104.5 -81.5t-32.5 -93.5q0 -74 41 -116.5t92 -42.5q67 0 213 113zM1149 545q-10 53 -31 104q-39 90 -91.5 138t-111.5 48q-57 0 -109.5 -48t-90.5 -138q-22 -51 -32 -104h466zM731.5 26q-94.5 36 -163.5 139 q-182 -138 -214 -153q-50 -22 -105 -22q-87 0 -143 58t-56 162q0 60 27 103q38 61 131 114q90 52 298 127v126q0 57 -34 111t-93 54q-60 0 -89.5 -13t-51.5 -48q-22 -34 -22 -64q0 -2 1 -4v-5q0 -30 -17 -61q-15 -26 -52 -26q-10 0 -22 3q-56 9 -56 65q0 16 5 34 q44 108 119.5 146t184.5 38q108 0 179 -68q37 -36 58 -80q48 54 115 90q88 58 184 58q98 0 196.5 -58t156.5 -166q56 -104 58 -216h-650v-30q0 -97 38.5 -188t91 -139t139.5 -48q89 0 171 49.5t129 121.5l29 -16q-47 -97 -134 -163q-61 -63 -196 -67q-118 0 -212.5 36z" />
<glyph unicode="&#xe6;" horiz-adv-x="1376" d="M546 206q-40 88 -40 189v104q-130 -51 -169 -72q-72 -39 -104.5 -81.5t-32.5 -93.5q0 -74 41 -116.5t92 -42.5q67 0 213 113zM1149 545q-10 53 -31 104q-39 90 -91.5 138t-111.5 48q-57 0 -109.5 -48t-90.5 -138q-22 -51 -32 -104h466zM731.5 26q-94.5 36 -163.5 139 q-182 -138 -214 -153q-50 -22 -105 -22q-87 0 -143 58t-56 162q0 60 27 103q38 61 131 114q90 52 298 127v126q0 57 -34 111t-93 54q-60 0 -89.5 -13t-51.5 -48q-22 -34 -22 -64q0 -2 1 -4v-5q0 -30 -17 -61q-15 -26 -52 -26q-10 0 -22 3q-56 9 -56 65q0 16 5 34 q44 108 119.5 146t184.5 38q108 0 179 -68q37 -36 58 -80q48 54 115 90q88 58 184 58q98 0 196.5 -58t156.5 -166q56 -104 58 -216h-650v-30q0 -97 38.5 -188t91 -139t139.5 -48q89 0 171 49.5t129 121.5l29 -16q-47 -97 -134 -163q-61 -63 -196 -67q-118 0 -212.5 36z" />
<glyph unicode="&#xe7;" horiz-adv-x="866" d="M415 -6q-80 10 -156 54q-101 58 -155 166.5t-54 235.5t54 235.5t154.5 166.5t208.5 58q109 0 204.5 -53t139.5 -161q5 -18 5 -34q0 -56 -60 -65q-14 -3 -25 -3q-40 0 -54 26q-14 24 -14 49q0 8 2 17q1 8 1 17q0 25 -12 51q-18 35 -67.5 58t-119.5 23q-69 0 -133.5 -48 t-99 -138.5t-34.5 -198.5q0 -107 34.5 -198t99 -139t133.5 -48q100 0 184.5 53t119.5 134l9 26l31 -22q-33 -115 -129 -190q-86 -68 -190 -75l-69 -94q93 0 139 -26t46 -90q0 -72 -60 -126.5t-155 -54.5q-57 0 -134 17v43q58 -14 88 -14q51 0 86 33.5t35 76.5q0 40 -48 57 t-82 17q-10 0 -26 -2z" />
<glyph unicode="&#x450;" horiz-adv-x="1000" d="M220 470v-20q0 -107 38.5 -198t101 -139t169.5 -48q109 0 201 49.5t139 121.5l29 -16q-47 -97 -134 -163.5t-235 -66.5q-146 0 -254.5 58t-166.5 166.5t-58 235.5t58 235.5t166.5 166.5t224.5 58q118 0 226.5 -58t166.5 -166q56 -104 58 -216h-730zM773 545 q-10 53 -31 104q-39 90 -101.5 138t-141.5 48q-77 0 -139.5 -48t-100.5 -138q-22 -51 -32 -104h546zM432 1400l178 -350h-50l-350 350h222z" />
<glyph unicode="&#xe8;" horiz-adv-x="1000" d="M220 470v-20q0 -107 38.5 -198t101 -139t169.5 -48q109 0 201 49.5t139 121.5l29 -16q-47 -97 -134 -163.5t-235 -66.5q-146 0 -254.5 58t-166.5 166.5t-58 235.5t58 235.5t166.5 166.5t224.5 58q118 0 226.5 -58t166.5 -166q56 -104 58 -216h-730zM773 545 q-10 53 -31 104q-39 90 -101.5 138t-141.5 48q-77 0 -139.5 -48t-100.5 -138q-22 -51 -32 -104h546zM432 1400l178 -350h-50l-350 350h222z" />
<glyph unicode="&#xe9;" horiz-adv-x="1000" d="M220 470v-20q0 -107 38.5 -198t101 -139t169.5 -48q109 0 201 49.5t139 121.5l29 -16q-47 -97 -134 -163.5t-235 -66.5q-146 0 -254.5 58t-166.5 166.5t-58 235.5t58 235.5t166.5 166.5t224.5 58q118 0 226.5 -58t166.5 -166q56 -104 58 -216h-730zM773 545 q-10 53 -31 104q-39 90 -101.5 138t-141.5 48q-77 0 -139.5 -48t-100.5 -138q-22 -51 -32 -104h546zM790 1400l-350 -350h-50l178 350h222z" />
<glyph unicode="&#xea;" horiz-adv-x="1000" d="M220 470v-20q0 -107 38.5 -198t101 -139t169.5 -48q109 0 201 49.5t139 121.5l29 -16q-47 -97 -134 -163.5t-235 -66.5q-146 0 -254.5 58t-166.5 166.5t-58 235.5t58 235.5t166.5 166.5t224.5 58q118 0 226.5 -58t166.5 -166q56 -104 58 -216h-730zM773 545 q-10 53 -31 104q-39 90 -101.5 138t-141.5 48q-77 0 -139.5 -48t-100.5 -138q-22 -51 -32 -104h546zM620 1400l178 -350h-50l-239 239l-239 -239h-50l178 350h222z" />
<glyph unicode="&#x451;" horiz-adv-x="1000" d="M220 470v-20q0 -107 38.5 -198t101 -139t169.5 -48q109 0 201 49.5t139 121.5l29 -16q-47 -97 -134 -163.5t-235 -66.5q-146 0 -254.5 58t-166.5 166.5t-58 235.5t58 235.5t166.5 166.5t224.5 58q118 0 226.5 -58t166.5 -166q56 -104 58 -216h-730zM773 545 q-10 53 -31 104q-39 90 -101.5 138t-141.5 48q-77 0 -139.5 -48t-100.5 -138q-22 -51 -32 -104h546zM320 1335q29 0 55.5 -14t40.5 -40.5t14 -55.5t-14 -55.5t-40.5 -40.5t-55.5 -14t-55.5 14t-40.5 40.5t-14 55.5t14 55.5t40.5 40.5t55.5 14zM670 1335q29 0 55.5 -14 t40.5 -40.5t14 -55.5t-14 -55.5t-40.5 -40.5t-55.5 -14t-55.5 14t-40.5 40.5t-14 55.5t14 55.5t40.5 40.5t55.5 14z" />
<glyph unicode="&#xeb;" horiz-adv-x="1000" d="M220 470v-20q0 -107 38.5 -198t101 -139t169.5 -48q109 0 201 49.5t139 121.5l29 -16q-47 -97 -134 -163.5t-235 -66.5q-146 0 -254.5 58t-166.5 166.5t-58 235.5t58 235.5t166.5 166.5t224.5 58q118 0 226.5 -58t166.5 -166q56 -104 58 -216h-730zM773 545 q-10 53 -31 104q-39 90 -101.5 138t-141.5 48q-77 0 -139.5 -48t-100.5 -138q-22 -51 -32 -104h546zM320 1335q29 0 55.5 -14t40.5 -40.5t14 -55.5t-14 -55.5t-40.5 -40.5t-55.5 -14t-55.5 14t-40.5 40.5t-14 55.5t14 55.5t40.5 40.5t55.5 14zM670 1335q29 0 55.5 -14 t40.5 -40.5t14 -55.5t-14 -55.5t-40.5 -40.5t-55.5 -14t-55.5 14t-40.5 40.5t-14 55.5t14 55.5t40.5 40.5t55.5 14z" />
<glyph unicode="&#xec;" horiz-adv-x="590" d="M370 170q0 -50 25 -90t95 -40h50v-40h-490v40h50q70 0 95 40t25 90v440q0 100 -10 135t-50 35t-87 -18l-13 38l260 110h50v-740zM232 1400l178 -350h-50l-350 350h222z" />
<glyph unicode="&#xed;" horiz-adv-x="590" d="M370 170q0 -50 25 -90t95 -40h50v-40h-490v40h50q70 0 95 40t25 90v440q0 100 -10 135t-50 35t-87 -18l-13 38l260 110h50v-740zM570 1400l-350 -350h-50l178 350h222z" />
<glyph unicode="&#xee;" horiz-adv-x="590" d="M370 170q0 -50 25 -90t95 -40h50v-40h-490v40h50q70 0 95 40t25 90v440q0 100 -10 135t-50 35t-87 -18l-13 38l260 110h50v-740zM400 1400l178 -350h-50l-239 239l-239 -239h-50l178 350h222z" />
<glyph unicode="&#x457;" horiz-adv-x="590" d="M370 170q0 -50 25 -90t95 -40h50v-40h-490v40h50q70 0 95 40t25 90v440q0 100 -10 135t-50 35t-87 -18l-13 38l260 110h50v-740zM120 1335q29 0 55.5 -14t40.5 -40.5t14 -55.5t-14 -55.5t-40.5 -40.5t-55.5 -14t-55.5 14t-40.5 40.5t-14 55.5t14 55.5t40.5 40.5t55.5 14z M470 1335q29 0 55.5 -14t40.5 -40.5t14 -55.5t-14 -55.5t-40.5 -40.5t-55.5 -14t-55.5 14t-40.5 40.5t-14 55.5t14 55.5t40.5 40.5t55.5 14z" />
<glyph unicode="&#xef;" horiz-adv-x="590" d="M370 170q0 -50 25 -90t95 -40h50v-40h-490v40h50q70 0 95 40t25 90v440q0 100 -10 135t-50 35t-87 -18l-13 38l260 110h50v-740zM120 1335q29 0 55.5 -14t40.5 -40.5t14 -55.5t-14 -55.5t-40.5 -40.5t-55.5 -14t-55.5 14t-40.5 40.5t-14 55.5t14 55.5t40.5 40.5t55.5 14z M470 1335q29 0 55.5 -14t40.5 -40.5t14 -55.5t-14 -55.5t-40.5 -40.5t-55.5 -14t-55.5 14t-40.5 40.5t-14 55.5t14 55.5t40.5 40.5t55.5 14z" />
<glyph unicode="&#xf0;" horiz-adv-x="1000" d="M732 649q-34 90 -98.5 138t-133.5 48q-70 0 -134.5 -48t-99 -138.5t-34.5 -198.5q0 -107 34.5 -198t99 -139t134.5 -48q69 0 133.5 48t99 139t34.5 198q-2 48 -5 83q-8 59 -30 116zM632 1191l41 -45q124 -144 169.5 -269t60 -227.5t14.5 -199.5q0 -127 -54 -235.5 t-154.5 -166.5t-208.5 -58q-109 0 -209.5 58t-154.5 166.5t-54 235.5t54 235.5t154.5 166.5t209.5 58q98 0 189 -47q-50 122 -142 236q-16 21 -33 40l-329 -146l-30 69l303 134q-68 65 -139 104q-120 65 -189 65v45q108 0 264 -60q94 -36 177 -104l316 140l30 -69z" />
<glyph unicode="&#xf1;" horiz-adv-x="1200" d="M370 170q0 -50 25 -90t95 -40h50v-40h-490v40h50q70 0 95 40t25 90v440q0 100 -10 135t-50 35t-87 -18l-13 38l260 110h50v-156q21 28 45 53q98 103 216 103q116 0 199.5 -58t116.5 -166.5t33 -225.5v-290q0 -50 25 -90t95 -40h50v-40h-490v40h50q70 0 95 40t25 90v290 q0 97 -13.5 188t-61 139t-124.5 48q-79 0 -141.5 -53t-91 -149t-28.5 -193v-270zM888 1344h56q-3 -114 -49.5 -177.5t-125.5 -63.5q-83 0 -204.5 65.5t-167.5 65.5q-47 0 -66 -22.5t-31 -106.5h-56q3 118 48 180t125 62q76 0 200.5 -68t171.5 -68q46 0 69.5 27t29.5 106z " />
<glyph unicode="&#x1f78;" horiz-adv-x="935" d="M467 910q109 0 209.5 -58t154.5 -166.5t54 -235.5t-54 -235.5t-154.5 -166.5t-209.5 -58q-108 0 -208.5 58t-154.5 166.5t-54 235.5t54 235.5t154.5 166.5t208.5 58zM333.5 787q-64.5 -48 -99 -138.5t-34.5 -198.5q0 -107 34.5 -198t99 -139t133.5 -48q70 0 134.5 48 t99 139t34.5 198q0 108 -34.5 198.5t-99 138.5t-134.5 48q-69 0 -133.5 -48zM392 1400l178 -350h-50l-350 350h222z" />
<glyph unicode="&#xf2;" horiz-adv-x="935" d="M467 910q109 0 209.5 -58t154.5 -166.5t54 -235.5t-54 -235.5t-154.5 -166.5t-209.5 -58q-108 0 -208.5 58t-154.5 166.5t-54 235.5t54 235.5t154.5 166.5t208.5 58zM333.5 787q-64.5 -48 -99 -138.5t-34.5 -198.5q0 -107 34.5 -198t99 -139t133.5 -48q70 0 134.5 48 t99 139t34.5 198q0 108 -34.5 198.5t-99 138.5t-134.5 48q-69 0 -133.5 -48zM392 1400l178 -350h-50l-350 350h222z" />
<glyph unicode="&#x1f79;" horiz-adv-x="935" d="M467 910q109 0 209.5 -58t154.5 -166.5t54 -235.5t-54 -235.5t-154.5 -166.5t-209.5 -58q-108 0 -208.5 58t-154.5 166.5t-54 235.5t54 235.5t154.5 166.5t208.5 58zM333.5 787q-64.5 -48 -99 -138.5t-34.5 -198.5q0 -107 34.5 -198t99 -139t133.5 -48q70 0 134.5 48 t99 139t34.5 198q0 108 -34.5 198.5t-99 138.5t-134.5 48q-69 0 -133.5 -48zM760 1400l-350 -350h-50l178 350h222z" />
<glyph unicode="&#x3cc;" horiz-adv-x="935" d="M467 910q109 0 209.5 -58t154.5 -166.5t54 -235.5t-54 -235.5t-154.5 -166.5t-209.5 -58q-108 0 -208.5 58t-154.5 166.5t-54 235.5t54 235.5t154.5 166.5t208.5 58zM333.5 787q-64.5 -48 -99 -138.5t-34.5 -198.5q0 -107 34.5 -198t99 -139t133.5 -48q70 0 134.5 48 t99 139t34.5 198q0 108 -34.5 198.5t-99 138.5t-134.5 48q-69 0 -133.5 -48zM760 1400l-350 -350h-50l178 350h222z" />
<glyph unicode="&#xf3;" horiz-adv-x="935" d="M467 910q109 0 209.5 -58t154.5 -166.5t54 -235.5t-54 -235.5t-154.5 -166.5t-209.5 -58q-108 0 -208.5 58t-154.5 166.5t-54 235.5t54 235.5t154.5 166.5t208.5 58zM333.5 787q-64.5 -48 -99 -138.5t-34.5 -198.5q0 -107 34.5 -198t99 -139t133.5 -48q70 0 134.5 48 t99 139t34.5 198q0 108 -34.5 198.5t-99 138.5t-134.5 48q-69 0 -133.5 -48zM760 1400l-350 -350h-50l178 350h222z" />
<glyph unicode="&#xf4;" horiz-adv-x="935" d="M467 910q109 0 209.5 -58t154.5 -166.5t54 -235.5t-54 -235.5t-154.5 -166.5t-209.5 -58q-108 0 -208.5 58t-154.5 166.5t-54 235.5t54 235.5t154.5 166.5t208.5 58zM333.5 787q-64.5 -48 -99 -138.5t-34.5 -198.5q0 -107 34.5 -198t99 -139t133.5 -48q70 0 134.5 48 t99 139t34.5 198q0 108 -34.5 198.5t-99 138.5t-134.5 48q-69 0 -133.5 -48zM580 1400l178 -350h-50l-239 239l-239 -239h-50l178 350h222z" />
<glyph unicode="&#xf5;" horiz-adv-x="935" d="M467 910q109 0 209.5 -58t154.5 -166.5t54 -235.5t-54 -235.5t-154.5 -166.5t-209.5 -58q-108 0 -208.5 58t-154.5 166.5t-54 235.5t54 235.5t154.5 166.5t208.5 58zM333.5 787q-64.5 -48 -99 -138.5t-34.5 -198.5q0 -107 34.5 -198t99 -139t133.5 -48q70 0 134.5 48 t99 139t34.5 198q0 108 -34.5 198.5t-99 138.5t-134.5 48q-69 0 -133.5 -48zM764 1344h56q-3 -114 -49.5 -177.5t-125.5 -63.5q-83 0 -204.5 65.5t-167.5 65.5q-47 0 -66 -22.5t-31 -106.5h-56q3 118 48 180t125 62q76 0 200.5 -68t171.5 -68q46 0 69.5 27t29.5 106z" />
<glyph unicode="&#x4e7;" horiz-adv-x="935" d="M467 910q109 0 209.5 -58t154.5 -166.5t54 -235.5t-54 -235.5t-154.5 -166.5t-209.5 -58q-108 0 -208.5 58t-154.5 166.5t-54 235.5t54 235.5t154.5 166.5t208.5 58zM333.5 787q-64.5 -48 -99 -138.5t-34.5 -198.5q0 -107 34.5 -198t99 -139t133.5 -48q70 0 134.5 48 t99 139t34.5 198q0 108 -34.5 198.5t-99 138.5t-134.5 48q-69 0 -133.5 -48zM290 1335q29 0 55.5 -14t40.5 -40.5t14 -55.5t-14 -55.5t-40.5 -40.5t-55.5 -14t-55.5 14t-40.5 40.5t-14 55.5t14 55.5t40.5 40.5t55.5 14zM640 1335q29 0 55.5 -14t40.5 -40.5t14 -55.5 t-14 -55.5t-40.5 -40.5t-55.5 -14t-55.5 14t-40.5 40.5t-14 55.5t14 55.5t40.5 40.5t55.5 14z" />
<glyph unicode="&#xf6;" horiz-adv-x="935" d="M467 910q109 0 209.5 -58t154.5 -166.5t54 -235.5t-54 -235.5t-154.5 -166.5t-209.5 -58q-108 0 -208.5 58t-154.5 166.5t-54 235.5t54 235.5t154.5 166.5t208.5 58zM333.5 787q-64.5 -48 -99 -138.5t-34.5 -198.5q0 -107 34.5 -198t99 -139t133.5 -48q70 0 134.5 48 t99 139t34.5 198q0 108 -34.5 198.5t-99 138.5t-134.5 48q-69 0 -133.5 -48zM290 1335q29 0 55.5 -14t40.5 -40.5t14 -55.5t-14 -55.5t-40.5 -40.5t-55.5 -14t-55.5 14t-40.5 40.5t-14 55.5t14 55.5t40.5 40.5t55.5 14zM640 1335q29 0 55.5 -14t40.5 -40.5t14 -55.5 t-14 -55.5t-40.5 -40.5t-55.5 -14t-55.5 14t-40.5 40.5t-14 55.5t14 55.5t40.5 40.5t55.5 14z" />
<glyph unicode="&#xf7;" horiz-adv-x="1200" d="M100 662v75h1000v-75h-1000zM600 1160q29 0 55.5 -14t40.5 -40.5t14 -55.5t-14 -55.5t-40.5 -40.5t-55.5 -14t-55.5 14t-40.5 40.5t-14 55.5t14 55.5t40.5 40.5t55.5 14zM600 460q29 0 55.5 -14t40.5 -40.5t14 -55.5t-14 -55.5t-40.5 -40.5t-55.5 -14t-55.5 14 t-40.5 40.5t-14 55.5t14 55.5t40.5 40.5t55.5 14z" />
<glyph unicode="&#xf8;" horiz-adv-x="935" d="M627 765q-12 12 -25 22q-65 48 -135 48q-69 0 -133.5 -48t-99 -138.5t-34.5 -198.5q0 -107 35 -198q5 -16 12 -30zM688 677l-380 -542q12 -12 26 -22q64 -48 133 -48q70 0 134.5 48t99 139t34.5 198q0 108 -34 199q-6 15 -13 28zM173 115q-41 43 -69 100q-54 108 -54 235 t54 235.5t154.5 166.5t208.5 58q109 0 210 -58q4 -2 8 -5l37 53h122l-81 -116q40 -42 68 -98q54 -109 54 -236t-54 -235.5t-154.5 -166.5t-209.5 -58q-108 0 -208 58q-4 2 -8 5l-37 -53h-122z" />
<glyph unicode="&#xf9;" horiz-adv-x="1190" d="M830 730q0 50 -25 90t-95 40h-50v40h320v-610q0 -100 10 -135t50 -35t87 18l13 -38l-260 -110h-50v156q-21 -28 -45 -53q-98 -103 -216 -103q-116 0 -199.5 58t-116.5 166.5t-33 225.5v290q0 50 -25 90t-95 40h-50v40h320v-460q0 -97 13.5 -188t61 -139t124.5 -48 q79 0 141.5 53t91 149t28.5 193v270zM472 1400l178 -350h-50l-350 350h222z" />
<glyph unicode="&#xfa;" horiz-adv-x="1190" d="M830 730q0 50 -25 90t-95 40h-50v40h320v-610q0 -100 10 -135t50 -35t87 18l13 -38l-260 -110h-50v156q-21 -28 -45 -53q-98 -103 -216 -103q-116 0 -199.5 58t-116.5 166.5t-33 225.5v290q0 50 -25 90t-95 40h-50v40h320v-460q0 -97 13.5 -188t61 -139t124.5 -48 q79 0 141.5 53t91 149t28.5 193v270zM890 1400l-350 -350h-50l178 350h222z" />
<glyph unicode="&#xfb;" horiz-adv-x="1190" d="M830 730q0 50 -25 90t-95 40h-50v40h320v-610q0 -100 10 -135t50 -35t87 18l13 -38l-260 -110h-50v156q-21 -28 -45 -53q-98 -103 -216 -103q-116 0 -199.5 58t-116.5 166.5t-33 225.5v290q0 50 -25 90t-95 40h-50v40h320v-460q0 -97 13.5 -188t61 -139t124.5 -48 q79 0 141.5 53t91 149t28.5 193v270zM700 1400l178 -350h-50l-239 239l-239 -239h-50l178 350h222z" />
<glyph unicode="&#xfc;" horiz-adv-x="1190" d="M830 730q0 50 -25 90t-95 40h-50v40h320v-610q0 -100 10 -135t50 -35t87 18l13 -38l-260 -110h-50v156q-21 -28 -45 -53q-98 -103 -216 -103q-116 0 -199.5 58t-116.5 166.5t-33 225.5v290q0 50 -25 90t-95 40h-50v40h320v-460q0 -97 13.5 -188t61 -139t124.5 -48 q79 0 141.5 53t91 149t28.5 193v270zM410 1335q29 0 55.5 -14t40.5 -40.5t14 -55.5t-14 -55.5t-40.5 -40.5t-55.5 -14t-55.5 14t-40.5 40.5t-14 55.5t14 55.5t40.5 40.5t55.5 14zM760 1335q29 0 55.5 -14t40.5 -40.5t14 -55.5t-14 -55.5t-40.5 -40.5t-55.5 -14t-55.5 14 t-40.5 40.5t-14 55.5t14 55.5t40.5 40.5t55.5 14z" />
<glyph unicode="&#xfd;" horiz-adv-x="1255" d="M574 0l-285 704q-21 48 -74 101q-55 55 -115 55h-50v40h526v-40h-50q-60 0 -76 -55q-8 -26 -8 -52q0 -21 6 -42l207 -511l206 509q5 18 5 37q0 29 -11 59q-20 55 -80 55h-50v40h480v-40h-50q-60 0 -115 -55q-51 -51 -72 -98l-382 -944q-54 -133 -151.5 -198t-178.5 -65 q-59 0 -97 34t-38 78q0 42 27.5 67.5t75.5 25.5q33 0 90 -22q40 -15 50 -15q30 0 65.5 32t71.5 121zM940 1400l-350 -350h-50l178 350h222z" />
<glyph unicode="&#x3f8;" horiz-adv-x="1065" d="M370 815q23 21 49 37q90 58 198 58q89 0 189.5 -58t154.5 -166.5t54 -235.5t-54 -235.5t-154.5 -166.5t-189.5 -58q-108 0 -198 13q-24 3 -49 12v-345q0 -50 25 -90t95 -40h50v-40h-490v40h50q70 0 95 40t25 90v1440q0 100 -10 135t-50 35t-87 -18l-13 38l260 110h50 v-595zM370 451v-261q69 -79 123.5 -102t123.5 -23q50 0 114.5 48t99 139t34.5 198q0 108 -34.5 198.5t-99 138.5t-114.5 48q-69 0 -123.5 -48t-88.5 -138q-35 -91 -35 -198z" />
<glyph unicode="&#xfe;" horiz-adv-x="1065" d="M370 815q23 21 49 37q90 58 198 58q89 0 189.5 -58t154.5 -166.5t54 -235.5t-54 -235.5t-154.5 -166.5t-189.5 -58q-108 0 -198 13q-24 3 -49 12v-345q0 -50 25 -90t95 -40h50v-40h-490v40h50q70 0 95 40t25 90v1440q0 100 -10 135t-50 35t-87 -18l-13 38l260 110h50 v-595zM370 451v-261q69 -79 123.5 -102t123.5 -23q50 0 114.5 48t99 139t34.5 198q0 108 -34.5 198.5t-99 138.5t-114.5 48q-69 0 -123.5 -48t-88.5 -138q-35 -91 -35 -198z" />
<glyph unicode="&#x4f1;" horiz-adv-x="1255" d="M574 0l-285 704q-21 48 -74 101q-55 55 -115 55h-50v40h526v-40h-50q-60 0 -76 -55q-8 -26 -8 -52q0 -21 6 -42l207 -511l206 509q5 18 5 37q0 29 -11 59q-20 55 -80 55h-50v40h480v-40h-50q-60 0 -115 -55q-51 -51 -72 -98l-382 -944q-54 -133 -151.5 -198t-178.5 -65 q-59 0 -97 34t-38 78q0 42 27.5 67.5t75.5 25.5q33 0 90 -22q40 -15 50 -15q30 0 65.5 32t71.5 121zM470 1335q29 0 55.5 -14t40.5 -40.5t14 -55.5t-14 -55.5t-40.5 -40.5t-55.5 -14t-55.5 14t-40.5 40.5t-14 55.5t14 55.5t40.5 40.5t55.5 14zM820 1335q29 0 55.5 -14 t40.5 -40.5t14 -55.5t-14 -55.5t-40.5 -40.5t-55.5 -14t-55.5 14t-40.5 40.5t-14 55.5t14 55.5t40.5 40.5t55.5 14z" />
<glyph unicode="&#xff;" horiz-adv-x="1255" d="M574 0l-285 704q-21 48 -74 101q-55 55 -115 55h-50v40h526v-40h-50q-60 0 -76 -55q-8 -26 -8 -52q0 -21 6 -42l207 -511l206 509q5 18 5 37q0 29 -11 59q-20 55 -80 55h-50v40h480v-40h-50q-60 0 -115 -55q-51 -51 -72 -98l-382 -944q-54 -133 -151.5 -198t-178.5 -65 q-59 0 -97 34t-38 78q0 42 27.5 67.5t75.5 25.5q33 0 90 -22q40 -15 50 -15q30 0 65.5 32t71.5 121zM470 1335q29 0 55.5 -14t40.5 -40.5t14 -55.5t-14 -55.5t-40.5 -40.5t-55.5 -14t-55.5 14t-40.5 40.5t-14 55.5t14 55.5t40.5 40.5t55.5 14zM820 1335q29 0 55.5 -14 t40.5 -40.5t14 -55.5t-14 -55.5t-40.5 -40.5t-55.5 -14t-55.5 14t-40.5 40.5t-14 55.5t14 55.5t40.5 40.5t55.5 14z" />
<glyph unicode="&#x1fb9;" horiz-adv-x="1579" d="M471 480l-117 -289q-5 -18 -5 -37q0 -29 11 -59q20 -55 90 -55h50v-40h-500v40h50q70 0 125 55q51 51 72 98l488 1207h108l487 -1205q22 -48 74 -100q55 -55 125 -55h50v-40h-600v40h50q70 0 86 55q7 25 7 50q0 23 -6 45l-117 290h-528zM958 580l-223 553l-224 -553h447z M1068 1750v-150h-578v150h578z" />
<glyph unicode="&#x100;" horiz-adv-x="1579" d="M471 480l-117 -289q-5 -18 -5 -37q0 -29 11 -59q20 -55 90 -55h50v-40h-500v40h50q70 0 125 55q51 51 72 98l488 1207h108l487 -1205q22 -48 74 -100q55 -55 125 -55h50v-40h-600v40h50q70 0 86 55q7 25 7 50q0 23 -6 45l-117 290h-528zM958 580l-223 553l-224 -553h447z M1068 1750v-150h-578v150h578z" />
<glyph unicode="&#x101;" horiz-adv-x="841" d="M506 554v126q0 57 -34 111t-93 54q-60 0 -89.5 -13t-51.5 -48q-22 -34 -22 -64q0 -2 1 -4v-5q0 -30 -17 -61q-15 -26 -52 -26q-10 0 -22 3q-56 9 -56 65q0 16 5 34q44 108 119.5 146t184.5 38q108 0 178.5 -68t84.5 -166.5t14 -235.5v-183q0 -89 15 -120t61 -31 q33 0 43 7.5t27 47.5h39q-35 -98 -78 -134.5t-111 -36.5q-46 0 -75 25.5t-50 73.5q-7 16 -12 35q-129 -97 -161 -112q-50 -22 -105 -22q-87 0 -143 58t-56 162q0 60 27 103q38 61 131 114q90 52 298 127zM508 177q-2 26 -2 58v264q-130 -51 -169 -72q-72 -39 -104.5 -81.5 t-32.5 -93.5q0 -74 41 -116.5t92 -42.5q67 0 175 84zM678 1300v-150h-578v150h578z" />
<glyph unicode="&#x1fb8;" horiz-adv-x="1579" d="M471 480l-117 -289q-5 -18 -5 -37q0 -29 11 -59q20 -55 90 -55h50v-40h-500v40h50q70 0 125 55q51 51 72 98l488 1207h108l487 -1205q22 -48 74 -100q55 -55 125 -55h50v-40h-600v40h50q70 0 86 55q7 25 7 50q0 23 -6 45l-117 290h-528zM958 580l-223 553l-224 -553h447z M609 1732q26 -36 74 -55.5t100 -19.5t100 19.5t74 55.5t26 75h64q0 -69 -34.5 -132t-97.5 -97.5t-132 -34.5t-132 34.5t-97 97.5t-34 132h63q0 -39 26 -75z" />
<glyph unicode="&#x102;" horiz-adv-x="1579" d="M471 480l-117 -289q-5 -18 -5 -37q0 -29 11 -59q20 -55 90 -55h50v-40h-500v40h50q70 0 125 55q51 51 72 98l488 1207h108l487 -1205q22 -48 74 -100q55 -55 125 -55h50v-40h-600v40h50q70 0 86 55q7 25 7 50q0 23 -6 45l-117 290h-528zM958 580l-223 553l-224 -553h447z M609 1732q26 -36 74 -55.5t100 -19.5t100 19.5t74 55.5t26 75h64q0 -69 -34.5 -132t-97.5 -97.5t-132 -34.5t-132 34.5t-97 97.5t-34 132h63q0 -39 26 -75z" />
<glyph unicode="&#x103;" horiz-adv-x="841" d="M506 554v126q0 57 -34 111t-93 54q-60 0 -89.5 -13t-51.5 -48q-22 -34 -22 -64q0 -2 1 -4v-5q0 -30 -17 -61q-15 -26 -52 -26q-10 0 -22 3q-56 9 -56 65q0 16 5 34q44 108 119.5 146t184.5 38q108 0 178.5 -68t84.5 -166.5t14 -235.5v-183q0 -89 15 -120t61 -31 q33 0 43 7.5t27 47.5h39q-35 -98 -78 -134.5t-111 -36.5q-46 0 -75 25.5t-50 73.5q-7 16 -12 35q-129 -97 -161 -112q-50 -22 -105 -22q-87 0 -143 58t-56 162q0 60 27 103q38 61 131 114q90 52 298 127zM508 177q-2 26 -2 58v264q-130 -51 -169 -72q-72 -39 -104.5 -81.5 t-32.5 -93.5q0 -74 41 -116.5t92 -42.5q67 0 175 84zM219 1282q26 -36 74 -55.5t100 -19.5t100 19.5t74 55.5t26 75h64q0 -69 -34.5 -132t-97.5 -97.5t-132 -34.5t-132 34.5t-97 97.5t-34 132h63q0 -39 26 -75z" />
<glyph unicode="&#x104;" horiz-adv-x="1579" d="M958 580l-223 553l-224 -553h447zM1164 0h-185v40h50q70 0 86 55q7 25 7 50q0 23 -6 45l-117 290h-528l-117 -289q-5 -18 -5 -37q0 -29 11 -59q20 -55 90 -55h50v-40h-500v40h50q70 0 125 55q51 51 72 98l488 1207h108l487 -1205q22 -48 74 -100q55 -55 125 -55h50v-40 h-360q-23 -48 -23 -93q0 -84 52 -132q69 -63 162 -63q77 0 139 23l31 -32q-68 -49 -122 -72.5t-129 -23.5q-109 0 -174 64t-65 140q0 53 22 107q19 49 52 82z" />
<glyph unicode="&#x105;" horiz-adv-x="841" d="M508 177q-2 26 -2 58v264q-130 -51 -169 -72q-72 -39 -104.5 -81.5t-32.5 -93.5q0 -74 41 -116.5t92 -42.5q67 0 175 84zM379 845q-60 0 -89.5 -13t-51.5 -48q-22 -34 -22 -64q0 -2 1 -4v-5q0 -30 -17 -61q-15 -26 -52 -26q-10 0 -22 3q-56 9 -56 65q0 16 5 34 q44 108 119.5 146t184.5 38q108 0 178.5 -68t84.5 -166.5t14 -235.5v-183q0 -89 15 -120t61 -31q33 0 43 7.5t27 47.5h39q-35 -98 -78 -134.5t-111 -36.5q-9 0 -17 1q-19 -43 -19 -84q0 -84 52 -132q69 -63 162 -63q77 0 139 23l31 -32q-68 -49 -122 -72.5t-129 -23.5 q-109 0 -174 64t-65 140q0 53 22 107q21 53 57 87q-4 3 -12 11q-29 25 -50 73q-7 16 -12 35q-129 -97 -161 -112q-50 -22 -105 -22q-87 0 -143 58t-56 162q0 60 27 103q38 61 131 114q90 52 298 127v126q0 57 -34 111t-93 54z" />
<glyph unicode="&#x106;" horiz-adv-x="1248" d="M750 1310q-237 0 -368.5 -193.5t-131.5 -416.5q0 -219 131.5 -414.5t368.5 -195.5q269 0 423 164l25 -35l-22 -24q-194 -205 -426 -205q-312 0 -506 204.5t-194 505.5q0 300 192 505t508 205q100 0 185 -39t115 -39t53.5 26.5t23.5 51.5h37v-450h-37q0 80 -53.5 165 t-141 135t-182.5 50zM960 1900l-350 -350h-50l178 350h222z" />
<glyph unicode="&#x107;" horiz-adv-x="866" d="M467 65q100 0 184.5 53t119.5 134l9 26l31 -22q-33 -115 -129 -190.5t-215 -75.5q-108 0 -208.5 58t-154.5 166.5t-54 235.5t54 235.5t154.5 166.5t208.5 58q109 0 204.5 -53t139.5 -161q5 -18 5 -34q0 -56 -60 -65q-14 -3 -25 -3q-40 0 -54 26q-14 24 -14 49q0 8 2 17 q1 8 1 17q0 25 -12 51q-18 35 -67.5 58t-119.5 23q-69 0 -133.5 -48t-99 -138.5t-34.5 -198.5q0 -107 34.5 -198t99 -139t133.5 -48zM710 1400l-350 -350h-50l178 350h222z" />
<glyph unicode="&#x108;" horiz-adv-x="1248" d="M750 1310q-237 0 -368.5 -193.5t-131.5 -416.5q0 -219 131.5 -414.5t368.5 -195.5q269 0 423 164l25 -35l-22 -24q-194 -205 -426 -205q-312 0 -506 204.5t-194 505.5q0 300 192 505t508 205q100 0 185 -39t115 -39t53.5 26.5t23.5 51.5h37v-450h-37q0 80 -53.5 165 t-141 135t-182.5 50zM850 1850l178 -350h-50l-239 239l-239 -239h-50l178 350h222z" />
<glyph unicode="&#x109;" horiz-adv-x="866" d="M467 65q100 0 184.5 53t119.5 134l9 26l31 -22q-33 -115 -129 -190.5t-215 -75.5q-108 0 -208.5 58t-154.5 166.5t-54 235.5t54 235.5t154.5 166.5t208.5 58q109 0 204.5 -53t139.5 -161q5 -18 5 -34q0 -56 -60 -65q-14 -3 -25 -3q-40 0 -54 26q-14 24 -14 49q0 8 2 17 q1 8 1 17q0 25 -12 51q-18 35 -67.5 58t-119.5 23q-69 0 -133.5 -48t-99 -138.5t-34.5 -198.5q0 -107 34.5 -198t99 -139t133.5 -48zM570 1400l178 -350h-50l-239 239l-239 -239h-50l178 350h222z" />
<glyph unicode="&#x10a;" horiz-adv-x="1248" d="M750 1310q-237 0 -368.5 -193.5t-131.5 -416.5q0 -219 131.5 -414.5t368.5 -195.5q269 0 423 164l25 -35l-22 -24q-194 -205 -426 -205q-312 0 -506 204.5t-194 505.5q0 300 192 505t508 205q100 0 185 -39t115 -39t53.5 26.5t23.5 51.5h37v-450h-37q0 80 -53.5 165 t-141 135t-182.5 50zM740 1785q29 0 55.5 -14t40.5 -40.5t14 -55.5t-14 -55.5t-40.5 -40.5t-55.5 -14t-55.5 14t-40.5 40.5t-14 55.5t14 55.5t40.5 40.5t55.5 14z" />
<glyph unicode="&#x10b;" horiz-adv-x="866" d="M467 65q100 0 184.5 53t119.5 134l9 26l31 -22q-33 -115 -129 -190.5t-215 -75.5q-108 0 -208.5 58t-154.5 166.5t-54 235.5t54 235.5t154.5 166.5t208.5 58q109 0 204.5 -53t139.5 -161q5 -18 5 -34q0 -56 -60 -65q-14 -3 -25 -3q-40 0 -54 26q-14 24 -14 49q0 8 2 17 q1 8 1 17q0 25 -12 51q-18 35 -67.5 58t-119.5 23q-69 0 -133.5 -48t-99 -138.5t-34.5 -198.5q0 -107 34.5 -198t99 -139t133.5 -48zM460 1335q29 0 55.5 -14t40.5 -40.5t14 -55.5t-14 -55.5t-40.5 -40.5t-55.5 -14t-55.5 14t-40.5 40.5t-14 55.5t14 55.5t40.5 40.5t55.5 14 z" />
<glyph unicode="&#x10c;" horiz-adv-x="1248" d="M750 1310q-237 0 -368.5 -193.5t-131.5 -416.5q0 -219 131.5 -414.5t368.5 -195.5q269 0 423 164l25 -35l-22 -24q-194 -205 -426 -205q-312 0 -506 204.5t-194 505.5q0 300 192 505t508 205q100 0 185 -39t115 -39t53.5 26.5t23.5 51.5h37v-450h-37q0 80 -53.5 165 t-141 135t-182.5 50zM618 1550l-178 350h50l239 -239l239 239h50l-178 -350h-222z" />
<glyph unicode="&#x10d;" horiz-adv-x="866" d="M467 65q100 0 184.5 53t119.5 134l9 26l31 -22q-33 -115 -129 -190.5t-215 -75.5q-108 0 -208.5 58t-154.5 166.5t-54 235.5t54 235.5t154.5 166.5t208.5 58q109 0 204.5 -53t139.5 -161q5 -18 5 -34q0 -56 -60 -65q-14 -3 -25 -3q-40 0 -54 26q-14 24 -14 49q0 8 2 17 q1 8 1 17q0 25 -12 51q-18 35 -67.5 58t-119.5 23q-69 0 -133.5 -48t-99 -138.5t-34.5 -198.5q0 -107 34.5 -198t99 -139t133.5 -48zM348 1050l-178 350h50l239 -239l239 239h50l-178 -350h-222z" />
<glyph unicode="&#x10e;" horiz-adv-x="1400" d="M50 0v40h50q70 0 110 55t40 105v1000q0 50 -40 105t-110 55h-50v40h690q270 0 440 -172.5t170 -527.5q0 -353 -155 -526.5t-455 -173.5h-690zM450 1300v-1200h265q145 0 290 139t145 461q0 324 -145 462t-290 138h-265zM598 1500l-178 350h50l239 -239l239 239h50 l-178 -350h-222z" />
<glyph unicode="&#x10f;" horiz-adv-x="1286" d="M467 835q-69 0 -133.5 -48t-99 -138.5t-34.5 -198.5q0 -107 34.5 -198t99 -139t133.5 -48q70 0 134.5 48t99 139t34.5 198q0 108 -34.5 198.5t-99 138.5t-134.5 48zM735 1110q0 100 -10 135t-50 35t-87 -18l-13 38l260 110h50v-1120q0 -100 10 -135t50 -35t87 18l13 -38 l-260 -110h-50v99q-27 -23 -58 -41q-101 -58 -210 -58q-108 0 -208.5 58t-154.5 166.5t-54 235.5t54 235.5t154.5 166.5t208.5 58q109 0 210 -58q31 -18 58 -41v299zM1096 1407q48 -10 89 -54q51 -58 51 -153q0 -103 -71.5 -191.5t-226.5 -139.5v44q103 34 159.5 105.5 t56.5 151.5q0 19 -9 32q-5 6 -9 8l-10 -6q-27 -14 -56 -14t-55.5 14t-40.5 40.5t-14 55.5t14 55.5t41 40.5q25 13 52 14h3q13 0 26 -3z" />
<glyph unicode="&#x111;" horiz-adv-x="1095" d="M468 835q-70 0 -134.5 -48t-99 -138.5t-34.5 -198.5q0 -107 34.5 -198t99 -139t134.5 -48q69 0 133.5 48t99 139t34.5 198q0 108 -34.5 198.5t-99 138.5t-133.5 48zM885 1000v-710q0 -100 10 -135t50 -35t87 18l13 -38l-260 -110h-50v99q-27 -23 -58 -41 q-101 -58 -209 -58q-109 0 -209.5 58t-154.5 166.5t-54 235.5t54 235.5t154.5 166.5t209.5 58q108 0 209 -58q31 -18 58 -41v189h-225v100h225q0 110 -10 145t-50 35t-87 -18l-13 38l260 110h50v-310h225v-100h-225z" />
<glyph unicode="&#x112;" horiz-adv-x="1350" d="M250 1200q0 50 -40 105t-110 55h-50v40h1150l100 -350h-40q-110 250 -210 250h-600v-550h400q50 0 105 40t55 110v50h40v-500h-40v50q0 70 -55 110t-105 40h-400v-550h600q100 0 210 250h40l-100 -350h-1150v40h50q70 0 110 55t40 105v1000zM1008 1750v-150h-578v150h578 z" />
<glyph unicode="&#x113;" horiz-adv-x="1000" d="M220 470v-20q0 -107 38.5 -198t101 -139t169.5 -48q109 0 201 49.5t139 121.5l29 -16q-47 -97 -134 -163.5t-235 -66.5q-146 0 -254.5 58t-166.5 166.5t-58 235.5t58 235.5t166.5 166.5t224.5 58q118 0 226.5 -58t166.5 -166q56 -104 58 -216h-730zM773 545 q-10 53 -31 104q-39 90 -101.5 138t-141.5 48q-77 0 -139.5 -48t-100.5 -138q-22 -51 -32 -104h546zM798 1300v-150h-578v150h578z" />
<glyph unicode="&#x114;" horiz-adv-x="1350" d="M250 1200q0 50 -40 105t-110 55h-50v40h1150l100 -350h-40q-110 250 -210 250h-600v-550h400q50 0 105 40t55 110v50h40v-500h-40v50q0 70 -55 110t-105 40h-400v-550h600q100 0 210 250h40l-100 -350h-1150v40h50q70 0 110 55t40 105v1000zM539 1732q26 -36 74 -55.5 t100 -19.5t100 19.5t74 55.5t26 75h64q0 -69 -34.5 -132t-97.5 -97.5t-132 -34.5t-132 34.5t-97 97.5t-34 132h63q0 -39 26 -75z" />
<glyph unicode="&#x115;" horiz-adv-x="1000" d="M220 470v-20q0 -107 38.5 -198t101 -139t169.5 -48q109 0 201 49.5t139 121.5l29 -16q-47 -97 -134 -163.5t-235 -66.5q-146 0 -254.5 58t-166.5 166.5t-58 235.5t58 235.5t166.5 166.5t224.5 58q118 0 226.5 -58t166.5 -166q56 -104 58 -216h-730zM773 545 q-10 53 -31 104q-39 90 -101.5 138t-141.5 48q-77 0 -139.5 -48t-100.5 -138q-22 -51 -32 -104h546zM329 1282q26 -36 74 -55.5t100 -19.5t100 19.5t74 55.5t26 75h64q0 -69 -34.5 -132t-97.5 -97.5t-132 -34.5t-132 34.5t-97 97.5t-34 132h63q0 -39 26 -75z" />
<glyph unicode="&#x116;" horiz-adv-x="1350" d="M250 1200q0 50 -40 105t-110 55h-50v40h1150l100 -350h-40q-110 250 -210 250h-600v-550h400q50 0 105 40t55 110v50h40v-500h-40v50q0 70 -55 110t-105 40h-400v-550h600q100 0 210 250h40l-100 -350h-1150v40h50q70 0 110 55t40 105v1000zM760 1785q29 0 55.5 -14 t40.5 -40.5t14 -55.5t-14 -55.5t-40.5 -40.5t-55.5 -14t-55.5 14t-40.5 40.5t-14 55.5t14 55.5t40.5 40.5t55.5 14z" />
<glyph unicode="&#x117;" horiz-adv-x="1000" d="M220 470v-20q0 -107 38.5 -198t101 -139t169.5 -48q109 0 201 49.5t139 121.5l29 -16q-47 -97 -134 -163.5t-235 -66.5q-146 0 -254.5 58t-166.5 166.5t-58 235.5t58 235.5t166.5 166.5t224.5 58q118 0 226.5 -58t166.5 -166q56 -104 58 -216h-730zM773 545 q-10 53 -31 104q-39 90 -101.5 138t-141.5 48q-77 0 -139.5 -48t-100.5 -138q-22 -51 -32 -104h546zM500 1335q29 0 55.5 -14t40.5 -40.5t14 -55.5t-14 -55.5t-40.5 -40.5t-55.5 -14t-55.5 14t-40.5 40.5t-14 55.5t14 55.5t40.5 40.5t55.5 14z" />
<glyph unicode="&#x118;" horiz-adv-x="1350" d="M874 0h-824v40h50q70 0 110 55t40 105v1000q0 50 -40 105t-110 55h-50v40h1150l100 -350h-40q-110 250 -210 250h-600v-550h400q50 0 105 40t55 110v50h40v-500h-40v50q0 70 -55 110t-105 40h-400v-550h600q100 0 210 250h40l-100 -350h-271q-23 -48 -23 -93 q0 -84 52 -132q69 -63 162 -63q77 0 139 23l31 -32q-68 -49 -122 -72.5t-129 -23.5q-109 0 -174 64t-65 140q0 53 22 107q19 49 52 82z" />
<glyph unicode="&#x119;" horiz-adv-x="1000" d="M773 545q-10 53 -31 104q-39 90 -101.5 138t-141.5 48q-77 0 -139.5 -48t-100.5 -138q-22 -51 -32 -104h546zM495 -9q-125 6 -220 57q-109 58 -167 166.5t-58 235.5t58 235.5t166.5 166.5t224.5 58q118 0 226.5 -58t166.5 -166q56 -104 58 -216h-730v-20 q0 -107 38.5 -198t101 -139t169.5 -48q109 0 201 49.5t139 121.5l29 -16q-47 -97 -134 -163q-79 -61 -209 -66q-19 -44 -19 -84q0 -84 52 -132q69 -63 162 -63q77 0 139 23l31 -32q-68 -49 -122 -72.5t-129 -23.5q-109 0 -174 64t-65 140q0 53 22 107q17 42 43 73z" />
<glyph unicode="&#x11a;" horiz-adv-x="1350" d="M250 1200q0 50 -40 105t-110 55h-50v40h1150l100 -350h-40q-110 250 -210 250h-600v-550h400q50 0 105 40t55 110v50h40v-500h-40v50q0 70 -55 110t-105 40h-400v-550h600q100 0 210 250h40l-100 -350h-1150v40h50q70 0 110 55t40 105v1000zM638 1500l-178 350h50 l239 -239l239 239h50l-178 -350h-222z" />
<glyph unicode="&#x11b;" horiz-adv-x="1000" d="M220 470v-20q0 -107 38.5 -198t101 -139t169.5 -48q109 0 201 49.5t139 121.5l29 -16q-47 -97 -134 -163.5t-235 -66.5q-146 0 -254.5 58t-166.5 166.5t-58 235.5t58 235.5t166.5 166.5t224.5 58q118 0 226.5 -58t166.5 -166q56 -104 58 -216h-730zM773 545 q-10 53 -31 104q-39 90 -101.5 138t-141.5 48q-77 0 -139.5 -48t-100.5 -138q-22 -51 -32 -104h546zM398 1050l-178 350h50l239 -239l239 239h50l-178 -350h-222z" />
<glyph unicode="&#x11c;" horiz-adv-x="1428" d="M750 1410q100 0 185 -39t115 -39t53.5 26.5t23.5 51.5h37v-450h-37q0 80 -53.5 165t-141 135t-182.5 50q-237 0 -368.5 -193.5t-131.5 -416.5q0 -219 131.5 -414.5t368.5 -195.5q126 0 228 40v320q0 50 -40 105t-110 55h-50v40h600v-40h-50q-70 0 -110 -55t-40 -105v-320 q-216 -140 -428 -140q-312 0 -506 204.5t-194 505.5q0 300 192 505t508 205zM860 1850l178 -350h-50l-239 239l-239 -239h-50l178 350h222z" />
<glyph unicode="&#x11d;" horiz-adv-x="1113" d="M288 -58q-47 -51 -71 -95t-24 -81q0 -48 58 -84q100 -62 289 -62q180 0 265.5 63.5t85.5 135.5q0 52 -51 74q-52 22 -206 26q-225 6 -346 23zM282 698.5q-32 -66.5 -32 -148.5q0 -71 32 -138t92.5 -102t125.5 -35t125.5 35t92.5 102t32 138q0 82 -32 148.5t-92.5 101.5 t-125.5 35t-125.5 -35t-92.5 -101.5zM323 235q-25 -25 -35 -44q-16 -29 -16 -49q0 -17 16.5 -33t64.5 -23q28 -4 140 -7q206 -5 267 -14q93 -13 148.5 -69t55.5 -138q0 -113 -106 -212q-156 -146 -407 -146q-193 0 -326 87q-75 50 -75 104q0 24 11 48q17 37 70 103 q7 9 102 108q-52 31 -73.5 55.5t-21.5 55.5q0 35 29 82q25 42 109 114q-80 44 -124 118q-52 84 -52 175q0 101 51.5 185.5t148 129.5t200.5 45t201 -45q79 -37 128 -101q14 8 28 17q78 52 130 129l126 -82q-57 -83 -257 -106q44 -78 44 -172q0 -91 -51.5 -175.5t-148 -129.5 t-200.5 -45q-91 0 -177 35zM610 1400l178 -350h-50l-239 239l-239 -239h-50l178 350h222z" />
<glyph unicode="&#x11e;" horiz-adv-x="1428" d="M750 1410q100 0 185 -39t115 -39t53.5 26.5t23.5 51.5h37v-450h-37q0 80 -53.5 165t-141 135t-182.5 50q-237 0 -368.5 -193.5t-131.5 -416.5q0 -219 131.5 -414.5t368.5 -195.5q126 0 228 40v320q0 50 -40 105t-110 55h-50v40h600v-40h-50q-70 0 -110 -55t-40 -105v-320 q-216 -140 -428 -140q-312 0 -506 204.5t-194 505.5q0 300 192 505t508 205zM539 1782q26 -36 74 -55.5t100 -19.5t100 19.5t74 55.5t26 75h64q0 -69 -34.5 -132t-97.5 -97.5t-132 -34.5t-132 34.5t-97 97.5t-34 132h63q0 -39 26 -75z" />
<glyph unicode="&#x11f;" horiz-adv-x="1113" d="M288 -58q-47 -51 -71 -95t-24 -81q0 -48 58 -84q100 -62 289 -62q180 0 265.5 63.5t85.5 135.5q0 52 -51 74q-52 22 -206 26q-225 6 -346 23zM282 698.5q-32 -66.5 -32 -148.5q0 -71 32 -138t92.5 -102t125.5 -35t125.5 35t92.5 102t32 138q0 82 -32 148.5t-92.5 101.5 t-125.5 35t-125.5 -35t-92.5 -101.5zM323 235q-25 -25 -35 -44q-16 -29 -16 -49q0 -17 16.5 -33t64.5 -23q28 -4 140 -7q206 -5 267 -14q93 -13 148.5 -69t55.5 -138q0 -113 -106 -212q-156 -146 -407 -146q-193 0 -326 87q-75 50 -75 104q0 24 11 48q17 37 70 103 q7 9 102 108q-52 31 -73.5 55.5t-21.5 55.5q0 35 29 82q25 42 109 114q-80 44 -124 118q-52 84 -52 175q0 101 51.5 185.5t148 129.5t200.5 45t201 -45q79 -37 128 -101q14 8 28 17q78 52 130 129l126 -82q-57 -83 -257 -106q44 -78 44 -172q0 -91 -51.5 -175.5t-148 -129.5 t-200.5 -45q-91 0 -177 35zM329 1282q26 -36 74 -55.5t100 -19.5t100 19.5t74 55.5t26 75h64q0 -69 -34.5 -132t-97.5 -97.5t-132 -34.5t-132 34.5t-97 97.5t-34 132h63q0 -39 26 -75z" />
<glyph unicode="&#x120;" horiz-adv-x="1428" d="M750 1410q100 0 185 -39t115 -39t53.5 26.5t23.5 51.5h37v-450h-37q0 80 -53.5 165t-141 135t-182.5 50q-237 0 -368.5 -193.5t-131.5 -416.5q0 -219 131.5 -414.5t368.5 -195.5q126 0 228 40v320q0 50 -40 105t-110 55h-50v40h600v-40h-50q-70 0 -110 -55t-40 -105v-320 q-216 -140 -428 -140q-312 0 -506 204.5t-194 505.5q0 300 192 505t508 205zM730 1785q29 0 55.5 -14t40.5 -40.5t14 -55.5t-14 -55.5t-40.5 -40.5t-55.5 -14t-55.5 14t-40.5 40.5t-14 55.5t14 55.5t40.5 40.5t55.5 14z" />
<glyph unicode="&#x121;" horiz-adv-x="1113" d="M288 -58q-47 -51 -71 -95t-24 -81q0 -48 58 -84q100 -62 289 -62q180 0 265.5 63.5t85.5 135.5q0 52 -51 74q-52 22 -206 26q-225 6 -346 23zM282 698.5q-32 -66.5 -32 -148.5q0 -71 32 -138t92.5 -102t125.5 -35t125.5 35t92.5 102t32 138q0 82 -32 148.5t-92.5 101.5 t-125.5 35t-125.5 -35t-92.5 -101.5zM323 235q-25 -25 -35 -44q-16 -29 -16 -49q0 -17 16.5 -33t64.5 -23q28 -4 140 -7q206 -5 267 -14q93 -13 148.5 -69t55.5 -138q0 -113 -106 -212q-156 -146 -407 -146q-193 0 -326 87q-75 50 -75 104q0 24 11 48q17 37 70 103 q7 9 102 108q-52 31 -73.5 55.5t-21.5 55.5q0 35 29 82q25 42 109 114q-80 44 -124 118q-52 84 -52 175q0 101 51.5 185.5t148 129.5t200.5 45t201 -45q79 -37 128 -101q14 8 28 17q78 52 130 129l126 -82q-57 -83 -257 -106q44 -78 44 -172q0 -91 -51.5 -175.5t-148 -129.5 t-200.5 -45q-91 0 -177 35zM510 1335q29 0 55.5 -14t40.5 -40.5t14 -55.5t-14 -55.5t-40.5 -40.5t-55.5 -14t-55.5 14t-40.5 40.5t-14 55.5t14 55.5t40.5 40.5t55.5 14z" />
<glyph unicode="&#x122;" horiz-adv-x="1428" d="M695 -8q-274 16 -451 203q-194 204 -194 504q0 291 192 496t508 205q100 0 185 -39t115 -39t53.5 26.5t23.5 51.5h37v-450h-37q0 80 -53.5 165t-141 135t-182.5 50q-237 0 -368.5 -193.5t-131.5 -405.5q0 -220 131.5 -415.5t368.5 -195.5q126 0 228 40v320q0 50 -40 105 t-110 55h-50v40h600v-40h-50q-70 0 -110 -55t-40 -105v-320q-205 -133 -405 -140l-69 -93q93 0 139 -26t46 -90q0 -72 -60 -126.5t-155 -54.5q-57 0 -134 17v43q58 -14 88 -14q51 0 86 33.5t35 76.5q0 40 -48 57t-82 17q-10 0 -26 -2z" />
<glyph unicode="&#x123;" horiz-adv-x="1113" d="M288 -58q-47 -51 -71 -95t-24 -81q0 -48 58 -84q100 -62 289 -62q180 0 265.5 63.5t85.5 135.5q0 52 -51 74q-52 22 -206 26q-225 6 -346 23zM282 698.5q-32 -66.5 -32 -148.5q0 -71 32 -138t92.5 -102t125.5 -35t125.5 35t92.5 102t32 138q0 82 -32 148.5t-92.5 101.5 t-125.5 35t-125.5 -35t-92.5 -101.5zM323 235q-25 -25 -35 -44q-16 -29 -16 -49q0 -17 16.5 -33t64.5 -23q28 -4 140 -7q206 -5 267 -14q93 -13 148.5 -69t55.5 -138q0 -113 -106 -212q-156 -146 -407 -146q-193 0 -326 87q-75 50 -75 104q0 24 11 48q17 37 70 103 q7 9 102 108q-52 31 -73.5 55.5t-21.5 55.5q0 35 29 82q25 42 109 114q-80 44 -124 118q-52 84 -52 175q0 101 51.5 185.5t148 129.5t200.5 45t201 -45q79 -37 128 -101q14 8 28 17q78 52 130 129l126 -82q-57 -83 -257 -106q44 -78 44 -172q0 -91 -51.5 -175.5t-148 -129.5 t-200.5 -45q-91 0 -177 35zM555 994h-80l80 109q-93 0 -139 26t-46 90q0 72 60 126.5t155 54.5q57 0 134 -17v-43q-58 14 -88 14q-51 0 -86 -33.5t-35 -76.5q0 -40 48 -57t82 -17q10 0 26 2z" />
<glyph unicode="&#x124;" horiz-adv-x="1550" d="M450 650v-450q0 -50 40 -105t110 -55h50v-40h-600v40h50q70 0 110 55t40 105v1000q0 50 -40 105t-110 55h-50v40h600v-40h-50q-70 0 -110 -55t-40 -105v-450h650v450q0 50 -40 105t-110 55h-50v40h600v-40h-50q-70 0 -110 -55t-40 -105v-1000q0 -50 40 -105t110 -55h50 v-40h-600v40h50q70 0 110 55t40 105v450h-650zM880 1850l178 -350h-50l-239 239l-239 -239h-50l178 350h222z" />
<glyph unicode="&#x125;" horiz-adv-x="1150" d="M320 170q0 -50 25 -90t95 -40h50v-40h-490v40h50q70 0 95 40t25 90v940q0 100 -10 135t-50 35t-87 -18l-13 38l260 110h50v-656q21 28 45 53q98 103 216 103q116 0 199.5 -58t116.5 -166.5t33 -225.5v-290q0 -50 25 -90t95 -40h50v-40h-490v40h50q70 0 95 40t25 90v290 q0 97 -13.5 188t-61 139t-124.5 48q-79 0 -141.5 -53t-91 -149t-28.5 -193v-270zM670 1850l178 -350h-50l-239 239l-239 -239h-50l178 350h222z" />
<glyph unicode="&#x126;" horiz-adv-x="1550" d="M1300 1000v-800q0 -50 40 -105t110 -55h50v-40h-600v40h50q70 0 110 55t40 105v450h-650v-450q0 -50 40 -105t110 -55h50v-40h-600v40h50q70 0 110 55t40 105v800h-200v100h200v100q0 50 -40 105t-110 55h-50v40h600v-40h-50q-70 0 -110 -55t-40 -105v-100h650v100 q0 50 -40 105t-110 55h-50v40h600v-40h-50q-70 0 -110 -55t-40 -105v-100h200v-100h-200zM450 1000v-250h650v250h-650z" />
<glyph unicode="&#x127;" horiz-adv-x="1150" d="M320 1000v-246q21 28 45 53q98 103 216 103q116 0 199.5 -58t116.5 -166.5t33 -225.5v-290q0 -50 25 -90t95 -40h50v-40h-490v40h50q70 0 95 40t25 90v290q0 97 -13.5 188t-61 139t-124.5 48q-79 0 -141.5 -53t-91 -149t-28.5 -193v-270q0 -50 25 -90t95 -40h50v-40h-490 v40h50q70 0 95 40t25 90v830h-170v100h170q0 110 -10 145t-50 35t-87 -18l-13 38l260 110h50v-310h580v-100h-580z" />
<glyph unicode="&#x128;" horiz-adv-x="700" d="M650 1400v-40h-50q-70 0 -110 -55t-40 -105v-1000q0 -50 40 -105t110 -55h50v-40h-600v40h50q70 0 110 55t40 105v1000q0 50 -40 105t-110 55h-50v40h600zM644 1794h56q-3 -114 -49.5 -177.5t-125.5 -63.5q-83 0 -204.5 65.5t-167.5 65.5q-47 0 -66 -22.5t-31 -106.5h-56 q3 118 48 180t125 62q76 0 200.5 -68t171.5 -68q46 0 69.5 27t29.5 106z" />
<glyph unicode="&#x129;" horiz-adv-x="590" d="M385 170q0 -50 25 -90t95 -40h50v-40h-490v40h50q70 0 95 40t25 90v440q0 100 -10 135t-50 35t-87 -18l-13 38l260 110h50v-740zM589 1344h56q-3 -114 -49.5 -177.5t-125.5 -63.5q-83 0 -204.5 65.5t-167.5 65.5q-47 0 -66 -22.5t-31 -106.5h-56q3 118 48 180t125 62 q76 0 200.5 -68t171.5 -68q46 0 69.5 27t29.5 106z" />
<glyph unicode="&#x1fd9;" horiz-adv-x="700" d="M650 1400v-40h-50q-70 0 -110 -55t-40 -105v-1000q0 -50 40 -105t110 -55h50v-40h-600v40h50q70 0 110 55t40 105v1000q0 50 -40 105t-110 55h-50v40h600zM638 1750v-150h-578v150h578z" />
<glyph unicode="&#x12a;" horiz-adv-x="700" d="M650 1400v-40h-50q-70 0 -110 -55t-40 -105v-1000q0 -50 40 -105t110 -55h50v-40h-600v40h50q70 0 110 55t40 105v1000q0 50 -40 105t-110 55h-50v40h600zM638 1750v-150h-578v150h578z" />
<glyph unicode="&#x12b;" horiz-adv-x="590" d="M386 170q0 -50 25 -90t95 -40h50v-40h-490v40h50q70 0 95 40t25 90v440q0 100 -10 135t-50 35t-87 -18l-13 38l260 110h50v-740zM584 1300v-150h-578v150h578z" />
<glyph unicode="&#x1fd8;" horiz-adv-x="700" d="M650 1400v-40h-50q-70 0 -110 -55t-40 -105v-1000q0 -50 40 -105t110 -55h50v-40h-600v40h50q70 0 110 55t40 105v1000q0 50 -40 105t-110 55h-50v40h600zM179 1732q26 -36 74 -55.5t100 -19.5t100 19.5t74 55.5t26 75h64q0 -69 -34.5 -132t-97.5 -97.5t-132 -34.5 t-132 34.5t-97 97.5t-34 132h63q0 -39 26 -75z" />
<glyph unicode="&#x12c;" horiz-adv-x="700" d="M650 1400v-40h-50q-70 0 -110 -55t-40 -105v-1000q0 -50 40 -105t110 -55h50v-40h-600v40h50q70 0 110 55t40 105v1000q0 50 -40 105t-110 55h-50v40h600zM179 1732q26 -36 74 -55.5t100 -19.5t100 19.5t74 55.5t26 75h64q0 -69 -34.5 -132t-97.5 -97.5t-132 -34.5 t-132 34.5t-97 97.5t-34 132h63q0 -39 26 -75z" />
<glyph unicode="&#x12d;" horiz-adv-x="590" d="M371 170q0 -50 25 -90t95 -40h50v-40h-490v40h50q70 0 95 40t25 90v440q0 100 -10 135t-50 35t-87 -18l-13 38l260 110h50v-740zM119 1282q26 -36 74 -55.5t100 -19.5t100 19.5t74 55.5t26 75h64q0 -69 -34.5 -132t-97.5 -97.5t-132 -34.5t-132 34.5t-97 97.5t-34 132h63 q0 -39 26 -75z" />
<glyph unicode="&#x12e;" horiz-adv-x="700" d="M344 0h-294v40h50q70 0 110 55t40 105v1000q0 50 -40 105t-110 55h-50v40h600v-40h-50q-70 0 -110 -55t-40 -105v-1000q0 -50 40 -105t110 -55h50v-40h-251q-23 -48 -23 -93q0 -84 52 -132q69 -63 162 -63q77 0 139 23l31 -32q-68 -49 -122 -72.5t-129 -23.5 q-109 0 -174 64t-65 140q0 53 22 107q19 49 52 82z" />
<glyph unicode="&#x12f;" horiz-adv-x="590" d="M280 1335q29 0 55.5 -14t40.5 -40.5t14 -55.5t-14 -55.5t-40.5 -40.5t-55.5 -14t-55.5 14t-40.5 40.5t-14 55.5t14 55.5t40.5 40.5t55.5 14zM274 0h-224v40h50q70 0 95 40t25 90v440q0 100 -10 135t-50 35t-87 -18l-13 38l260 110h50v-740q0 -50 25 -90t95 -40h50v-40 h-211q-23 -48 -23 -93q0 -84 52 -132q69 -63 162 -63q77 0 139 23l31 -32q-68 -49 -122 -72.5t-129 -23.5q-109 0 -174 64t-65 140q0 53 22 107q19 49 52 82z" />
<glyph unicode="&#x130;" horiz-adv-x="700" d="M650 1400v-40h-50q-70 0 -110 -55t-40 -105v-1000q0 -50 40 -105t110 -55h50v-40h-600v40h50q70 0 110 55t40 105v1000q0 50 -40 105t-110 55h-50v40h600zM350 1785q29 0 55.5 -14t40.5 -40.5t14 -55.5t-14 -55.5t-40.5 -40.5t-55.5 -14t-55.5 14t-40.5 40.5t-14 55.5 t14 55.5t40.5 40.5t55.5 14z" />
<glyph unicode="&#x131;" horiz-adv-x="590" d="M370 170q0 -50 25 -90t95 -40h50v-40h-490v40h50q70 0 95 40t25 90v440q0 100 -10 135t-50 35t-87 -18l-13 38l260 110h50v-740z" />
<glyph unicode="&#x132;" horiz-adv-x="1336" d="M650 1400v-40h-50q-70 0 -110 -55t-40 -105v-1000q0 -50 40 -105t110 -55h50v-40h-600v40h50q70 0 110 55t40 105v1000q0 50 -40 105t-110 55h-50v40h600zM1086 0q0 -167 -24 -265.5t-94.5 -166.5t-178.5 -68q-109 0 -184.5 38t-119.5 146q-5 18 -5 34q0 76 56 86 q10 2 19 2q41 0 65 -36q27 -40 27 -72v-3q-1 -1 -1 -2q0 -32 41 -79q42 -49 102 -49q59 0 78 54t19 111v1470q0 50 -40 105t-110 55h-50v40h600v-40h-50q-70 0 -110 -55t-40 -105v-1200z" />
<glyph unicode="&#x133;" horiz-adv-x="950" d="M370 170q0 -50 25 -90t95 -40h50v-40h-490v40h50q70 0 95 40t25 90v440q0 100 -10 135t-50 35t-87 -18l-13 38l260 110h50v-740zM280 1335q29 0 55.5 -14t40.5 -40.5t14 -55.5t-14 -55.5t-40.5 -40.5t-55.5 -14t-55.5 14t-40.5 40.5t-14 55.5t14 55.5t40.5 40.5t55.5 14z M780 -47q0 -235 -92.5 -349t-252.5 -114q-91 0 -135 33t-44 68t24.5 60t57.5 25q26 0 53 -13q17 -7 65.5 -50.5t81.5 -43.5q24 0 47 18.5t34 62t11 188.5v772q0 100 -10 135t-50 35t-87 -18l-13 38l260 110h50v-957zM690 1335q29 0 55.5 -14t40.5 -40.5t14 -55.5t-14 -55.5 t-40.5 -40.5t-55.5 -14t-55.5 14t-40.5 40.5t-14 55.5t14 55.5t40.5 40.5t55.5 14z" />
<glyph unicode="&#x134;" horiz-adv-x="906" d="M656 490q0 -167 -24 -265.5t-94.5 -166.5t-178.5 -68q-109 0 -184.5 38t-119.5 146q-5 18 -5 34q0 76 56 86q10 1 19 1q41 0 65 -35q27 -41 27 -72v-3q-1 -2 -1 -3q0 -32 41 -78q42 -49 102 -49q59 0 78 54t19 111v980q0 50 -40 105t-110 55h-50v40h600v-40h-50 q-70 0 -110 -55t-40 -105v-710zM665 1850l178 -350h-50l-239 239l-239 -239h-50l178 350h222z" />
<glyph unicode="&#x135;" horiz-adv-x="530" d="M360 -47q0 -235 -92.5 -349t-252.5 -114q-91 0 -135 33t-44 68t24.5 60t57.5 25q26 0 53 -13q17 -7 65.5 -50.5t81.5 -43.5q24 0 47 18.5t34 62t11 188.5v772q0 100 -10 135t-50 35t-87 -18l-13 38l260 110h50v-957zM330 1400l178 -350h-50l-239 239l-239 -239h-50 l178 350h222z" />
<glyph unicode="&#x136;" horiz-adv-x="1575" d="M967 1208q40 46 58 97q4 12 4 22q0 33 -54 33h-50v40h500v-40h-50q-70 0 -150 -55q-48 -33 -85 -65l-490 -490l550 -550q55 -50 130 -105t145 -55h50v-40h-600v40h50q45 0 45 22q0 13 -15 33q-35 48 -75 92l-421 422l-59 -59v-350q0 -50 40 -105t110 -55h50v-40h-600v40 h50q70 0 110 55t40 105v1000q0 50 -40 105t-110 55h-50v40h600v-40h-50q-70 0 -110 -55t-40 -105v-509zM754 6h80l-80 -109q93 0 139 -26t46 -90q0 -72 -60 -126.5t-155 -54.5q-57 0 -134 17v43q58 -14 88 -14q51 0 86 33.5t35 76.5q0 40 -48 57t-82 17q-10 0 -26 -2z" />
<glyph unicode="&#x137;" horiz-adv-x="1180" d="M370 345v-175q0 -50 25 -90t95 -40h50v-40h-490v40h50q70 0 95 40t25 90v940q0 100 -10 135t-50 35t-87 -18l-13 38l260 110h50v-924l222 222q40 46 58 97q5 14 5 24q0 31 -45 31h-50v40h480v-40h-50q-60 0 -140 -55q-48 -33 -85 -65l-221 -221l319 -319q55 -50 130 -105 t135 -55h50v-40h-509v40h50q36 0 36 20q0 13 -16 35q-35 48 -75 92l-226 226zM564 6h80l-80 -109q93 0 139 -26t46 -90q0 -72 -60 -126.5t-155 -54.5q-57 0 -134 17v43q58 -14 88 -14q51 0 86 33.5t35 76.5q0 40 -48 57t-82 17q-10 0 -26 -2z" />
<glyph unicode="&#x1d0b;" horiz-adv-x="1180" d="M370 345v-175q0 -50 25 -90t95 -40h50v-40h-490v40h50q70 0 95 40t25 90v560q0 50 -25 90t-95 40h-50v40h320v-414l222 222q40 46 58 97q5 14 5 24q0 31 -45 31h-50v40h480v-40h-50q-60 0 -140 -55q-48 -33 -85 -65l-221 -221l319 -319q55 -50 130 -105t135 -55h50v-40 h-509v40h50q36 0 36 20q0 13 -16 35q-35 48 -75 92l-226 226z" />
<glyph unicode="&#x138;" horiz-adv-x="1180" d="M370 345v-175q0 -50 25 -90t95 -40h50v-40h-490v40h50q70 0 95 40t25 90v560q0 50 -25 90t-95 40h-50v40h320v-414l222 222q40 46 58 97q5 14 5 24q0 31 -45 31h-50v40h480v-40h-50q-60 0 -140 -55q-48 -33 -85 -65l-221 -221l319 -319q55 -50 130 -105t135 -55h50v-40 h-509v40h50q36 0 36 20q0 13 -16 35q-35 48 -75 92l-226 226z" />
<glyph unicode="&#x139;" horiz-adv-x="1350" d="M650 1400v-40h-50q-70 0 -110 -55t-40 -105v-1100h600q100 0 210 250h40l-100 -350h-1150v40h50q70 0 110 55t40 105v1000q0 50 -40 105t-110 55h-50v40h600zM650 1850l-350 -350h-50l178 350h222z" />
<glyph unicode="&#x13a;" horiz-adv-x="590" d="M370 170q0 -50 25 -90t95 -40h50v-40h-490v40h50q70 0 95 40t25 90v940q0 100 -10 135t-50 35t-87 -18l-13 38l260 110h50v-1240zM560 1850l-350 -350h-50l178 350h222z" />
<glyph unicode="&#x13b;" horiz-adv-x="1350" d="M661 0h-611v40h50q70 0 110 55t40 105v1000q0 50 -40 105t-110 55h-50v40h600v-40h-50q-70 0 -110 -55t-40 -105v-1100h600q100 0 210 250h40l-100 -350h-459l-76 -103q93 0 139 -26t46 -90q0 -72 -60 -126.5t-155 -54.5q-57 0 -134 17v43q58 -14 88 -14q51 0 86 33.5 t35 76.5q0 40 -48 57t-82 17q-10 0 -26 -2z" />
<glyph unicode="&#x13c;" horiz-adv-x="590" d="M281 0h-231v40h50q70 0 95 40t25 90v940q0 100 -10 135t-50 35t-87 -18l-13 38l260 110h50v-1240q0 -50 25 -90t95 -40h50v-40h-179l-76 -103q93 0 139 -26t46 -90q0 -72 -60 -126.5t-155 -54.5q-57 0 -134 17v43q58 -14 88 -14q51 0 86 33.5t35 76.5q0 40 -48 57t-82 17 q-10 0 -26 -2z" />
<glyph unicode="&#x13d;" horiz-adv-x="1350" d="M650 1400v-40h-50q-70 0 -110 -55t-40 -105v-1100h600q100 0 210 250h40l-100 -350h-1150v40h50q70 0 110 55t40 105v1000q0 50 -40 105t-110 55h-50v40h600zM896 1407q48 -10 89 -54q51 -58 51 -153q0 -103 -71.5 -191.5t-226.5 -139.5v44q103 34 159.5 105.5 t56.5 151.5q0 19 -9 32q-5 6 -9 8l-10 -6q-27 -14 -56 -14t-55.5 14t-40.5 40.5t-14 55.5t14 55.5t41 40.5q25 13 52 14h3q13 0 26 -3z" />
<glyph unicode="&#x13e;" horiz-adv-x="776" d="M370 170q0 -50 25 -90t95 -40h50v-40h-490v40h50q70 0 95 40t25 90v940q0 100 -10 135t-50 35t-87 -18l-13 38l260 110h50v-1240zM586 1407q48 -10 89 -54q51 -58 51 -153q0 -103 -71.5 -191.5t-226.5 -139.5v44q103 34 159.5 105.5t56.5 151.5q0 19 -9 32q-5 6 -9 8 l-10 -6q-27 -14 -56 -14t-55.5 14t-40.5 40.5t-14 55.5t14 55.5t41 40.5q25 13 52 14h3q13 0 26 -3z" />
<glyph unicode="&#x13f;" horiz-adv-x="1350" d="M650 1400v-40h-50q-70 0 -110 -55t-40 -105v-1100h600q100 0 210 250h40l-100 -350h-1150v40h50q70 0 110 55t40 105v1000q0 50 -40 105t-110 55h-50v40h600zM830 810q29 0 55.5 -14t40.5 -40.5t14 -55.5t-14 -55.5t-40.5 -40.5t-55.5 -14t-55.5 14t-40.5 40.5t-14 55.5 t14 55.5t40.5 40.5t55.5 14z" />
<glyph unicode="&#x140;" horiz-adv-x="740" d="M370 170q0 -50 25 -90t95 -40h50v-40h-490v40h50q70 0 95 40t25 90v940q0 100 -10 135t-50 35t-87 -18l-13 38l260 110h50v-1240zM580 810q29 0 55.5 -14t40.5 -40.5t14 -55.5t-14 -55.5t-40.5 -40.5t-55.5 -14t-55.5 14t-40.5 40.5t-14 55.5t14 55.5t40.5 40.5t55.5 14z " />
<glyph unicode="&#x141;" horiz-adv-x="1350" d="M250 686v514q0 50 -40 105t-110 55h-50v40h600v-40h-50q-70 0 -110 -55t-40 -105v-399l183 106l38 -64l-221 -128v-615h600q100 0 210 250h40l-100 -350h-1150v40h50q70 0 110 55t40 105v400l-185 -107l-38 64z" />
<glyph unicode="&#x142;" horiz-adv-x="590" d="M370 701v-531q0 -50 25 -90t95 -40h50v-40h-490v40h50q70 0 95 40t25 90v444l-209 -121l-38 64l247 143v410q0 100 -10 135t-50 35t-87 -18l-13 38l260 110h50v-623l209 120l38 -64z" />
<glyph unicode="&#x143;" horiz-adv-x="1677" d="M412 200q0 -50 40 -105t110 -55h50v-40h-500v40h50q70 0 110 55t40 105v1007l-92 100q-50 53 -120 53h-50v40h362l915 -1091v891q0 50 -40 105t-110 55h-50v40h500v-40h-50q-70 0 -110 -55t-40 -105v-1200h-102l-913 1088v-888zM1100 1850l-350 -350h-50l178 350h222z " />
<glyph unicode="&#x144;" horiz-adv-x="1200" d="M370 170q0 -50 25 -90t95 -40h50v-40h-490v40h50q70 0 95 40t25 90v440q0 100 -10 135t-50 35t-87 -18l-13 38l260 110h50v-156q21 28 45 53q98 103 216 103q116 0 199.5 -58t116.5 -166.5t33 -225.5v-290q0 -50 25 -90t95 -40h50v-40h-490v40h50q70 0 95 40t25 90v290 q0 97 -13.5 188t-61 139t-124.5 48q-79 0 -141.5 -53t-91 -149t-28.5 -193v-270zM870 1400l-350 -350h-50l178 350h222z" />
<glyph unicode="&#x145;" horiz-adv-x="1677" d="M412 200q0 -50 40 -105t110 -55h50v-40h-500v40h50q70 0 110 55t40 105v1007l-92 100q-50 53 -120 53h-50v40h362l915 -1091v891q0 50 -40 105t-110 55h-50v40h500v-40h-50q-70 0 -110 -55t-40 -105v-1200h-102l-913 1088v-888zM824 6h80l-80 -109q93 0 139 -26t46 -90 q0 -72 -60 -126.5t-155 -54.5q-57 0 -134 17v43q58 -14 88 -14q51 0 86 33.5t35 76.5q0 40 -48 57t-82 17q-10 0 -26 -2z" />
<glyph unicode="&#x146;" horiz-adv-x="1200" d="M370 170q0 -50 25 -90t95 -40h50v-40h-490v40h50q70 0 95 40t25 90v440q0 100 -10 135t-50 35t-87 -18l-13 38l260 110h50v-156q21 28 45 53q98 103 216 103q116 0 199.5 -58t116.5 -166.5t33 -225.5v-290q0 -50 25 -90t95 -40h50v-40h-490v40h50q70 0 95 40t25 90v290 q0 97 -13.5 188t-61 139t-124.5 48q-79 0 -141.5 -53t-91 -149t-28.5 -193v-270zM569 6h80l-80 -109q93 0 139 -26t46 -90q0 -72 -60 -126.5t-155 -54.5q-57 0 -134 17v43q58 -14 88 -14q51 0 86 33.5t35 76.5q0 40 -48 57t-82 17q-10 0 -26 -2z" />
<glyph unicode="&#x147;" horiz-adv-x="1677" d="M412 200q0 -50 40 -105t110 -55h50v-40h-500v40h50q70 0 110 55t40 105v1007l-92 100q-50 53 -120 53h-50v40h362l915 -1091v891q0 50 -40 105t-110 55h-50v40h500v-40h-50q-70 0 -110 -55t-40 -105v-1200h-102l-913 1088v-888zM738 1500l-178 350h50l239 -239l239 239 h50l-178 -350h-222z" />
<glyph unicode="&#x148;" horiz-adv-x="1200" d="M370 170q0 -50 25 -90t95 -40h50v-40h-490v40h50q70 0 95 40t25 90v440q0 100 -10 135t-50 35t-87 -18l-13 38l260 110h50v-156q21 28 45 53q98 103 216 103q116 0 199.5 -58t116.5 -166.5t33 -225.5v-290q0 -50 25 -90t95 -40h50v-40h-490v40h50q70 0 95 40t25 90v290 q0 97 -13.5 188t-61 139t-124.5 48q-79 0 -141.5 -53t-91 -149t-28.5 -193v-270zM488 1050l-178 350h50l239 -239l239 239h50l-178 -350h-222z" />
<glyph unicode="&#x149;" horiz-adv-x="1222" d="M392 170q0 -50 25 -90t95 -40h50v-40h-490v40h50q70 0 95 40t25 90v440q0 100 -10 135t-50 35t-87 -18l-13 38l260 110h50v-156q21 28 45 53q98 103 216 103q116 0 199.5 -58t116.5 -166.5t33 -225.5v-290q0 -50 25 -90t95 -40h50v-40h-490v40h50q70 0 95 40t25 90v290 q0 97 -13.5 188t-61 139t-124.5 48q-79 0 -141.5 -53t-91 -149t-28.5 -193v-270zM208 1407q48 -10 89 -54q51 -58 51 -153q0 -103 -71.5 -191.5t-226.5 -139.5v44q103 34 159.5 105.5t56.5 151.5q0 19 -9 32q-5 6 -9 8l-10 -6q-27 -14 -56 -14t-55.5 14t-40.5 40.5t-14 55.5 t14 55.5t41 40.5q25 13 52 14h3q13 0 26 -3z" />
<glyph unicode="&#x14a;" horiz-adv-x="1411" d="M450 1003v-803q0 -50 40 -105t110 -55h50v-40h-600v40h50q70 0 110 55t40 105v1000q0 50 -40 105t-110 55h-50v40h400v-286q83 130 180.5 213t251.5 83q225 0 352 -172.5t127 -470.5q0 -213 -47 -392t-166.5 -282t-232.5 -103q-91 0 -153 59.5t-62 135.5q0 43 27.5 75.5 t69.5 32.5q82 0 120 -137q15 -56 34 -69t46 -13q87 0 125.5 116.5t38.5 484.5q0 328 -78.5 481.5t-248.5 153.5q-101 0 -191 -65t-193 -242z" />
<glyph unicode="&#x14b;" horiz-adv-x="1030" d="M370 170q0 -50 25 -90t95 -40h50v-40h-490v40h50q70 0 95 40t25 90v440q0 100 -10 135t-50 35t-87 -18l-13 38l260 110h50v-156q21 28 45 53q98 103 216 103q116 0 199.5 -58t116.5 -166.5t33 -225.5v-507q0 -235 -92.5 -349t-252.5 -114q-91 0 -135 33t-44 68t24.5 60 t57.5 25q26 0 53 -13q17 -7 65.5 -50.5t81.5 -43.5q24 0 47 18.5t34 62t11 188.5v622q0 97 -13.5 188t-61 139t-124.5 48q-79 0 -141.5 -53t-91 -149t-28.5 -193v-270z" />
<glyph unicode="&#x14c;" horiz-adv-x="1400" d="M700 1410q293 0 471.5 -205t178.5 -505q0 -301 -180 -505.5t-470 -204.5t-470 204.5t-180 505.5q0 300 178.5 505t471.5 205zM700 1310q-213 0 -331.5 -193.5t-118.5 -416.5q0 -219 118.5 -414.5t331.5 -195.5q210 0 330 195.5t120 414.5q0 223 -120 416.5t-330 193.5z M988 1750v-150h-578v150h578z" />
<glyph unicode="&#x14d;" horiz-adv-x="935" d="M467 910q109 0 209.5 -58t154.5 -166.5t54 -235.5t-54 -235.5t-154.5 -166.5t-209.5 -58q-108 0 -208.5 58t-154.5 166.5t-54 235.5t54 235.5t154.5 166.5t208.5 58zM333.5 787q-64.5 -48 -99 -138.5t-34.5 -198.5q0 -107 34.5 -198t99 -139t133.5 -48q70 0 134.5 48 t99 139t34.5 198q0 108 -34.5 198.5t-99 138.5t-134.5 48q-69 0 -133.5 -48zM748 1300v-150h-578v150h578z" />
<glyph unicode="&#x14e;" horiz-adv-x="1400" d="M700 1410q293 0 471.5 -205t178.5 -505q0 -301 -180 -505.5t-470 -204.5t-470 204.5t-180 505.5q0 300 178.5 505t471.5 205zM700 1310q-213 0 -331.5 -193.5t-118.5 -416.5q0 -219 118.5 -414.5t331.5 -195.5q210 0 330 195.5t120 414.5q0 223 -120 416.5t-330 193.5z M529 1732q26 -36 74 -55.5t100 -19.5t100 19.5t74 55.5t26 75h64q0 -69 -34.5 -132t-97.5 -97.5t-132 -34.5t-132 34.5t-97 97.5t-34 132h63q0 -39 26 -75z" />
<glyph unicode="&#x14f;" horiz-adv-x="935" d="M467 910q109 0 209.5 -58t154.5 -166.5t54 -235.5t-54 -235.5t-154.5 -166.5t-209.5 -58q-108 0 -208.5 58t-154.5 166.5t-54 235.5t54 235.5t154.5 166.5t208.5 58zM333.5 787q-64.5 -48 -99 -138.5t-34.5 -198.5q0 -107 34.5 -198t99 -139t133.5 -48q70 0 134.5 48 t99 139t34.5 198q0 108 -34.5 198.5t-99 138.5t-134.5 48q-69 0 -133.5 -48zM289 1282q26 -36 74 -55.5t100 -19.5t100 19.5t74 55.5t26 75h64q0 -69 -34.5 -132t-97.5 -97.5t-132 -34.5t-132 34.5t-97 97.5t-34 132h63q0 -39 26 -75z" />
<glyph unicode="&#x150;" horiz-adv-x="1400" d="M700 1410q293 0 471.5 -205t178.5 -505q0 -301 -180 -505.5t-470 -204.5t-470 204.5t-180 505.5q0 300 178.5 505t471.5 205zM700 1310q-213 0 -331.5 -193.5t-118.5 -416.5q0 -219 118.5 -414.5t331.5 -195.5q210 0 330 195.5t120 414.5q0 223 -120 416.5t-330 193.5z M880 1850l-350 -350h-50l178 350h222zM1180 1850l-350 -350h-50l178 350h222z" />
<glyph unicode="&#x151;" horiz-adv-x="935" d="M467 910q109 0 209.5 -58t154.5 -166.5t54 -235.5t-54 -235.5t-154.5 -166.5t-209.5 -58q-108 0 -208.5 58t-154.5 166.5t-54 235.5t54 235.5t154.5 166.5t208.5 58zM333.5 787q-64.5 -48 -99 -138.5t-34.5 -198.5q0 -107 34.5 -198t99 -139t133.5 -48q70 0 134.5 48 t99 139t34.5 198q0 108 -34.5 198.5t-99 138.5t-134.5 48q-69 0 -133.5 -48zM650 1400l-350 -350h-50l178 350h222zM950 1400l-350 -350h-50l178 350h222z" />
<glyph unicode="&#x152;" horiz-adv-x="2150" d="M1050 89q-148 -99 -350 -99q-290 0 -470 204.5t-180 504.5q0 301 178.5 506t471.5 205q202 0 350 -98v88h950l100 -350h-40q-110 250 -210 250h-600v-550h400q50 0 105 40t55 110v50h40v-500h-40v50q0 70 -55 110t-105 40h-400v-550h600q100 0 210 250h40l-100 -350h-950 v89zM1050 320v763l-20 34q-120 193 -330 193q-213 0 -331.5 -193.5t-118.5 -415.5q0 -220 118.5 -415.5t331.5 -195.5q210 0 330 196z" />
<glyph unicode="&#x153;" horiz-adv-x="1645" d="M234.5 648.5q-34.5 -90.5 -34.5 -198.5q0 -107 34.5 -198t99 -139t133.5 -48q70 0 134.5 48t99 139t34.5 198q0 108 -34.5 198.5t-99 138.5t-134.5 48q-69 0 -133.5 -48t-99 -138.5zM1418 545q-10 53 -31 104q-39 90 -91.5 138t-131.5 48q-77 0 -129.5 -48t-90.5 -138 q-22 -51 -32 -104h506zM813 181q-52 -84 -136 -133q-101 -58 -210 -58q-108 0 -208.5 58t-154.5 166.5t-54 235.5t54 235.5t154.5 166.5t208.5 58q109 0 210 -58q84 -49 136 -133q55 84 147 133q88 58 204 58q118 0 216.5 -58t156.5 -166q56 -104 58 -216h-690v-30 q0 -97 38.5 -188t91 -139t159.5 -48q109 0 191 49.5t129 121.5l29 -16q-47 -97 -124 -163.5t-225 -66.5q-146 0 -234 58q-92 49 -147 133z" />
<glyph unicode="&#x154;" horiz-adv-x="1538" d="M450 1270v-490q120 -30 245 -30t240 62.5t115 212.5t-115 212.5t-240 62.5t-245 -30zM733 650h-283v-450q0 -50 40 -105t110 -55h50v-40h-600v40h50q70 0 110 55t40 105v1000q0 50 -40 105t-110 55h-50v40h670q250 0 390 -92.5t140 -282.5t-125 -282q-66 -49 -174 -72 l278 -482q29 -45 81 -94q58 -55 128 -55h50v-40h-600v40h50q70 0 75 55q1 9 1 18q0 43 -20 83zM960 1850l-350 -350h-50l178 350h222z" />
<glyph unicode="&#x155;" horiz-adv-x="863" d="M399 633q-29 -96 -29 -193v-270q0 -50 25 -90t95 -40h50v-40h-490v40h50q70 0 95 40t25 90v440q0 100 -10 135t-50 35t-87 -18l-13 38l260 110h50v-156q21 28 45 53q98 103 216 103h9q68 0 117 -14q17 -8 30 -18q26 -21 26 -48q0 -18 -12 -40q-28 -48 -61 -48q-3 0 -7 1 q-37 6 -59 31.5t-60 34.5q-10 2 -21 2q-30 0 -66 -18q-49 -25 -98 -86q-18 -33 -30 -74zM680 1400l-350 -350h-50l178 350h222z" />
<glyph unicode="&#x156;" horiz-adv-x="1538" d="M450 1270v-490q120 -30 245 -30t240 62.5t115 212.5t-115 212.5t-240 62.5t-245 -30zM733 650h-283v-450q0 -50 40 -105t110 -55h50v-40h-600v40h50q70 0 110 55t40 105v1000q0 50 -40 105t-110 55h-50v40h670q250 0 390 -92.5t140 -282.5t-125 -282q-66 -49 -174 -72 l278 -482q29 -45 81 -94q58 -55 128 -55h50v-40h-600v40h50q70 0 75 55q1 9 1 18q0 43 -20 83zM724 6h80l-80 -109q93 0 139 -26t46 -90q0 -72 -60 -126.5t-155 -54.5q-57 0 -134 17v43q58 -14 88 -14q51 0 86 33.5t35 76.5q0 40 -48 57t-82 17q-10 0 -26 -2z" />
<glyph unicode="&#x157;" horiz-adv-x="863" d="M264 0h-214v40h50q70 0 95 40t25 90v440q0 100 -10 135t-50 35t-87 -18l-13 38l260 110h50v-156q21 28 45 53q98 103 216 103h9q68 0 117 -14q17 -8 30 -18q26 -21 26 -48q0 -18 -12 -40q-28 -48 -61 -48q-3 0 -7 1q-37 6 -59 31.5t-60 34.5q-10 2 -21 2q-30 0 -66 -18 q-49 -25 -98 -86q-18 -33 -30 -74q-29 -96 -29 -193v-270q0 -50 25 -90t95 -40h50v-40h-198l-68 -93q93 0 139 -26t46 -90q0 -72 -60 -126.5t-155 -54.5q-57 0 -134 17v43q58 -14 88 -14q51 0 86 33.5t35 76.5q0 40 -48 57t-82 17q-10 0 -26 -2z" />
<glyph unicode="&#x158;" horiz-adv-x="1538" d="M450 1270v-490q120 -30 245 -30t240 62.5t115 212.5t-115 212.5t-240 62.5t-245 -30zM733 650h-283v-450q0 -50 40 -105t110 -55h50v-40h-600v40h50q70 0 110 55t40 105v1000q0 50 -40 105t-110 55h-50v40h670q250 0 390 -92.5t140 -282.5t-125 -282q-66 -49 -174 -72 l278 -482q29 -45 81 -94q58 -55 128 -55h50v-40h-600v40h50q70 0 75 55q1 9 1 18q0 43 -20 83zM598 1500l-178 350h50l239 -239l239 239h50l-178 -350h-222z" />
<glyph unicode="&#x159;" horiz-adv-x="863" d="M399 633q-29 -96 -29 -193v-270q0 -50 25 -90t95 -40h50v-40h-490v40h50q70 0 95 40t25 90v440q0 100 -10 135t-50 35t-87 -18l-13 38l260 110h50v-156q21 28 45 53q98 103 216 103h9q68 0 117 -14q17 -8 30 -18q26 -21 26 -48q0 -18 -12 -40q-28 -48 -61 -48q-3 0 -7 1 q-37 6 -59 31.5t-60 34.5q-10 2 -21 2q-30 0 -66 -18q-49 -25 -98 -86q-18 -33 -30 -74zM318 1050l-178 350h50l239 -239l239 239h50l-178 -350h-222z" />
<glyph unicode="&#x15a;" horiz-adv-x="1001" d="M861 1410v-463h-37q-18 133 -64.5 212t-132.5 115t-178 36q-104 0 -172 -52t-68 -142q0 -62 43 -112q52 -74 275 -197q190 -101 269.5 -155t117 -127t37.5 -153q0 -162 -119.5 -272t-307.5 -110q-59 0 -111 9q-31 5 -128.5 36t-123.5 31q-25 0 -39.5 -15t-21.5 -61h-37 v459h37q26 -144 70 -215.5t134.5 -107.5t198.5 -36q125 0 197.5 53.5t72.5 152.5q0 50 -27.5 100t-85.5 94q-39 29 -213 125.5t-247.5 153.5t-111.5 126.5t-38 152.5q0 154 112 258t285 104q108 0 229 -52q56 -25 79 -25q26 0 42.5 15.5t26.5 61.5h37zM730 1850l-350 -350 h-50l178 350h222z" />
<glyph unicode="&#x15b;" horiz-adv-x="700" d="M584 910v-289h-32q-36 136 -93.5 185t-145.5 49q-67 0 -108.5 -34t-41.5 -76q0 -52 31 -99q30 -38 101 -81l140 -65q215 -92 215 -242q0 -126 -90.5 -197t-203.5 -71q-80 0 -184 28q-32 9 -52 9q-22 0 -34 -24h-32v303h42q16 -130 92 -195.5t170 -65.5q66 0 108 37.5 t42 100.5q0 64 -41.5 107.5t-181 110t-182.5 120.5q-53 53 -53 133q0 115 74.5 185.5t192.5 70.5q52 0 126 -21q49 -14 65 -14q15 0 24 6.5t20 28.5h32zM590 1400l-350 -350h-50l178 350h222z" />
<glyph unicode="&#x15c;" horiz-adv-x="1001" d="M861 1410v-463h-37q-18 133 -64.5 212t-132.5 115t-178 36q-104 0 -172 -52t-68 -142q0 -62 43 -112q52 -74 275 -197q190 -101 269.5 -155t117 -127t37.5 -153q0 -162 -119.5 -272t-307.5 -110q-59 0 -111 9q-31 5 -128.5 36t-123.5 31q-25 0 -39.5 -15t-21.5 -61h-37 v459h37q26 -144 70 -215.5t134.5 -107.5t198.5 -36q125 0 197.5 53.5t72.5 152.5q0 50 -27.5 100t-85.5 94q-39 29 -213 125.5t-247.5 153.5t-111.5 126.5t-38 152.5q0 154 112 258t285 104q108 0 229 -52q56 -25 79 -25q26 0 42.5 15.5t26.5 61.5h37zM580 1850l178 -350 h-50l-239 239l-239 -239h-50l178 350h222z" />
<glyph unicode="&#x15d;" horiz-adv-x="700" d="M584 910v-289h-32q-36 136 -93.5 185t-145.5 49q-67 0 -108.5 -34t-41.5 -76q0 -52 31 -99q30 -38 101 -81l140 -65q215 -92 215 -242q0 -126 -90.5 -197t-203.5 -71q-80 0 -184 28q-32 9 -52 9q-22 0 -34 -24h-32v303h42q16 -130 92 -195.5t170 -65.5q66 0 108 37.5 t42 100.5q0 64 -41.5 107.5t-181 110t-182.5 120.5q-53 53 -53 133q0 115 74.5 185.5t192.5 70.5q52 0 126 -21q49 -14 65 -14q15 0 24 6.5t20 28.5h32zM440 1400l178 -350h-50l-239 239l-239 -239h-50l178 350h222z" />
<glyph unicode="&#x15e;" horiz-adv-x="1001" d="M481 -9q-35 2 -68 8q-31 5 -128.5 36t-123.5 31q-25 0 -39.5 -15t-21.5 -61h-37v459h37q26 -144 70 -215.5t134.5 -107.5t198.5 -36q125 0 197.5 53.5t72.5 152.5q0 50 -27.5 100t-85.5 94q-39 29 -213 125.5t-247.5 153.5t-111.5 126.5t-38 152.5q0 154 112 258t285 104 q108 0 229 -52q56 -25 79 -25q26 0 42.5 15.5t26.5 61.5h37v-463h-37q-18 133 -64.5 212t-132.5 115t-178 36q-104 0 -172 -52t-68 -142q0 -62 43 -112q52 -74 275 -197q190 -101 269.5 -155t117 -127t37.5 -153q0 -162 -119 -272q-109 -100 -273 -109l-69 -94q93 0 139 -26 t46 -90q0 -72 -60 -126.5t-155 -54.5q-57 0 -134 17v43q58 -14 88 -14q51 0 86 33.5t35 76.5q0 40 -48 57t-82 17q-10 0 -26 -2z" />
<glyph unicode="&#x15f;" horiz-adv-x="700" d="M321 -9q-67 5 -149 27q-32 9 -52 9q-22 0 -34 -24h-32v303h42q16 -130 92 -195.5t170 -65.5q66 0 108 37.5t42 100.5q0 64 -41.5 107.5t-181 110t-182.5 120.5q-53 53 -53 133q0 115 74.5 185.5t192.5 70.5q52 0 126 -21q49 -14 65 -14q15 0 24 6.5t20 28.5h32v-289h-32 q-36 136 -93.5 185t-145.5 49q-67 0 -108.5 -34t-41.5 -86t31 -89q30 -38 101 -81l140 -65q215 -92 215 -242q0 -126 -90 -197q-73 -57 -160 -68l-70 -96q93 0 139 -26t46 -90q0 -72 -60 -126.5t-155 -54.5q-57 0 -134 17v43q58 -14 88 -14q51 0 86 33.5t35 76.5 q0 40 -48 57t-82 17q-10 0 -26 -2z" />
<glyph unicode="&#x160;" horiz-adv-x="1001" d="M861 1410v-463h-37q-18 133 -64.5 212t-132.5 115t-178 36q-104 0 -172 -52t-68 -142q0 -62 43 -112q52 -74 275 -197q190 -101 269.5 -155t117 -127t37.5 -153q0 -162 -119.5 -272t-307.5 -110q-59 0 -111 9q-31 5 -128.5 36t-123.5 31q-25 0 -39.5 -15t-21.5 -61h-37 v459h37q26 -144 70 -215.5t134.5 -107.5t198.5 -36q125 0 197.5 53.5t72.5 152.5q0 50 -27.5 100t-85.5 94q-39 29 -213 125.5t-247.5 153.5t-111.5 126.5t-38 152.5q0 154 112 258t285 104q108 0 229 -52q56 -25 79 -25q26 0 42.5 15.5t26.5 61.5h37zM378 1550l-178 350h50 l239 -239l239 239h50l-178 -350h-222z" />
<glyph unicode="&#x161;" horiz-adv-x="700" d="M584 910v-289h-32q-36 136 -93.5 185t-145.5 49q-67 0 -108.5 -34t-41.5 -76q0 -52 31 -99q30 -38 101 -81l140 -65q215 -92 215 -242q0 -126 -90.5 -197t-203.5 -71q-80 0 -184 28q-32 9 -52 9q-22 0 -34 -24h-32v303h42q16 -130 92 -195.5t170 -65.5q66 0 108 37.5 t42 100.5q0 64 -41.5 107.5t-181 110t-182.5 120.5q-53 53 -53 133q0 115 74.5 185.5t192.5 70.5q52 0 126 -21q49 -14 65 -14q15 0 24 6.5t20 28.5h32zM228 1050l-178 350h50l239 -239l239 239h50l-178 -350h-222z" />
<glyph unicode="&#x162;" horiz-adv-x="1400" d="M686 0h-286v40h50q70 0 110 55t40 105v1100h-300q-100 0 -210 -250h-40l100 350h1100l100 -350h-40q-110 250 -210 250h-300v-1100q0 -50 40 -105t110 -55h50v-40h-234l-76 -103q93 0 139 -26t46 -90q0 -72 -60 -126.5t-155 -54.5q-57 0 -134 17v43q58 -14 88 -14 q51 0 86 33.5t35 76.5q0 40 -48 57t-82 17q-10 0 -26 -2z" />
<glyph unicode="&#x163;" horiz-adv-x="667" d="M338 -3q-21 6 -42 19q-44 25 -65 72.5t-21 146.5v590h-160v75q160 0 260 300h50v-300h190v-75h-190v-568q0 -89 30 -120t76 -31q33 0 64 20.5t48 60.5h39q-35 -98 -99 -147q-51 -40 -104 -48l-70 -95q93 0 139 -26t46 -90q0 -72 -60 -126.5t-155 -54.5q-57 0 -134 17v43 q58 -14 88 -14q51 0 86 33.5t35 76.5q0 40 -48 57t-82 17q-10 0 -26 -2z" />
<glyph unicode="&#x164;" horiz-adv-x="1400" d="M800 200q0 -50 40 -105t110 -55h50v-40h-600v40h50q70 0 110 55t40 105v1100h-300q-100 0 -210 -250h-40l100 350h1100l100 -350h-40q-110 250 -210 250h-300v-1100zM589 1500l-178 350h50l239 -239l239 239h50l-178 -350h-222z" />
<glyph unicode="&#x165;" horiz-adv-x="806" d="M550 896v-71h-190v-568q0 -89 30 -120t76 -31q33 0 64 20.5t48 60.5h39q-35 -98 -99 -147.5t-132 -49.5q-46 0 -90 25.5t-65 73t-21 146.5v590h-160v75q160 0 260 300h50v-300h93q108 37 164.5 108.5t56.5 151.5q0 19 -9 32q-5 6 -9 8l-10 -6q-27 -14 -56 -14t-55.5 14 t-40.5 40.5t-14 55.5t14 55.5t41 40.5q25 13 52 14h3q13 0 26 -3q48 -10 89 -54q51 -58 51 -153q0 -103 -71 -191q-49 -60 -135 -103z" />
<glyph unicode="&#x166;" horiz-adv-x="1400" d="M800 651v-451q0 -50 40 -105t110 -55h50v-40h-600v40h50q70 0 110 55t40 105v451h-400v100h400v549h-300q-100 0 -210 -250h-40l100 350h1100l100 -350h-40q-110 250 -210 250h-300v-549h400v-100h-400z" />
<glyph unicode="&#x167;" horiz-adv-x="667" d="M210 650v175h-160v75q160 0 260 300h50v-300h190v-75h-190v-175h190v-100h-190v-293q0 -89 30 -120t76 -31q33 0 64 20.5t48 60.5h39q-35 -98 -99 -147.5t-132 -49.5q-46 0 -90 25.5t-65 73t-21 146.5v315h-160v100h160z" />
<glyph unicode="&#x168;" horiz-adv-x="1600" d="M1550 1400v-40h-50q-70 0 -110 -55t-40 -105v-710q0 -200 -150 -350t-350 -150q-300 0 -450 165t-150 385v660q0 50 -40 105t-110 55h-50v40h600v-40h-50q-70 0 -110 -55t-40 -105v-610q0 -220 100 -360t300 -140q150 0 275 125t125 325v660q0 50 -40 105t-110 55h-50v40 h500zM1114 1794h56q-3 -114 -49.5 -177.5t-125.5 -63.5q-83 0 -204.5 65.5t-167.5 65.5q-47 0 -66 -22.5t-31 -106.5h-56q3 118 48 180t125 62q76 0 200.5 -68t171.5 -68q46 0 69.5 27t29.5 106z" />
<glyph unicode="&#x169;" horiz-adv-x="1190" d="M830 730q0 50 -25 90t-95 40h-50v40h320v-610q0 -100 10 -135t50 -35t87 18l13 -38l-260 -110h-50v156q-21 -28 -45 -53q-98 -103 -216 -103q-116 0 -199.5 58t-116.5 166.5t-33 225.5v290q0 50 -25 90t-95 40h-50v40h320v-460q0 -97 13.5 -188t61 -139t124.5 -48 q79 0 141.5 53t91 149t28.5 193v270zM854 1344h56q-3 -114 -49.5 -177.5t-125.5 -63.5q-83 0 -204.5 65.5t-167.5 65.5q-47 0 -66 -22.5t-31 -106.5h-56q3 118 48 180t125 62q76 0 200.5 -68t171.5 -68q46 0 69.5 27t29.5 106z" />
<glyph unicode="&#x16a;" horiz-adv-x="1600" d="M1550 1400v-40h-50q-70 0 -110 -55t-40 -105v-710q0 -200 -150 -350t-350 -150q-300 0 -450 165t-150 385v660q0 50 -40 105t-110 55h-50v40h600v-40h-50q-70 0 -110 -55t-40 -105v-610q0 -220 100 -360t300 -140q150 0 275 125t125 325v660q0 50 -40 105t-110 55h-50v40 h500zM1118 1750v-150h-578v150h578z" />
<glyph unicode="&#x16b;" horiz-adv-x="1190" d="M830 730q0 50 -25 90t-95 40h-50v40h320v-610q0 -100 10 -135t50 -35t87 18l13 -38l-260 -110h-50v156q-21 -28 -45 -53q-98 -103 -216 -103q-116 0 -199.5 58t-116.5 166.5t-33 225.5v290q0 50 -25 90t-95 40h-50v40h320v-460q0 -97 13.5 -188t61 -139t124.5 -48 q79 0 141.5 53t91 149t28.5 193v270zM868 1300v-150h-578v150h578z" />
<glyph unicode="&#x16c;" horiz-adv-x="1600" d="M1550 1400v-40h-50q-70 0 -110 -55t-40 -105v-710q0 -200 -150 -350t-350 -150q-300 0 -450 165t-150 385v660q0 50 -40 105t-110 55h-50v40h600v-40h-50q-70 0 -110 -55t-40 -105v-610q0 -220 100 -360t300 -140q150 0 275 125t125 325v660q0 50 -40 105t-110 55h-50v40 h500zM629 1732q26 -36 74 -55.5t100 -19.5t100 19.5t74 55.5t26 75h64q0 -69 -34.5 -132t-97.5 -97.5t-132 -34.5t-132 34.5t-97 97.5t-34 132h63q0 -39 26 -75z" />
<glyph unicode="&#x16d;" horiz-adv-x="1190" d="M830 730q0 50 -25 90t-95 40h-50v40h320v-610q0 -100 10 -135t50 -35t87 18l13 -38l-260 -110h-50v156q-21 -28 -45 -53q-98 -103 -216 -103q-116 0 -199.5 58t-116.5 166.5t-33 225.5v290q0 50 -25 90t-95 40h-50v40h320v-460q0 -97 13.5 -188t61 -139t124.5 -48 q79 0 141.5 53t91 149t28.5 193v270zM399 1282q26 -36 74 -55.5t100 -19.5t100 19.5t74 55.5t26 75h64q0 -69 -34.5 -132t-97.5 -97.5t-132 -34.5t-132 34.5t-97 97.5t-34 132h63q0 -39 26 -75z" />
<glyph unicode="&#x16e;" horiz-adv-x="1600" d="M1550 1400v-40h-50q-70 0 -110 -55t-40 -105v-710q0 -200 -150 -350t-350 -150q-300 0 -450 165t-150 385v660q0 50 -40 105t-110 55h-50v40h600v-40h-50q-70 0 -110 -55t-40 -105v-610q0 -220 100 -360t300 -140q150 0 275 125t125 325v660q0 50 -40 105t-110 55h-50v40 h500zM815 1850q46 0 88 -22.5t64.5 -64.5t22.5 -88t-22.5 -88t-64.5 -64.5t-88 -22.5t-88 22.5t-64.5 64.5t-22.5 88t22.5 88t64.5 64.5t88 22.5zM765 1762q-24 -13 -37 -37t-13 -50t13 -50t37 -37t50 -13t50 13t37 37t13 50t-13 50t-37 37t-50 13t-50 -13z" />
<glyph unicode="&#x16f;" horiz-adv-x="1190" d="M830 730q0 50 -25 90t-95 40h-50v40h320v-610q0 -100 10 -135t50 -35t87 18l13 -38l-260 -110h-50v156q-21 -28 -45 -53q-98 -103 -216 -103q-116 0 -199.5 58t-116.5 166.5t-33 225.5v290q0 50 -25 90t-95 40h-50v40h320v-460q0 -97 13.5 -188t61 -139t124.5 -48 q79 0 141.5 53t91 149t28.5 193v270zM575 1400q46 0 88 -22.5t64.5 -64.5t22.5 -88t-22.5 -88t-64.5 -64.5t-88 -22.5t-88 22.5t-64.5 64.5t-22.5 88t22.5 88t64.5 64.5t88 22.5zM525 1312q-24 -13 -37 -37t-13 -50t13 -50t37 -37t50 -13t50 13t37 37t13 50t-13 50t-37 37 t-50 13t-50 -13z" />
<glyph unicode="&#x170;" horiz-adv-x="1600" d="M1550 1400v-40h-50q-70 0 -110 -55t-40 -105v-710q0 -200 -150 -350t-350 -150q-300 0 -450 165t-150 385v660q0 50 -40 105t-110 55h-50v40h600v-40h-50q-70 0 -110 -55t-40 -105v-610q0 -220 100 -360t300 -140q150 0 275 125t125 325v660q0 50 -40 105t-110 55h-50v40 h500zM1010 1850l-350 -350h-50l178 350h222zM1310 1850l-350 -350h-50l178 350h222z" />
<glyph unicode="&#x171;" horiz-adv-x="1190" d="M830 730q0 50 -25 90t-95 40h-50v40h320v-610q0 -100 10 -135t50 -35t87 18l13 -38l-260 -110h-50v156q-21 -28 -45 -53q-98 -103 -216 -103q-116 0 -199.5 58t-116.5 166.5t-33 225.5v290q0 50 -25 90t-95 40h-50v40h320v-460q0 -97 13.5 -188t61 -139t124.5 -48 q79 0 141.5 53t91 149t28.5 193v270zM710 1400l-350 -350h-50l178 350h222zM1010 1400l-350 -350h-50l178 350h222z" />
<glyph unicode="&#x172;" horiz-adv-x="1600" d="M815 -9q-274 9 -415 164q-150 165 -150 385v660q0 50 -40 105t-110 55h-50v40h600v-40h-50q-70 0 -110 -55t-40 -105v-610q0 -220 100 -360t300 -140q150 0 275 125t125 325v660q0 50 -40 105t-110 55h-50v40h500v-40h-50q-70 0 -110 -55t-40 -105v-710q0 -200 -150 -350 q-141 -141 -325 -149q-19 -44 -19 -84q0 -84 52 -132q69 -63 162 -63q77 0 139 23l31 -32q-68 -49 -122 -72.5t-129 -23.5q-109 0 -174 64t-65 140q0 53 22 107q17 42 43 73z" />
<glyph unicode="&#x173;" horiz-adv-x="1190" d="M830 6v140q-21 -28 -45 -53q-98 -103 -216 -103q-116 0 -199.5 58t-116.5 166.5t-33 225.5v290q0 50 -25 90t-95 40h-50v40h320v-460q0 -97 13.5 -188t61 -139t124.5 -48q79 0 141.5 53t91 149t28.5 193v270q0 50 -25 90t-95 40h-50v40h320v-610q0 -100 10 -135t50 -35 t87 18l13 -38l-260 -110h-5q-19 -43 -19 -83q0 -84 52 -132q69 -63 162 -63q77 0 139 23l31 -32q-68 -49 -122 -72.5t-129 -23.5q-109 0 -174 64t-65 140q0 53 21.5 106.5t58.5 88.5z" />
<glyph unicode="&#x174;" horiz-adv-x="2279" d="M1140 733l-296 -733h-108l-487 1205q-22 48 -74 100q-55 55 -125 55h-50v40h600v-40h-50q-70 0 -86 -55q-7 -25 -7 -50q0 -23 6 -45l381 -943l242 598l-137 340q-22 48 -74 100q-55 55 -125 55h-50v40h600v-40h-50q-70 0 -86 -55q-7 -25 -7 -50q0 -23 6 -45l381 -943 l381 942q5 18 5 37q0 29 -11 59q-20 55 -90 55h-50v40h500v-40h-50q-70 0 -125 -55q-51 -51 -72 -98l-488 -1207h-108zM1240 1850l178 -350h-50l-239 239l-239 -239h-50l178 350h222z" />
<glyph unicode="&#x175;" horiz-adv-x="1835" d="M918 584l-236 -584h-108l-285 704q-21 48 -74 101q-55 55 -115 55h-50v40h526v-40h-50q-60 0 -76 -55q-8 -26 -8 -52q0 -21 6 -42l207 -511l206 509l2 8q-22 42 -68 88q-55 55 -115 55h-50v40h526v-40h-50q-60 0 -76 -55q-8 -26 -8 -52q0 -21 6 -42l207 -511l206 509 q5 18 5 37q0 29 -11 59q-20 55 -80 55h-50v40h480v-40h-50q-60 0 -115 -55q-51 -51 -72 -98l-286 -707h-108zM1020 1400l178 -350h-50l-239 239l-239 -239h-50l178 350h222z" />
<glyph unicode="&#x176;" horiz-adv-x="1652" d="M313 1202q-34 49 -88 103q-55 55 -125 55h-50v40h600v-40h-50q-70 0 -75 -55q-1 -7 -1 -14q0 -41 21 -79l313 -483l332 474q32 49 32 102q0 55 -70 55h-50v40h500v-40h-50q-70 0 -140 -55q-53 -42 -85 -81l-407 -581v-443q0 -50 40 -105t110 -55h50v-40h-600v40h50 q70 0 110 55t40 105v375zM940 1850l178 -350h-50l-239 239l-239 -239h-50l178 350h222z" />
<glyph unicode="&#x177;" horiz-adv-x="1255" d="M574 0l-285 704q-21 48 -74 101q-55 55 -115 55h-50v40h526v-40h-50q-60 0 -76 -55q-8 -26 -8 -52q0 -21 6 -42l207 -511l206 509q5 18 5 37q0 29 -11 59q-20 55 -80 55h-50v40h480v-40h-50q-60 0 -115 -55q-51 -51 -72 -98l-382 -944q-54 -133 -151.5 -198t-178.5 -65 q-59 0 -97 34t-38 78q0 42 27.5 67.5t75.5 25.5q33 0 90 -22q40 -15 50 -15q30 0 65.5 32t71.5 121zM760 1400l178 -350h-50l-239 239l-239 -239h-50l178 350h222z" />
<glyph unicode="&#x3ab;" horiz-adv-x="1652" d="M313 1202q-34 49 -88 103q-55 55 -125 55h-50v40h600v-40h-50q-70 0 -75 -55q-1 -7 -1 -14q0 -41 21 -79l313 -483l332 474q32 49 32 102q0 55 -70 55h-50v40h500v-40h-50q-70 0 -140 -55q-53 -42 -85 -81l-407 -581v-443q0 -50 40 -105t110 -55h50v-40h-600v40h50 q70 0 110 55t40 105v375zM660 1785q29 0 55.5 -14t40.5 -40.5t14 -55.5t-14 -55.5t-40.5 -40.5t-55.5 -14t-55.5 14t-40.5 40.5t-14 55.5t14 55.5t40.5 40.5t55.5 14zM1010 1785q29 0 55.5 -14t40.5 -40.5t14 -55.5t-14 -55.5t-40.5 -40.5t-55.5 -14t-55.5 14t-40.5 40.5 t-14 55.5t14 55.5t40.5 40.5t55.5 14z" />
<glyph unicode="&#x178;" horiz-adv-x="1652" d="M313 1202q-34 49 -88 103q-55 55 -125 55h-50v40h600v-40h-50q-70 0 -75 -55q-1 -7 -1 -14q0 -41 21 -79l313 -483l332 474q32 49 32 102q0 55 -70 55h-50v40h500v-40h-50q-70 0 -140 -55q-53 -42 -85 -81l-407 -581v-443q0 -50 40 -105t110 -55h50v-40h-600v40h50 q70 0 110 55t40 105v375zM660 1785q29 0 55.5 -14t40.5 -40.5t14 -55.5t-14 -55.5t-40.5 -40.5t-55.5 -14t-55.5 14t-40.5 40.5t-14 55.5t14 55.5t40.5 40.5t55.5 14zM1010 1785q29 0 55.5 -14t40.5 -40.5t14 -55.5t-14 -55.5t-40.5 -40.5t-55.5 -14t-55.5 14t-40.5 40.5 t-14 55.5t14 55.5t40.5 40.5t55.5 14z" />
<glyph unicode="&#x179;" horiz-adv-x="1326" d="M365 100h661q100 0 210 250h40l-100 -350h-1126l911 1300h-661q-100 0 -210 -250h-40l100 350h1126zM950 1850l-350 -350h-50l178 350h222z" />
<glyph unicode="&#x17a;" horiz-adv-x="913" d="M610 800h-310q-100 0 -200 -210h-40l90 310h713l-560 -800h310q100 0 200 210h40l-90 -310h-713zM740 1400l-350 -350h-50l178 350h222z" />
<glyph unicode="&#x17b;" horiz-adv-x="1326" d="M365 100h661q100 0 210 250h40l-100 -350h-1126l911 1300h-661q-100 0 -210 -250h-40l100 350h1126zM690 1785q29 0 55.5 -14t40.5 -40.5t14 -55.5t-14 -55.5t-40.5 -40.5t-55.5 -14t-55.5 14t-40.5 40.5t-14 55.5t14 55.5t40.5 40.5t55.5 14z" />
<glyph unicode="&#x17c;" horiz-adv-x="913" d="M610 800h-310q-100 0 -200 -210h-40l90 310h713l-560 -800h310q100 0 200 210h40l-90 -310h-713zM500 1335q29 0 55.5 -14t40.5 -40.5t14 -55.5t-14 -55.5t-40.5 -40.5t-55.5 -14t-55.5 14t-40.5 40.5t-14 55.5t14 55.5t40.5 40.5t55.5 14z" />
<glyph unicode="&#x17d;" horiz-adv-x="1326" d="M365 100h661q100 0 210 250h40l-100 -350h-1126l911 1300h-661q-100 0 -210 -250h-40l100 350h1126zM588 1550l-178 350h50l239 -239l239 239h50l-178 -350h-222z" />
<glyph unicode="&#x17e;" horiz-adv-x="913" d="M610 800h-310q-100 0 -200 -210h-40l90 310h713l-560 -800h310q100 0 200 210h40l-90 -310h-713zM398 1050l-178 350h50l239 -239l239 239h50l-178 -350h-222z" />
<glyph unicode="&#x17f;" horiz-adv-x="650" d="M220 910q0 167 24 265.5t94.5 166.5t178.5 68q109 0 184.5 -38t119.5 -146q5 -18 5 -34q0 -56 -55 -65q-13 -3 -23 -3q-37 0 -51 26q-18 31 -18 61q0 2 1 5v4q0 30 -21 64q-23 35 -52.5 48t-89.5 13q-59 0 -103 -54t-44 -161v-960q0 -50 25 -90t95 -40h50v-40h-490v40h50 q70 0 95 40t25 90v740z" />
<glyph unicode="&#x180;" horiz-adv-x="1055" d="M394.5 648.5q-34.5 -90.5 -34.5 -198.5v-260q69 -79 123.5 -102t123.5 -23q50 0 114.5 48t99 139t34.5 198q0 108 -34.5 198.5t-99 138.5t-114.5 48q-69 0 -123.5 -48t-89 -138.5zM360 1000v-185q23 21 49 37q90 58 198 58q89 0 189.5 -58t154.5 -166.5t54 -235.5 t-54 -235.5t-154.5 -166.5t-189.5 -58q-108 0 -198.5 13t-198.5 107v890h-210v100h210q0 110 -10 145t-50 35t-87 -18l-13 38l260 110h50v-310h240v-100h-240z" />
<glyph unicode="&#x181;" horiz-adv-x="1563" d="M663 130q120 -30 245 -30q175 0 290 62.5t115 212.5t-115 212.5t-290 62.5q-125 0 -245 -30v-490zM908 750q125 0 240 62.5t115 212.5t-115 212.5t-240 62.5t-245 -30v-490q120 -30 245 -30zM463 1200h-115q-145 0 -188.5 -8.5t-62 -29t-18.5 -44.5q0 -33 43.5 -61.5 t50.5 -45.5q13 -27 13 -53q0 -33 -25 -57.5t-60 -24.5t-68 44t-33 135q0 160 114 252.5t349 92.5h470q250 0 390 -92.5t140 -282.5t-155 -297q-15 -10 -31 -18q45 -15 81 -37q155 -108 155 -298t-140 -282.5t-390 -92.5h-720v40h50q70 0 110 55t40 105v1000z" />
<glyph unicode="&#x411;" horiz-adv-x="1300" d="M695 100q125 0 240 62.5t115 212.5t-115 212.5t-240 62.5t-245 -30v-490q120 -30 245 -30zM50 0v40h50q70 0 110 55t40 105v1000q0 50 -40 105t-110 55h-50v40h1050l100 -350h-40q-110 250 -210 250h-500v-550h270q280 0 405 -92.5t125 -282.5t-140 -282.5t-390 -92.5 h-670z" />
<glyph unicode="&#x182;" horiz-adv-x="1300" d="M695 100q125 0 240 62.5t115 212.5t-115 212.5t-240 62.5t-245 -30v-490q120 -30 245 -30zM50 0v40h50q70 0 110 55t40 105v1000q0 50 -40 105t-110 55h-50v40h1050l100 -350h-40q-110 250 -210 250h-500v-550h270q280 0 405 -92.5t125 -282.5t-140 -282.5t-390 -92.5 h-670z" />
<glyph unicode="&#x183;" horiz-adv-x="1065" d="M404.5 648.5q-34.5 -90.5 -34.5 -198.5v-260q69 -79 123.5 -102t123.5 -23q50 0 114.5 48t99 139t34.5 198q0 108 -34.5 198.5t-99 138.5t-114.5 48q-69 0 -123.5 -48t-89 -138.5zM370 815q23 21 49 37q90 58 198 58q89 0 189.5 -58t154.5 -166.5t54 -235.5t-54 -235.5 t-154.5 -166.5t-189.5 -58q-108 0 -198.5 13t-198.5 107v1120q0 50 -25 90t-95 40h-50v40h880l80 -290h-40q-90 190 -190 190h-410v-485z" />
<glyph unicode="&#x184;" horiz-adv-x="1300" d="M50 0v40h50q70 0 110 55t40 105v650l-200 200l350 350h50v-650h270q280 0 405 -92.5t125 -282.5t-140 -282.5t-390 -92.5h-670zM695 100q125 0 240 62.5t115 212.5t-115 212.5t-240 62.5t-245 -30v-490q120 -30 245 -30z" />
<glyph unicode="&#x185;" horiz-adv-x="1005" d="M344.5 648.5q-34.5 -90.5 -34.5 -198.5v-260q69 -79 123.5 -102t123.5 -23q50 0 114.5 48t99 139t34.5 198q0 108 -34.5 198.5t-99 138.5t-114.5 48q-69 0 -123.5 -48t-89 -138.5zM160 980l-160 160l260 260h50v-585q23 21 49 37q90 58 198 58q89 0 189.5 -58 t154.5 -166.5t54 -235.5t-54 -235.5t-154.5 -166.5t-189.5 -58q-108 0 -198.5 13t-198.5 107v870z" />
<glyph unicode="&#x186;" horiz-adv-x="1248" d="M498 90q237 0 368.5 193.5t131.5 415.5q0 220 -131.5 415.5t-368.5 195.5q-269 0 -423 -164l-25 35l22 24q194 205 426 205q312 0 506 -204.5t194 -504.5q0 -301 -192 -506t-508 -205q-100 0 -185 39t-115 39t-53.5 -26.5t-23.5 -51.5h-37v450h37q0 -80 53.5 -165 t141 -135t182.5 -50z" />
<glyph unicode="&#x187;" horiz-adv-x="1248" d="M1164 960h-37q0 80 -53.5 165t-141 135t-182.5 50q-237 0 -368.5 -193.5t-131.5 -415.5q0 -220 131.5 -415.5t368.5 -195.5q269 0 423 164l25 -35l-22 -24q-194 -205 -426 -205q-312 0 -506 204.5t-194 504.5q0 301 192 506t508 205q100 0 185 -39l29 -13q2 217 93 328 q92 114 252 114q91 0 135 -33t44 -68t-24.5 -60t-57.5 -25q-26 0 -53 13q-17 7 -45.5 50.5t-61.5 43.5q-24 0 -44.5 -18.5t-29 -62t-8.5 -178.5v-502z" />
<glyph unicode="&#x188;" horiz-adv-x="866" d="M816 662q0 -56 -60 -65q-14 -3 -25 -3q-40 0 -54 26q-14 24 -14 49q0 8 2 17q1 8 1 17q0 25 -12 51q-18 35 -67.5 58t-119.5 23q-69 0 -133.5 -48t-99 -138.5t-34.5 -198.5q0 -107 34.5 -198t99 -139t133.5 -48q100 0 184.5 53t119.5 134l9 26l31 -22 q-33 -115 -129 -190.5t-215 -75.5q-108 0 -208.5 58t-154.5 166.5t-54 235.5t54 235.5t154.5 166.5t208.5 58q109 0 205 -53l1 -1q18 147 86 230q92 114 252 114q91 0 135 -33t44 -68t-24.5 -60t-57.5 -25q-26 0 -53 13q-17 7 -65.5 50.5t-81.5 43.5q-24 0 -47 -18.5 t-34 -62t-11 -188.5v-190z" />
<glyph unicode="&#x18a;" horiz-adv-x="1613" d="M663 1300v-1200h265q145 0 290 139t145 461q0 324 -145 462t-290 138h-265zM463 1200h-115q-145 0 -188.5 -8.5t-62 -29t-18.5 -44.5q0 -33 43.5 -61.5t50.5 -45.5q13 -27 13 -53q0 -33 -25 -57.5t-60 -24.5t-68 44t-33 135q0 160 114 252.5t349 92.5h490 q270 0 440 -172.5t170 -527.5q0 -353 -155 -526.5t-455 -173.5h-690v40h50q70 0 110 55t40 105v1000z" />
<glyph unicode="&#x18b;" horiz-adv-x="1300" d="M850 130v490q-120 30 -245 30t-240 -62.5t-115 -212.5t115 -212.5t240 -62.5t245 30zM580 0q-250 0 -390 92.5t-140 282.5t125 282.5t405 92.5h270v550h-500q-100 0 -210 -250h-40l100 350h1050v-40h-50q-70 0 -110 -55t-40 -105v-1000q0 -50 40 -105t110 -55h50v-40 h-670z" />
<glyph unicode="&#x18c;" horiz-adv-x="1105" d="M468 835q-70 0 -134.5 -48t-99 -138.5t-34.5 -198.5q0 -107 34.5 -198t99 -139t134.5 -48q69 0 133.5 48t99 139t34.5 198q0 108 -34.5 198.5t-99 138.5t-133.5 48zM885 290q0 -100 10 -135t50 -35t87 18l13 -38l-260 -110h-50v99q-27 -23 -58 -41q-101 -58 -209 -58 q-109 0 -209.5 58t-154.5 166.5t-54 235.5t54 235.5t154.5 166.5t209.5 58q108 0 209 -58q31 -18 58 -41v489h-450q-100 0 -190 -190h-40l80 290h920v-40h-50q-70 0 -95 -40t-25 -90v-940z" />
<glyph unicode="&#x18d;" horiz-adv-x="935" d="M700.5 251.5q34.5 90.5 34.5 198.5q0 107 -34.5 198t-99 139t-133.5 48q-70 0 -134.5 -48t-99 -139t-34.5 -198q0 -108 25.5 -162t113.5 -141q82 -82 124 -82h5q69 0 133.5 48t99 138.5zM223 71q-75 55 -119 143q-54 109 -54 236t54 235.5t154.5 166.5t209.5 58 q108 0 208.5 -58t154.5 -166.5t54 -235.5t-54 -235.5t-155 -166.5q-85 -49 -175 -57q47 -46 72 -68q98 -76 132 -125.5t34 -108.5q0 -88 -82 -138.5t-214 -50.5t-230.5 45t-98.5 124q0 38 24 63t56 25q46 0 108 -69q63 -70 106.5 -98.5t101.5 -28.5q74 0 121.5 33t47.5 84 q0 48 -39 90t-201 143q-142 97 -216 160z" />
<glyph unicode="&#x2d3a;" horiz-adv-x="1350" d="M1100 200q0 -50 40 -105t110 -55h50v-40h-1150l-100 350h40q110 -250 210 -250h600v550h-400q-50 0 -105 -40t-55 -110v-50h-40v500h40v-50q0 -70 55 -110t105 -40h400v550h-600q-100 0 -210 -250h-40l100 350h1150v-40h-50q-70 0 -110 -55t-40 -105v-1000z" />
<glyph unicode="&#x2203;" horiz-adv-x="1350" d="M1100 200q0 -50 40 -105t110 -55h50v-40h-1150l-100 350h40q110 -250 210 -250h600v550h-400q-50 0 -105 -40t-55 -110v-50h-40v500h40v-50q0 -70 55 -110t105 -40h400v550h-600q-100 0 -210 -250h-40l100 350h1150v-40h-50q-70 0 -110 -55t-40 -105v-1000z" />
<glyph unicode="&#x18e;" horiz-adv-x="1350" d="M1100 200q0 -50 40 -105t110 -55h50v-40h-1150l-100 350h40q110 -250 210 -250h600v550h-400q-50 0 -105 -40t-55 -110v-50h-40v500h40v-50q0 -70 55 -110t105 -40h400v550h-600q-100 0 -210 -250h-40l100 350h1150v-40h-50q-70 0 -110 -55t-40 -105v-1000z" />
<glyph unicode="&#x4d8;" horiz-adv-x="1280" d="M252 651q12 -193 97 -365q98 -196 291 -196q190 0 290 196q86 172 98 365h-776zM580 1410q293 0 471.5 -205t178.5 -506q0 -300 -160 -504.5t-430 -204.5t-430 204.5t-160 504.5v52h978q-12 195 -118 366q-120 193 -330 193q-95 0 -182.5 -50t-141 -135t-53.5 -165h-37 v450h37q0 -25 23.5 -51.5t53.5 -26.5t115 39t185 39z" />
</font>
</defs>
</svg>
